<svg xmlns="http://www.w3.org/2000/svg" width="514" height="452" viewBox="0 0 514 452"><defs><style>.a{fill:#e2eff2;}.b,.e{fill:#924fc2;}.c,.m{fill:#ffae80;}.d{fill:#ffbb7d;}.e,.m,.u{opacity:0.5;}.e,.h,.m,.u,.v{mix-blend-mode:multiply;}.e,.h,.m,.q,.u,.v{isolation:isolate;}.f{fill:#0b1017;}.g,.h{fill:#60c1d2;}.i,.l,.z{fill:#1d1d1b;}.i,.k{opacity:0.15;}.j{fill:#f0efef;}.l{opacity:0.1;}.n{fill:#373737;}.o{fill:#0d64b0;}.p{fill:#042e7f;}.r{fill:#fff;}.s{fill:#ccc;}.t{fill:#041b4e;}.u,.w{fill:#9e2e3b;}.aa,.v{fill:#d6eeeb;}.x{fill:#c8e6e2;}.y{fill:#3f76ab;}</style></defs><g transform="translate(-23.634 -119.306)"><g transform="translate(23.634 274.547)"><path class="a" d="M530.088,342.491,280.829,486.4c-10.059,5.809-26.371,5.809-36.432,0L31.18,363.3c-10.061-5.809-10.061-15.227,0-21.035l249.257-143.91c10.061-5.809,26.373-5.809,36.435,0l213.216,123.1C540.149,327.266,540.149,336.684,530.088,342.491Z" transform="translate(-23.634 -193.999)"/></g><g transform="translate(83.881 119.306)"><g transform="translate(273.011 51.244)"><g transform="translate(48.808 107.509)"><path class="b" d="M231.847,257.552c-6.626-.41-5.166-11.669-3.369-17.792a4.325,4.325,0,0,1,5.493-2.569c2.19.723,3.538,4.881,3.469,7.186C237.375,246.529,239.68,258.038,231.847,257.552Z" transform="translate(-185.656 -150.722)"/><path class="c" d="M227.611,245.085c-1.118-9.495,9.258-10.282,7.85.058-.375,2.751-2.1,4.756-3.846,4.833C228.908,250.095,227.844,247.067,227.611,245.085Z" transform="translate(-185.045 -149.959)"/><g transform="translate(0 9.753)"><g transform="translate(0 62.446)"><path class="c" d="M218.909,248.968a15.719,15.719,0,0,1-10.17,3.44,1.761,1.761,0,0,1-1.372-.473c-.493-.6-.146-1.522.262-2.186,3.344-5.449,9.626-10.1,12.375-15.9a4.946,4.946,0,0,1,1.168-1.843c.862-.689,2.076-.533,3.132-.806.974-.252,2.018-.883,2.907-.4.81.446.974,1.547,1.218,2.469.26.983.71,3.438,1.031,4.4a5.151,5.151,0,0,1,.225,3,4.744,4.744,0,0,1-2.453,2.682c-1.081.581-2.265.937-3.34,1.533C222.024,245.93,220.587,247.627,218.909,248.968Z" transform="translate(-207.124 -229.781)"/><path class="b" d="M207.365,251.943a1.8,1.8,0,0,0,1.368.462,15.663,15.663,0,0,0,10.174-3.434c1.678-1.339,3.125-3.046,4.987-4.079,1.079-.583,2.263-.954,3.34-1.522a4.776,4.776,0,0,0,2.447-2.694,5.136,5.136,0,0,0-.214-3c-.277-.831-.645-3.171-.908-4.019a2.85,2.85,0,0,1-.123-.383c-.246-.908-.416-2.016-1.233-2.463-.877-.491-1.922.139-2.892.4-1.062.262-2.278.108-3.14.8a5.079,5.079,0,0,0-1.17,1.847,21.127,21.127,0,0,1-4.51,5.924,57.542,57.542,0,0,0-7.865,9.974C207.226,250.419,206.872,251.343,207.365,251.943Z" transform="translate(-207.124 -229.782)"/><path class="c" d="M210.208,243.394a1.041,1.041,0,0,0,.385.985,1.6,1.6,0,0,0,.893.14c3.232-.248,6.08-2.186,8.589-4.248a22.7,22.7,0,0,0,3.586-3.511,11.33,11.33,0,0,0,1.57-2.663,2.849,2.849,0,0,1-.123-.383c-.246-.908-.279-2.84-1.093-3.288-.879-.491-2.061.027-3.032.289-1.062.26-2.649-.337-3.511.356-.571.462-.321,2-.643,2.663a24.36,24.36,0,0,1-4.666,6.488c-.554.756-1.077,1.478-1.508,2.172A2.692,2.692,0,0,0,210.208,243.394Z" transform="translate(-203.797 -230.222)"/></g><path class="c" d="M211.661,210.081c.092,1.483.208,3.2.323,5.085.117,1.784.244,3.719.373,5.77.1,1.655.208,3.371.323,5.143,1.137,17.772,2.549,40.072,2.549,40.105a.574.574,0,0,0,.071.127c1.61,3,7.669,3.673,8.225-.127.648-11.746,2.734-21.988,4.206-31.383.5-3.209.927-6.313,1.193-9.347a68.762,68.762,0,0,0,.312-7.635v-.371a45.6,45.6,0,0,0-.546-6.44c-.1-.637-.231-1.264-.358-1.889l-13.682-8.887C214.649,200.615,211.661,209.675,211.661,210.081Z" transform="translate(-202.214 -200.232)"/></g><g transform="translate(25.515)"><path class="c" d="M219.378,195.548c2.27,11.631,3.567,20.828,4.945,27.872q.156.8.312,1.564a58.483,58.483,0,0,0,1.855,7.09c.15.464.3.9.475,1.31l1.135,5.445.5,2.374,8.783,42.1.312,1.5.289,1.378c0,3.315,5.074,2.19,5.374-.6.023-.208.048-.429.071-.637.069-.627.137-1.239.2-1.853,2.724-25.428,1.97-35.67.256-45.286-.208-1.226-.441-2.455-.685-3.694-.348-1.784-.718-3.6-1.089-5.549.094-.627.152-1.251.221-1.878.023-.16.035-.323.046-.485a1.7,1.7,0,0,0,.035-.267,180.152,180.152,0,0,0,.777-30.375Z" transform="translate(-219.378 -195.548)"/><path class="d" d="M219.378,195.548c2.27,11.631,3.567,20.828,4.945,27.872q.156.8.312,1.564a58.483,58.483,0,0,0,1.855,7.09c.15.464.3.9.475,1.31l1.135,5.445.5,2.374,8.783,42.1.312,1.5.289,1.378c0,3.315,5.074,2.19,5.374-.6.023-.208.048-.429.071-.637.069-.627.137-1.239.2-1.853,2.724-25.428,1.97-35.67.256-45.286-.208-1.226-.441-2.455-.685-3.694-.348-1.784-.718-3.6-1.089-5.549.094-.627.152-1.251.221-1.878.023-.16.035-.323.046-.485a1.7,1.7,0,0,0,.035-.267,180.152,180.152,0,0,0,.777-30.375Z" transform="translate(-219.378 -195.548)"/></g></g><path class="c" d="M221.753,208.934q.156.8.312,1.564a58.483,58.483,0,0,0,1.855,7.09c.15.464.3.9.475,1.31l1.135,5.445.5,2.374a33.082,33.082,0,0,0,15.281-3.406c-.208-1.226-.441-2.455-.685-3.694-.348-1.784-.718-3.6-1.089-5.549.094-.627.152-1.251.221-1.878.023-.16.035-.323.046-.485Z" transform="translate(-142.485 -73.553)"/><path class="c" d="M211.816,207.4c.117,1.784.244,3.719.373,5.77.1,1.655.208,3.371.323,5.143a31.864,31.864,0,0,0,15.05,8.722c.5-3.209.927-6.313,1.193-9.347a68.761,68.761,0,0,0,.312-7.635Z" transform="translate(-153.239 -75.208)"/><path class="b" d="M212.386,240.544c2.072,5.643,30.165,16.972,39.062,8.175l2.607-38.821c2.409-12.743.3-19.31-6.315-25.474-.8-.741-1.655-1.472-2.582-2.213l-19.729-.8L217.7,181.1C210.993,202.483,210.812,225.773,212.386,240.544Z" transform="translate(-153.505 -103.676)"/><path class="e" d="M214.918,181.1c1.889,4.518,4.4,8.006,9.385,9.28s14.957.208,20.666-5.955c6.615,6.163,8.724,12.731,6.315,25.474l-2.607,38.821a11.916,11.916,0,0,1-4.346,2.509c1.807-13.553-.25-44.759-3.127-55.406-16.345.637-23.26-3.2-27.073-12.21Z" transform="translate(-150.734 -103.676)"/><path class="f" d="M223.318,158.2a8.288,8.288,0,1,0,8.289-8.287A8.288,8.288,0,0,0,223.318,158.2Z" transform="translate(-140.791 -137.431)"/><path class="g" d="M195.932,202.741l2.6,4.749c.954-.266,1.909-.541,2.857-.845a115.051,115.051,0,0,0,26.23-12.168l13.942-17.195,2.461-3.03L241.78,154.6c-5.364.121-13.53,14.936-21.969,31.154Z" transform="translate(-170.429 -132.358)"/><path class="h" d="M198.552,197.668a115.05,115.05,0,0,0,26.23-12.168L238.724,168.3c-.727-1.864-2.259-5.814-2.159-5.38.285,1.12-13.474,20.2-13.509,21.288Z" transform="translate(-167.593 -123.381)"/><path class="c" d="M188.768,191.232c-.337,1.139.119,1.574,1.487,1.179l1.17-.5c-.2.514.1.7.9.546.09-.01.179-.031.277-.05l13.191-6.69a4.563,4.563,0,0,0,2.261-2.626,5.3,5.3,0,0,0-.337-3.44s-2.667-5.391-9.226.308c-3.5,3.042-5.63,4.777-6.848,5.728-.119.09-.229.177-.327.258-.825.633-1.12.822-1.12.822-.733.981-.764,1.635,0,1.922l-1.428,1.12C188.164,190.478,188.046,190.984,188.768,191.232Z" transform="translate(-178.721 -107.735)"/><path class="i" d="M189.728,184.417c.01.04,1.02,6.551,1.02,6.551.09-.01.179-.031.277-.05l13.191-6.69a4.563,4.563,0,0,0,2.261-2.626c-2.765,1.16-4.146-.681-5.291-2.451-1.318-2.041-9.308,3.887-11.121,5.047C189.847,184.338,189.728,184.417,189.728,184.417Z" transform="translate(-177.143 -106.242)"/><path class="j" d="M203.124,170.651l6.442,37.5-19.223,11.562-6.659-38.721Z" transform="translate(-183.684 -114.983)"/><path class="c" d="M203.582,181.841a6.633,6.633,0,0,1-6.472,1.141L193,184.1c-2.8.656-2.472-1.516-.446-2.057,0,0,5.782-2.426,7.517-4.4Z" transform="translate(-175.801 -107.406)"/><path class="g" d="M210.534,190.707a7.347,7.347,0,0,0,8.483,6.984c0,.391,0,.7.021.987.125,2.445.556,5.362.514,7.992,0,.287,0,.554-.021.8a13.184,13.184,0,0,1-.267,2.034,7.6,7.6,0,0,1-.248.924c1.932,4.581,4.479,8.135,9.553,9.428a17.987,17.987,0,0,0,4.6.473c5.258-.042,12.058-1.828,16.433-6.532-.964-7.127,1.46-16.25,3.967-23.912,1.93-5.916,3.944-10.948,4.477-13.495a75.852,75.852,0,0,0-16.187-14.834c-5.957-4.148-8.689-9.428-15.49-6.882s-7.6,16.085-10.086,21.426C213.8,181.423,210.534,185.139,210.534,190.707Z" transform="translate(-154.626 -132.994)"/><path class="h" d="M214.856,191.667a7.6,7.6,0,0,1-.248.924c2.59,7.4,7.375,10.744,14.155,9.9,5.258-.042,12.058-1.828,16.433-6.532-.964-7.127,1.46-16.25,3.967-23.912L243,170.489l-6.678,10.682c-5.2,8.749-18.671,7.025-19.248-1.911l-2.465.679c0,.308,0,.616.021.9.062,3.513.473,5.895.514,7.992,0,.287,0,.554-.021.8A8.5,8.5,0,0,1,214.856,191.667Z" transform="translate(-150.217 -115.158)"/><g transform="translate(92.059 41.335)"><path class="g" d="M239.034,165.89c5.6,9.772,8.745,20.791,9.736,32.9,1.557,8.881-.121,25.041-4.141,33.576-1-1.235-2.792-1.782-5.595-1.455-.66-11.873-1.455-23.389,0-29.545l-8.953-19.585C223.926,168.347,234,159.5,239.034,165.89Z" transform="translate(-227.624 -163.768)"/><path class="c" d="M228.419,205.63a1.625,1.625,0,0,0,1.9-.252c1.5-1.56,3.065-2.794,5.085-2.1a3.728,3.728,0,0,1,.171,2.559l-.054.225a38.583,38.583,0,0,1-3.561,7.923.873.873,0,0,0,.208,1.056,1.2,1.2,0,0,0,1.389.035c-.081.8.954,1.11,1.649.379l1.035-1.135c.119.927,1.218.666,1.56,0l1.966-2.434a18.385,18.385,0,0,0,3.39-4.606c.125-.254.26-.506.387-.766a27.327,27.327,0,0,0,1.362-8.662c-.677-2.4-2.821-2.751-5.6-1.451l-3.317,1.722c-3.09,1.514-4.66,3.686-7.977,6.372C227.742,204.864,227.969,205.362,228.419,205.63Z" transform="translate(-227.896 -129.256)"/><path class="k" d="M229.948,209.356a1.2,1.2,0,0,0,1.389.035c-.081.8.954,1.11,1.649.379l1.035-1.135c.119.927,1.218.666,1.56,0l1.966-2.434a18.387,18.387,0,0,0,3.39-4.606c-1.605.658-3.263.2-4.958-.685C234.546,204.236,231.968,208.742,229.948,209.356Z" transform="translate(-225.675 -123.571)"/><path class="k" d="M228.151,202.245a1.613,1.613,0,0,0,1.893-.252c1.5-1.56,3.065-2.794,5.085-2.1a3.728,3.728,0,0,1,.171,2.559l.829-3.534C232.451,198.064,229.892,201.544,228.151,202.245Z" transform="translate(-227.62 -125.871)"/></g><path class="l" d="M214.026,175.752a11.394,11.394,0,0,1-2.809-1.955A6.937,6.937,0,0,0,214.026,175.752Z" transform="translate(-153.887 -111.578)"/><path class="c" d="M231.088,153.461c.9,3.094,1.685,7.392,2.828,10.586.677,3.64-6.063,10.9-10.557,10.578-3.18-.627-3.111-6.819-3.579-10.576Z" transform="translate(-144.62 -133.586)"/><path class="m" d="M231.87,153.452c-.05,10.559-4.939,25.695-11.383,23.11-4.579-1.836.023-9.549,0-16.81Z" transform="translate(-146.052 -133.596)"/><g transform="translate(69.333)"><path class="c" d="M233.066,168.653c-3.18,3.977-6.615,7.375-12.229,6.559-2.078-.3-4.006-3.4-3.846-15.829a21.1,21.1,0,0,1,4.241-11.488c2.744-3.327,7.45-4.573,11.931-3.55,6.353,1.447,9.424,6.355,8.679,12.524C240.391,165.269,236.776,168.384,233.066,168.653Z" transform="translate(-216.982 -143.828)"/><path class="f" d="M234.2,167.968a4.971,4.971,0,0,1-2.694-2.3c-1.245-1.959-1.422-4.277-1.687-6.869-5.809-.591-11.948-4.833-11.948-6.792.264-2.694,1.916-5.153,6.863-7.113,5.505-2.086,10.4-.787,14.332,3.484,6.143,6.678.591,18.459-4.618,20.6Z" transform="translate(-216.016 -143.916)"/><path class="c" d="M225.467,155.974a7.1,7.1,0,0,1,1.4-1.7,2.924,2.924,0,0,1,2.03-.727,1.375,1.375,0,0,1,.566.152,1.324,1.324,0,0,1,.618,1.122,3.015,3.015,0,0,1-.31,1.3,5.951,5.951,0,0,1-1.428,2.088,3.615,3.615,0,0,1-2.3.968,1.359,1.359,0,0,1-.937-.279,1.175,1.175,0,0,1-.341-.675A3.309,3.309,0,0,1,225.467,155.974Z" transform="translate(-208.596 -133.499)"/></g></g><path class="a" d="M250.071,337.326,53.152,451.036l-.583-204.767c-.044-11.887,8.321-26.346,18.65-32.312l128.06-73.939,31.427-18.134c6.938-4.021,13.012-3.177,16.231,1.406a15.69,15.69,0,0,1,2.551,9.293Z" transform="translate(-52.567 -119.306)"/><g transform="translate(0 172.889)"><path class="n" d="M162.5,210.393l-13.951-8.056L55.6,256a28.339,28.339,0,0,0-3.036,2.059l50.163,28.961L162.5,252.51A24.316,24.316,0,0,0,162.5,210.393Z" transform="translate(-52.568 -202.337)"/><path class="o" d="M162.5,210.393l-13.951-8.056L55.6,256a28.339,28.339,0,0,0-3.036,2.059l50.163,28.961L162.5,252.51A24.316,24.316,0,0,0,162.5,210.393Z" transform="translate(-52.568 -202.337)"/></g><g transform="translate(0 167.485)"><path class="p" d="M162.5,207.8l-13.951-8.056L55.6,253.4a28.335,28.335,0,0,0-3.036,2.059l50.163,28.961,59.77-34.511A24.316,24.316,0,0,0,162.5,207.8Z" transform="translate(-52.568 -199.742)"/></g><g transform="translate(39.514 151.141)"><path class="n" d="M124.9,243.155l-12.068-48.738a3.815,3.815,0,0,0-1.624-2.288,1.782,1.782,0,0,0-.552-.214.956.956,0,0,0-.673.094L81.49,208.564c-.431.231-.635.908-.419,1.784l6.342,25.609-15.367,8.931a1.2,1.2,0,0,0-.5,1.1,3.786,3.786,0,0,0,1.718,2.971l21.5,12.414a1.113,1.113,0,0,0,1.4-.01.753.753,0,0,1-.173.133l28.491-16.556a.937.937,0,0,0,.173-.133A1.76,1.76,0,0,0,124.9,243.155Z" transform="translate(-71.545 -191.893)"/><g class="q"><path class="g" d="M101.5,209.572a1.22,1.22,0,0,0-1.229-.119L71.786,226.009a1.222,1.222,0,0,1,1.228.121l19.113,11.036,28.489-16.558Z" transform="translate(-71.284 -173.014)"/><path class="g" d="M119.727,243.155l-12.068-48.738a3.815,3.815,0,0,0-1.624-2.288,1.782,1.782,0,0,0-.552-.214.956.956,0,0,0-.673.094L76.321,208.564a.967.967,0,0,1,.673-.094,1.78,1.78,0,0,1,.552.214,3.81,3.81,0,0,1,1.622,2.288l12.068,48.738A1.747,1.747,0,0,1,91,261.362a.753.753,0,0,1-.173.133l28.491-16.556a.936.936,0,0,0,.173-.133A1.76,1.76,0,0,0,119.727,243.155Z" transform="translate(-66.376 -191.893)"/><path class="r" d="M79.663,207.313c-.05-.2-.108-.4-.173-.6l21.23-12.337,11.259,45.467L90.769,252.17Z" transform="translate(-62.947 -189.203)"/><g transform="translate(0 16.556)"><path class="p" d="M82.714,200.08a3.81,3.81,0,0,1,1.622,2.288L96.4,251.106a1.748,1.748,0,0,1-.237,1.651,1.113,1.113,0,0,1-1.4.01l-21.5-12.414a3.786,3.786,0,0,1-1.718-2.971c0-1.091.779-1.528,1.73-.979L92.388,247.44l-11.317-45.7c-.3-1.206.192-2.047,1.091-1.878A1.78,1.78,0,0,1,82.714,200.08Z" transform="translate(-71.545 -199.844)"/></g></g></g><path class="o" d="M295.2,159.135c-.017-5.924-2.116-10.082-5.5-12.025.038.017-45.661-26.54-45.661-26.54-3.409-1.98-8.131-1.7-13.341,1.31L71.232,213.947c-10.334,5.968-18.7,20.437-18.663,32.328l.579,204.758,45.7,26.556,4.6-2.653-.581-204.756c-.025-8.96,6.3-19.9,14.084-24.4l135.87-78.451L245.471,340l45.7,26.557,4.61-2.661Z" transform="translate(-52.567 -119.305)"/><g transform="translate(192.436 32.474)"><path class="p" d="M191.154,349.685l-45.69-26.563-.477-168.153,31.406-18.134c7.8-4.5,14.157-.887,14.178,8.083Z" transform="translate(-144.987 -134.901)"/></g><g transform="translate(45.702 26.555)"><path class="r" d="M272.021,350.079l-4.6,2.682-.583-204.767c-.021-8.97-6.376-12.579-14.178-8.083l-31.406,18.134L93.192,231.984c-7.781,4.5-14.113,15.431-14.092,24.4l.583,204.744L75.1,463.788l-.585-204.767c-.042-11.887,8.323-26.346,18.652-32.312l128.06-73.939,31.427-18.134c6.938-4.019,13.01-3.177,16.231,1.405a15.7,15.7,0,0,1,2.551,9.293Z" transform="translate(-74.517 -132.059)"/></g><g transform="translate(146.927 110.973)"><path class="o" d="M281.075,290.343c10.332,5.966,18.7,20.424,18.652,32.312l-.583,85.167,45.7-26.554.581-85.16c.033-11.894-8.329-26.361-18.665-32.328l-157.786-91.1L123.131,199.15Z" transform="translate(-123.131 -172.679)"/><path class="s" d="M213.067,256.121c.021-8.968-6.311-19.906-14.092-24.4,7.779,4.493,14.107,15.435,14.082,24.4l-.581,85.162,3.363,1.943-3.357-1.949Z" transform="translate(-41.052 -108.784)"/><path class="r" d="M281.054,281.857c7.781,4.5,14.113,15.433,14.092,24.4l-.585,85.15,3.357,1.949,1.226.71.583-85.171c.044-11.887-8.32-26.346-18.652-32.312L123.131,185.392v5.285Z" transform="translate(-123.131 -158.921)"/></g><g transform="translate(291.362 150.235)"><path class="n" d="M245.845,242.775l-12.068-48.736a3.815,3.815,0,0,0-1.622-2.29,1.775,1.775,0,0,0-.552-.212.956.956,0,0,0-.673.094l-28.489,16.556c-.433.231-.635.908-.419,1.782l6.342,25.611L193,244.51a1.192,1.192,0,0,0-.5,1.1,3.779,3.779,0,0,0,1.718,2.969l21.5,12.416a1.118,1.118,0,0,0,1.4-.01.871.871,0,0,1-.173.133l28.489-16.556a.824.824,0,0,0,.173-.135A1.746,1.746,0,0,0,245.845,242.775Z" transform="translate(-192.497 -191.514)"/><g class="q"><path class="g" d="M222.454,209.195a1.218,1.218,0,0,0-1.226-.121l-28.491,16.558a1.22,1.22,0,0,1,1.229.119l19.115,11.036,28.489-16.556Z" transform="translate(-192.237 -172.637)"/><path class="g" d="M240.677,242.775l-12.068-48.736a3.815,3.815,0,0,0-1.622-2.29,1.775,1.775,0,0,0-.552-.212.956.956,0,0,0-.673.094l-28.489,16.556a.952.952,0,0,1,.67-.094,1.807,1.807,0,0,1,.552.212,3.817,3.817,0,0,1,1.624,2.29l12.069,48.738a1.749,1.749,0,0,1-.237,1.651.872.872,0,0,1-.173.133l28.489-16.556a.826.826,0,0,0,.173-.135A1.747,1.747,0,0,0,240.677,242.775Z" transform="translate(-187.328 -191.514)"/><path class="r" d="M200.614,206.933c-.048-.2-.106-.4-.173-.6L221.671,194l11.259,45.467-21.207,12.325Z" transform="translate(-183.9 -188.825)"/><g transform="translate(0 16.556)"><path class="p" d="M203.664,199.7a3.817,3.817,0,0,1,1.624,2.29l12.069,48.738a1.749,1.749,0,0,1-.237,1.651,1.118,1.118,0,0,1-1.4.01l-21.5-12.416A3.779,3.779,0,0,1,192.5,237c0-1.091.779-1.528,1.728-.981l19.115,11.036-11.317-45.7c-.3-1.2.192-2.045,1.089-1.876A1.807,1.807,0,0,1,203.664,199.7Z" transform="translate(-192.497 -199.466)"/></g></g></g><path class="r" d="M83.9,219.417c0,7.658-6.207,10.28-13.863,5.861s-13.863-14.211-13.863-21.869,6.207-10.28,13.863-5.859S83.9,211.761,83.9,219.417Z" transform="translate(-48.666 -37.066)"/><path class="p" d="M83.9,235.247,56.174,219.239V208.512L83.9,224.52Z" transform="translate(-48.666 -22.897)"/><path class="r" d="M83.9,240.091,56.174,224.083v-5.364L83.9,234.727Z" transform="translate(-48.666 -11.864)"/><path class="r" d="M83.9,244.838,56.174,228.83v-5.364L83.9,239.475Z" transform="translate(-48.666 -6.733)"/><path class="r" d="M78.858,241.311l-22.684-13.1v5.364l22.684,13.1Z" transform="translate(-48.666 -1.6)"/><path class="r" d="M83.9,254.334,56.174,238.326v-5.364L83.9,248.97Z" transform="translate(-48.666 3.53)"/><g transform="translate(65.858 164.498)"><g transform="translate(54.723)"><path class="c" d="M119.155,240.189l2.8,6.419a33.811,33.811,0,0,0,3.713,8.668c.514,2-.493,2.088-2.422,1.022l-3.981-5.88a10.046,10.046,0,0,0-2.536,4.541l1.081,9.018c-.281,1.743-.979,1.572-1.855.585l-1.6-8.187-.146,8.772c-.62.741-1.137.487-1.553-.7l-.516-2.524c-.439.914-.885.743-1.339-.192,0,0-.327-10.569-.325-10.738s3.446-12.341,3.446-12.341l1.331-2.615,5.262,1.466Z" transform="translate(-110.478 -157.756)"/><path class="r" d="M134.809,219.164c-1.876,7.1-1.385,15.783-3.84,26.071-3.332,10.313-7.427,15.354-12.15,27.069-.731,1.137-7.284-.335-7.019-1.547,4.91-22.557,2.036-15.181,5.166-24.92,1.41-7.469,1.51-17.014,2.39-26.088.525-5.959,2.786-9.193,5.9-10.551C132.273,206.9,138.757,212.49,134.809,219.164Z" transform="translate(-109.055 -187.375)"/><path class="f" d="M135.554,290.163s.983,5.326.491,7.621-6.555,3.771-6.555,3.771-5.145,6.255-12.364,5.7c-4.262-.329-5.7-1.453-6.367-2.7s-.044-2.849.8-4.017,6.3-3.161,8.508-6.684c1.076-1.716,2.871-5.326,2.871-5.326l.212-1.934a5.6,5.6,0,0,1,5.335-4.987,6.079,6.079,0,0,1,6.413,6.488l-.085,1.17Z" transform="translate(-110.478 -108.457)"/><path class="f" d="M147.459,295.59c.889,1.685.887,4.537.968,8.679a9.1,9.1,0,0,1-4.9,4.843s-1.6,7.411-11.517,7.656c-9.3.231-9.226-3.54-9.178-3.523a5.561,5.561,0,0,1,2.13-3.933c1.335-1.126,6.28-5.333,7.5-6.919a20.237,20.237,0,0,0,2.209-4.1l.414-6.719h12.537Z" transform="translate(-97.118 -97.659)"/><path class="t" d="M119.175,237.612l16.493,22.336c-.814,6.167-2.109,23.219-3.554,29.043,3.059,22.1-.889,47.112-2.7,48.511-2.53,2.082-8.547,3.359-12.048-1.889a283.419,283.419,0,0,0-1.52-49.461Z" transform="translate(-104.674 -156.058)"/><path class="p" d="M128.975,257.887l4.564,41.486c5.093,25.751,7.307,59.129,7.307,59.129,2.982,5.3,10.909,3.173,13.43,0,.281-3.332.552-6.794.77-10.349.952-15.4.852-32.457-4.922-47.079,1.851-10.759,3.792-30.906,2.811-40.776a31.582,31.582,0,0,0-.7-21.557c-.042-.1-.081-.192-.121-.292a2.759,2.759,0,0,1-.281.231,13.3,13.3,0,0,1-4.612,2.532c-11.931,3.9-29.786-5.926-29.807-5.674C117.014,247.488,121.358,252.252,128.975,257.887Z" transform="translate(-102.999 -158.308)"/><path class="u" d="M131.062,300.761c5.774,10.18,7.917,27.364,9.187,46.229.952-15.4.852-32.457-4.922-47.079,1.851-10.759,3.792-30.906,2.811-40.776a31.582,31.582,0,0,0-.7-21.557l-.4-.06-5.974-.91c.51,1.16.97,2.3,1.362,3.442,2.211,6.436,2.44,12.591.389,18.425C135.216,270.465,133.654,285.248,131.062,300.761Z" transform="translate(-88.202 -157.145)"/><path class="r" d="M116.874,251.476c.779,4.947,1.766,9.7,2.763,14.24a7.364,7.364,0,0,0,.733,2.811c1.172,2.544,4.216,5.982,12.162,6.7a45.5,45.5,0,0,0,12.37.383,18.408,18.408,0,0,0,5.414-1.474,2.4,2.4,0,0,0,.231-.117l.837-.441c3.96-2.4,3.9-5.691,3.9-5.691a222.426,222.426,0,0,0,3.369-25.207,75.978,75.978,0,0,0-.01-8.456c-.256-6.17-2.043-13.195-2.009-17.422-8.55-3.359-10.561-5.068-17.751-9.087-7.388-1.545-14.217-.929-20.628.244C114.122,223.447,114.784,238.129,116.874,251.476Z" transform="translate(-105.343 -189.408)"/><path class="v" d="M132.077,261.923a2.011,2.011,0,0,0,.231-.117l.837-.441c3.96-2.4,3.9-5.691,3.9-5.691a222.42,222.42,0,0,0,3.369-25.207,75.981,75.981,0,0,0-.01-8.456c-3.219-1.755-7.03-3.927-7.03-3.927C136.327,231.966,135.363,246.683,132.077,261.923Z" transform="translate(-87.103 -177.192)"/><path class="w" d="M125.192,215.808l-1.2,3.823-2.2-.8v-4.32l2.2-1.5Z" transform="translate(-98.238 -182.68)"/><path class="p" d="M125.994,216.606a274.433,274.433,0,0,0-.008,31.739l-3.581,3.413-2.47-5.589c.477-8.3,2.088-22.532,3.858-30.361Z" transform="translate(-100.244 -179.655)"/><path class="c" d="M131.6,205.471c.248,0,4.477,5.228,4.477,5.228,5.637,3.194-1.6,15.084-9.3,13.851l-6.378-4.433Z" transform="translate(-99.741 -190.842)"/><path class="x" d="M132.392,207.22a39.37,39.37,0,0,1,4.452,3.465S133.767,225.1,124.307,225.9a24.846,24.846,0,0,0-1.7-4.481C128.463,220.527,132.392,211.641,132.392,207.22Z" transform="translate(-97.353 -188.949)"/><path class="x" d="M125.242,221.035l-3.467,3.315s-3.323-13.561-.4-16.431S125.242,221.035,125.242,221.035Z" transform="translate(-99.989 -188.565)"/><path class="m" d="M118.336,217.075c0,5.67,1.445,10.1,5.305,9.432,8.271-1.01,9.709-12.633,8.858-17.024Z" transform="translate(-101.974 -186.5)"/><path class="c" d="M128.091,198.608c6.9.069,10.844,3.321,11.111,10.526-.2,7.573-.579,12.139-4.231,17.312-2.276,2.861-5.372,4.922-8.9,4.743-4.2-.214-10.4-10.28-11-17.566C114.048,206.262,120.322,200.619,128.091,198.608Z" transform="translate(-105.628 -198.269)"/><path d="M116.483,219.115c1.56,3.677,10.719,3.011,14.738-1.5l.45,2.7,3.7-3.071,3.219,4.185,1.164-1.655c2.93-5.88,2.782-15.556-5.568-20.42C123.027,194.872,109.189,207.863,116.483,219.115Z" transform="translate(-106.18 -198.445)"/><path class="c" d="M126.549,211.711a6.049,6.049,0,0,0,.912-2.409,2.729,2.729,0,0,0-.806-2.336,1.941,1.941,0,0,0-2.411-.119,2.093,2.093,0,0,0-.689,1.6,5.937,5.937,0,0,0,.323,1.739c.15.514.3,1.031.452,1.547a1.381,1.381,0,0,0,.573.918.991.991,0,0,0,.989-.137A2.562,2.562,0,0,0,126.549,211.711Z" transform="translate(-96.326 -189.748)"/><path class="c" d="M152.5,246.775l.439,6.48-.254,5.774-1.674,4.279c-.3,1.014-1.445,1.3-1.062.081l-1.478,4.675c-.319,1.385-1.739,1.408-1.637.087l1.077-6.159-3.869,8.445c-.606,1.253-2.159,1.38-1.793-.323l2.7-9.183-2.846,5.014-2.79,3.375c-1.154,1.149-2.661.533-1.947-.906l2.959-4.706s1.285-3.673,1.747-5.4a35.018,35.018,0,0,0-.7-3.592l-6.682,3.486c-1.809.587-2.53-.987-.916-2.157l6.742-5.953,4.291-2.613.358-.217.979-3.067,6.376.473Z" transform="translate(-86.235 -148.932)"/><path class="r" d="M143.362,213.787c7.238,7.779,10.834,16.772,16.148,30.073,1.335,10.932-.781,24.749-3.567,39.314-2.053,1.039-4.269.275-7.075-1.064.254-10.811-2.415-21.8-1.32-32.549-5.709-3.588-11.4-14-17.538-23.027C128.23,213.914,135.576,207.029,143.362,213.787Z" transform="translate(-89.632 -184.706)"/></g><g transform="translate(0 17.003)"><g transform="translate(11.841 106.239)"><path class="f" d="M95.841,320.672c6.738-.416,5.253-11.862,3.427-18.088a4.4,4.4,0,0,0-5.587-2.613c-2.224.735-3.594,4.964-3.525,7.3C90.222,309.466,87.879,321.166,95.841,320.672Z" transform="translate(-89.884 -212.058)"/><path class="c" d="M98.734,308c1.137-9.655-9.412-10.455-7.981.058.381,2.8,2.138,4.837,3.908,4.914C97.416,313.09,98.5,310.013,98.734,308Z" transform="translate(-89.088 -211.282)"/><g transform="translate(25.441 9.918)"><g transform="translate(4.402 63.488)"><path class="c" d="M115.313,311.947a16,16,0,0,0,10.338,3.5,1.8,1.8,0,0,0,1.4-.483c.5-.61.146-1.545-.269-2.222-3.4-5.539-9.786-10.265-12.581-16.162a5.041,5.041,0,0,0-1.187-1.872c-.879-.7-2.111-.543-3.184-.82-.993-.256-2.051-.9-2.957-.4-.822.452-.991,1.574-1.239,2.509-.264,1-.72,3.5-1.047,4.477a5.235,5.235,0,0,0-.229,3.051,4.815,4.815,0,0,0,2.494,2.726c1.1.593,2.3.954,3.4,1.56C112.146,308.857,113.608,310.583,115.313,311.947Z" transform="translate(-104.216 -292.438)"/><path class="f" d="M127.051,314.97a1.835,1.835,0,0,1-1.393.471,15.935,15.935,0,0,1-10.344-3.49c-1.705-1.362-3.175-3.1-5.07-4.148-1.093-.593-2.3-.97-3.394-1.549a4.855,4.855,0,0,1-2.488-2.738,5.237,5.237,0,0,1,.219-3.05c.281-.845.658-3.225.922-4.085a2.749,2.749,0,0,0,.127-.389c.25-.924.421-2.051,1.251-2.5.891-.5,1.955.142,2.942.406,1.079.267,2.315.11,3.192.814a5.219,5.219,0,0,1,1.189,1.878,21.485,21.485,0,0,0,4.585,6.024,58.39,58.39,0,0,1,8,10.141C127.193,313.421,127.551,314.36,127.051,314.97Z" transform="translate(-104.216 -292.44)"/><path class="c" d="M120.107,306.278a1.05,1.05,0,0,1-.391,1,1.628,1.628,0,0,1-.908.142c-3.284-.25-6.18-2.222-8.731-4.318a23.1,23.1,0,0,1-3.646-3.569,11.523,11.523,0,0,1-1.6-2.707,2.748,2.748,0,0,0,.127-.389c.25-.924.283-2.89,1.11-3.344.893-.5,2.1.029,3.082.294,1.081.267,2.694-.341,3.571.362.579.471.325,2.034.654,2.709a24.754,24.754,0,0,0,4.743,6.6c.562.768,1.1,1.5,1.533,2.207A2.7,2.7,0,0,1,120.107,306.278Z" transform="translate(-103.548 -292.887)"/></g><path class="c" d="M119.98,272.407c-.1,1.508-.212,3.252-.331,5.172-.117,1.814-.246,3.779-.377,5.866-.106,1.685-.21,3.427-.329,5.228-1.154,18.067-2.59,40.741-2.59,40.776a.78.78,0,0,1-.071.129c-1.639,3.05-7.8,3.733-8.364-.129-.658-11.944-2.778-22.355-4.275-31.906-.506-3.263-.941-6.419-1.214-9.505a69.528,69.528,0,0,1-.316-7.762V279.9a46.483,46.483,0,0,1,.554-6.549c.106-.648.235-1.285.364-1.92L116.94,262.4C116.94,262.785,119.98,272,119.98,272.407Z" transform="translate(-102.102 -262.396)"/></g><g transform="translate(0.504)"><path class="c" d="M116.6,257.633c-2.309,11.827-3.627,21.178-5.029,28.339q-.159.812-.319,1.591a59.576,59.576,0,0,1-1.884,7.209c-.152.471-.306.918-.483,1.331l-1.154,5.535-.506,2.415-8.929,42.8-.319,1.52-.294,1.4c0,3.369-5.16,2.226-5.466-.612-.023-.212-.048-.437-.071-.648-.071-.637-.142-1.262-.2-1.887-2.767-25.853-2-36.264-.26-46.04.212-1.249.448-2.5.7-3.756.354-1.816.731-3.665,1.108-5.643-.094-.635-.152-1.272-.223-1.907-.025-.164-.035-.331-.048-.5a2.4,2.4,0,0,1-.035-.271,183.083,183.083,0,0,1-.789-30.883Z" transform="translate(-90.126 -257.633)"/><path class="c" d="M116.6,257.633c-2.309,11.827-3.627,21.178-5.029,28.339q-.159.812-.319,1.591a59.576,59.576,0,0,1-1.884,7.209c-.152.471-.306.918-.483,1.331l-1.154,5.535-.506,2.415-8.929,42.8-.319,1.52-.294,1.4c0,3.369-5.16,2.226-5.466-.612-.023-.212-.048-.437-.071-.648-.071-.637-.142-1.262-.2-1.887-2.767-25.853-2-36.264-.26-46.04.212-1.249.448-2.5.7-3.756.354-1.816.731-3.665,1.108-5.643-.094-.635-.152-1.272-.223-1.907-.025-.164-.035-.331-.048-.5a2.4,2.4,0,0,1-.035-.271,183.083,183.083,0,0,1-.789-30.883Z" transform="translate(-90.126 -257.633)"/></g></g><path class="m" d="M110.761,271.243q-.159.812-.319,1.591a59.574,59.574,0,0,1-1.884,7.209c-.152.471-.306.918-.483,1.331l-1.154,5.535-.506,2.415a33.672,33.672,0,0,1-15.537-3.463c.212-1.249.448-2.5.7-3.756.354-1.816.731-3.665,1.108-5.643-.094-.635-.152-1.272-.223-1.907-.025-.164-.035-.331-.048-.5Z" transform="translate(-76.967 -136.666)"/><path class="m" d="M119.649,269.688c-.117,1.814-.246,3.779-.377,5.866-.106,1.685-.21,3.427-.329,5.228a32.4,32.4,0,0,1-15.3,8.87c-.506-3.263-.941-6.419-1.214-9.505a69.529,69.529,0,0,1-.316-7.762Z" transform="translate(-64.82 -138.348)"/><path class="y" d="M132.969,267.791l-21.711-4.316s-8.3-27.346-7.977-27.787,8.31-16.855,8.31-16.855l6.242,34.277,18.748,9.422Z" transform="translate(-63.554 -193.385)"/><path class="t" d="M132.969,267.791l-21.711-4.316s-8.3-27.346-7.977-27.787,8.31-16.855,8.31-16.855l6.242,34.277,18.748,9.422Z" transform="translate(-63.554 -193.385)"/><path class="z" d="M102.537,210.835c-13.82,4.491-10.871,17.534-7.142,27.756l9.755-9.174Z" transform="translate(-75.441 -202.04)"/><path class="p" d="M132.91,303.381c-2.107,5.739-30.669,17.255-39.716,8.312l-2.649-39.468c-2.451-12.958-.306-19.635,6.417-25.9.814-.754,1.685-1.5,2.628-2.249l20.058-.814,7.856-.319C134.324,264.685,134.509,288.362,132.91,303.381Z" transform="translate(-78.387 -167.292)"/><path class="o" d="M135.86,252.283a7.341,7.341,0,0,1-8.479,6.984c-.025,3.827-1.191,9.187,0,12.708-1.92,4.6-4.477,8.139-9.541,9.434s-15.206.212-21.014-6.053c.966-7.115-1.437-16.231-3.944-23.875-1.945-5.913-2.651-13.368-3.192-15.9,4.639-5.83,8.939-8.258,14.888-12.391s10.482-8.9,17.266-6.361,5.772,15.535,8.268,20.872S135.849,246.734,135.86,252.283Z" transform="translate(-78.251 -196.324)"/><path class="u" d="M127.517,242.943c-1.92,4.6-4.477,8.139-9.541,9.434s-15.206.212-21.014-6.053c-6.723,6.265-8.868,12.943-6.417,25.9l2.649,39.468a12.108,12.108,0,0,0,4.418,2.549c-1.837-13.778.254-45.5,3.18-56.328,16.618.648,23.65-3.25,27.525-12.414Z" transform="translate(-78.387 -167.292)"/><path class="u" d="M125.722,255.761c-1.92,4.6-4.477,8.139-9.541,9.434s-15.206.212-21.014-6.053c.966-7.115-1.437-16.231-3.944-23.875l4.993-4.169,7.821,13.274c5.2,8.739,18.657,7.019,19.221-1.92l2.463.683C125.7,246.88,124.531,252.24,125.722,255.761Z" transform="translate(-76.592 -180.11)"/><path class="c" d="M101.331,243.633a7.208,7.208,0,0,0,4.056,3.119l2.813.614c.275.827,1.53.985,2.813,1.124q1.409-.206,1.278-1.328c.745-.523,1.187-1.106.87-1.843a1.438,1.438,0,0,0,.612-1.943,1.72,1.72,0,0,0,.41-2.149l6.9.818c1.483.179,1.995-1.226,0-1.689l-12.837-2.351a11.425,11.425,0,0,0-5.474,0l-4.4,1.124.256,5.32Z" transform="translate(-68.847 -172.994)"/><path class="o" d="M95.631,226.147c-7.3,8.92-14.952,33.973-9.693,37.69,6.045,5.233,19.013-.543,31.054-5.46-.631-2.844-.71-4.962,1.137-6.478l-22.275,2.524,8.851-14.038C108.161,228.652,102.283,221.816,95.631,226.147Z" transform="translate(-84.197 -186.887)"/><path class="c" d="M100.094,215.114c-.877,3.017-3.236,7.685-3.813,10.563-.66,3.548,5.884,9.066,10.267,8.747,3.1-.61,3.892-4.591,4.348-8.256Z" transform="translate(-71.169 -197.409)"/><path class="m" d="M99.32,216.22s-2.58,21.228,7.621,19.477c6.655-1.143,5.253-12.118,5.253-12.118Z" transform="translate(-68.145 -196.212)"/><path class="z" d="M104.815,209.885c8.77,1.341,18.613,12.06,3.89,18.032C109.09,223.076,109.941,219.4,104.815,209.885Z" transform="translate(-61.884 -203.068)"/><path class="c" d="M108.453,206.961c10.222,1.416,13.38,7.415,12.358,15.55-.121,6.821-5.795,15.856-9.759,15.687-5.653.31-8.431-6.286-13.262-13.341C94.059,213.249,98.937,205.645,108.453,206.961Z" transform="translate(-70.846 -206.392)"/><path class="z" d="M121.315,222.956c-2.126,2.276-5.532,3.565-9.776,4.539-3.586,1.48-7.059,1.335-8.445,3.342l-4.152-1.72c-4.171-4.8-4.585-18.532,2.569-21.434C113,203.023,126.65,214.557,121.315,222.956Z" transform="translate(-71.488 -206.611)"/><path class="c" d="M101.568,218.917c-.631-2.5-2.372-4.144-3.856-2.7-.691.671-.645,1.905,0,3.471a2.807,2.807,0,0,0,2.23,1.936C101.347,221.835,102.053,220.845,101.568,218.917Z" transform="translate(-70.114 -196.8)"/><path class="aa" d="M121.9,231.978c-6.486,6.086-10.848,15.254-14.1,28.612l22.467.729c-.327-10.388,6.48-20.091,15.073-29.34Z" transform="translate(-58.662 -179.159)"/><path class="c" d="M119.721,241.3c-2.322.239-2.32,2.047-.6,2.22-2.638-.048-3.065,2.276-.85,2.415-1.518.081-1.8,1.82.391,2.022-1.643.51-1.772,1.545.083,1.8l2.5.137c1.008.1,2.382-.508,2.093-1.747.852-.006,1.508-2.063,1.085-2.22.768-.325,1.318-1.824.754-2.313,1.064-.575,1.212-2.143-.327-3.84l-.731-.756-1.1,2.122Z" transform="translate(-48.861 -171.533)"/></g></g><path class="c" d="M182.184,184.814v6.633l9.758-.3-1.369-7.782Z" transform="translate(87.704 -50.07)"/><path class="c" d="M187.063,182.978l3.852-2.168,5.16,2.828c1.322.816,1.62,2.773-.281,2.165l-3.417-.708a5.251,5.251,0,0,1-1.635,4.762L189,191.45l-6.128-.125-.685-3.746Z" transform="translate(87.704 -52.832)"/><path class="x" d="M173.69,185.29l17.686-1.229c3.182,1.214,3.833,5.166,2.519,7.917l-16.129,6.8Z" transform="translate(78.512 -49.319)"/><g transform="translate(215.819 93.262)"><path class="f" d="M197.471,263.148c0-3.461-2.671-4.789-6.626-5.212-3.459,0-8.106,1.545-14.213,2.95l-6.961,3.806a15.54,15.54,0,0,0-.506,9.68c1.957,1.691,4.437,2.734,6.734,2.12l7.821-3.313.564-1.129C190.518,271.375,197.471,268.543,197.471,263.148Z" transform="translate(-142.792 -62.663)"/><path class="f" d="M184.166,255.653c0-2.823-2.53-3.311-6.3-3.6-6.817,0-7.109,3.413-13.38,3.265l-6.163,3.746a18.451,18.451,0,0,0-.267,10.369,8.847,8.847,0,0,0,6.857,1.668l6.336-3.725.539-1.147C177.732,265.342,184.166,260.921,184.166,255.653Z" transform="translate(-154.898 -69.032)"/><path class="t" d="M162.14,207.51l22.715,9.5a78.091,78.091,0,0,1-.452,10.63c-1.433,10.467-5.655,26.284-5.655,26.284-3.044,13.449-4.264,30.14-4.976,47.735-.117,6.334-9.543,11.889-15.577,5.9-1.734-21.472-1.728-42.329,3.325-56.145-2.419-10.9-.135-23.075.543-35.643C161.471,215.518,162.777,207.779,162.14,207.51Z" transform="translate(-155.206 -117.235)"/><path class="p" d="M176.744,236.1c.023,12.552-.131,22.688,2.894,33.58-4.285,13.795-3.127,34.329-.194,55.774,3.706,4.054,8.987,4.1,12.283,1.685a7.432,7.432,0,0,0,2.963-7.279l2.318-47.67s3.342-15.794,4.191-26.246-2.842-34.354-2.842-34.354a42.8,42.8,0,0,1-6.09,1.2c-13.516,1.707-25.944-3.119-29.8-10.846-.2.564-.387,1.135-.573,1.705a55.207,55.207,0,0,0-2.515,14.507C158.932,229.182,169.749,233.25,176.744,236.1Z" transform="translate(-152.815 -123.265)"/><path class="r" d="M204.72,199.314a135.727,135.727,0,0,0-1.216,20.118c-.038,2.43-.058,4.8-.135,7.132a62.845,62.845,0,0,1-1.607,12.712A51.819,51.819,0,0,1,196,241.45c-11.675,3.683-22.292,1.88-30.715-10.126a157.4,157.4,0,0,1-9.07-39.335c.04-8.012,2.644-13.732,9.462-15.631,12.146,2.917,24.526,10.459,37.082,21.253C203.427,198.18,204.072,198.746,204.72,199.314Z" transform="translate(-156.217 -150.948)"/><path class="c" d="M182.64,179.332l-1.151,10.938c-7.079-.05-18.149-4.956-16.758-8.718l3.723-7.142Z" transform="translate(-147.132 -153.056)"/><path class="c" d="M186.136,190.787c-2.809,3.2-7.044,2.765-11.358,1.624-6.3-2.911-10.84-7.225-10.219-15.425-.5-5.955,2.2-12.193,12.352-11.871,6.461.206,11.966,2.555,12.352,9.457C189.262,174.573,189.6,187.605,186.136,190.787Z" transform="translate(-147.251 -163.128)"/><path class="x" d="M182.307,184.5l2.578,5.845c-12.1-1.364-22.952-5.9-20.247-11.5l2.207-2.567C165.156,180.311,177.083,185.121,182.307,184.5Z" transform="translate(-147.557 -151.028)"/><path class="f" d="M189.375,173.9a9.753,9.753,0,0,1-4.119,5.757s.487,5.36.2,5.455-3.088,2.509-3.088,2.509l-1.447,4.054c-4.824,3.481-12,.831-14.184-2.318-1.291-1.628-2.671-8.189-2.315-14.473.766-5.26,4.548-10.369,12.641-10.711C185.065,163.833,190.05,168.493,189.375,173.9Z" transform="translate(-147.402 -164.155)"/><path class="c" d="M175.812,176.265c.775-.866-.414-2.871-1.285-3.155-1.212-.394-1.874,1.36-2,2.315a4.435,4.435,0,0,0,.71,3.344c.827,1.218,2.118.021,2.524-.962C176.053,177.1,175.32,176.813,175.812,176.265Z" transform="translate(-138.632 -154.524)"/><path class="u" d="M184.392,240.915c-.841,10.461-4.191,26.248-4.191,26.248l-2.311,47.681a7.457,7.457,0,0,1-3,7.286c2.078-20.058,3-38.864,0-53.419,4.487-16.512,6.524-33.809,1.372-46.562.058-5.093.608-9.7-.471-13.4a51.822,51.822,0,0,0,5.759-2.174S185.235,230.473,184.392,240.915Z" transform="translate(-136.008 -118.247)"/><path class="v" d="M173.864,192.192l-2.688,33.786,12.138,17.427,1.723-28.818Z" transform="translate(-140.029 -133.812)"/><path class="c" d="M187.318,219.422l-6.151-2.068-.4-.135-.3.731c-.142.6-2.038,10.328-2.005,10.576.3,2.7,1.741,5.266,3.2,7.95l5,3.446s2.749,1.056,2.926-.458l-1.6-2.538.985-3.648.927-1.986.954,2.447c1.618,3.648,4.185,3.269,3.8,1.682l-1.53-3.5-1.006-5.768Z" transform="translate(-132.15 -106.728)"/><path class="r" d="M182.4,185.331c5.335,3.307,7.79,5.518,8.029,15.875l-1.312,28.066,6.311,26.513c-.516,2.892-6.9,4.508-9.3,2.724-4.279-7.013-6.434-13.01-11.05-24.728l-2.538-30.769C171.874,191.708,171.664,183.865,182.4,185.331Z" transform="translate(-138.838 -141.428)"/></g><g transform="translate(129.207 240.262)"><path class="o" d="M114.621,313.33l.246,86.957,45.69,26.552c0,.01,4.173-2.411,4.173-2.411l-.239-86.951c-.021-8.127,5.707-18.047,12.774-22.132L225.657,287.4l.152,48.847,45.69,26.54,4.171-2.4-.258-86.951c-.012-5.524-2.028-9.341-5.243-11.042.1.05.2.085.3.142l-45.7-26.559c-3.09-1.795-7.367-1.541-12.089,1.185L131.552,284C122.169,289.42,114.59,302.546,114.621,313.33Zm45.7,26.557v0Z" transform="translate(-114.621 -234.832)"/><path class="p" d="M167.947,270.809l.152,48.847,45.69,26.54-.237-86.951c0-.389-.023-.777-.044-1.145-.021-.152-.021-.325-.044-.475a11.133,11.133,0,0,0-.454-2.226,5.049,5.049,0,0,0-.214-.606,3.7,3.7,0,0,0-.3-.735,6.9,6.9,0,0,0-.366-.671,2.142,2.142,0,0,0-.281-.431,6.452,6.452,0,0,0-.477-.627,5.677,5.677,0,0,0-.756-.714,4.835,4.835,0,0,0-.8-.562c-.173-.108-.325-.194-.5-.281-2.29-1.058-5.316-.777-8.622,1.145Z" transform="translate(-56.911 -218.241)"/><g transform="translate(45.698 26.549)"><path class="r" d="M136.568,326.077l.237,86.974,4.173-2.422-.239-86.951c-.021-8.127,5.707-18.047,12.774-22.132L201.906,273.6l32.745-18.892c3.307-1.922,6.332-2.2,8.622-1.145.173.087.325.173.5.281a3.848,3.848,0,0,1,.8.562,4.168,4.168,0,0,1,.714.671,4.694,4.694,0,0,1,.518.67,2.142,2.142,0,0,1,.281.431,5.092,5.092,0,0,1,.366.67,3.7,3.7,0,0,1,.3.735,5.053,5.053,0,0,1,.214.606,11.476,11.476,0,0,1,.454,2.226c.023.15.023.323.044.475.021.369.044.756.044,1.145l.237,86.951,4.171-2.4-.258-86.951c-.021-10.309-6.982-14.74-15.8-10.4-.41.217-.82.433-1.233.67l-32.722,18.913L153.492,296.77C144.112,302.173,136.547,315.314,136.568,326.077Z" transform="translate(-136.568 -247.582)"/></g></g><g transform="translate(176.1 232.223)"><path class="n" d="M137.47,283.834a.8.8,0,0,0,.173.133l28.491,16.558a.9.9,0,0,1-.175-.135,1.116,1.116,0,0,0,1.4.013l21.505-12.416a3.785,3.785,0,0,0,1.718-2.969,1.2,1.2,0,0,0-.506-1.1l-15.363-8.929,6.342-25.609c.214-.877.012-1.553-.458-1.8.04.015-28.451-16.543-28.451-16.543a.963.963,0,0,0-.67-.094,1.762,1.762,0,0,0-.552.214,3.813,3.813,0,0,0-1.624,2.288l-12.069,48.738A1.748,1.748,0,0,0,137.47,283.834Z" transform="translate(-137.141 -230.921)"/><g class="q"><path class="g" d="M158.228,248.6a1.216,1.216,0,0,1,1.229-.121l28.489,16.556a1.221,1.221,0,0,0-1.229.121L167.6,276.194l-28.489-16.556Z" transform="translate(-135.006 -212.043)"/><path class="g" d="M137.232,282.183,149.3,233.445a3.813,3.813,0,0,1,1.624-2.288,1.762,1.762,0,0,1,.552-.214.963.963,0,0,1,.67.094l28.491,16.558a.967.967,0,0,0-.673-.1,1.833,1.833,0,0,0-.552.215,3.817,3.817,0,0,0-1.624,2.29l-12.066,48.736a1.752,1.752,0,0,0,.235,1.651.9.9,0,0,0,.175.135l-28.491-16.558a.8.8,0,0,1-.173-.133A1.748,1.748,0,0,1,137.232,282.183Z" transform="translate(-137.141 -230.921)"/><path class="r" d="M171.575,246.341c.048-.2.106-.4.173-.6l-21.23-12.339-11.258,45.469L160.466,291.2Z" transform="translate(-134.85 -228.232)"/><g transform="translate(28.491 16.555)"><path class="p" d="M164.606,239.108a3.817,3.817,0,0,0-1.624,2.29l-12.066,48.736a1.752,1.752,0,0,0,.235,1.651,1.116,1.116,0,0,0,1.4.013l21.505-12.416a3.785,3.785,0,0,0,1.718-2.969c0-1.093-.781-1.528-1.73-.981l-19.113,11.036,11.317-45.7c.3-1.206-.192-2.047-1.091-1.878A1.835,1.835,0,0,0,164.606,239.108Z" transform="translate(-150.824 -238.872)"/></g></g></g><ellipse class="r" cx="10.428" cy="18.432" rx="10.428" ry="18.432" transform="matrix(0.799, -0.601, 0.601, 0.799, 132.18, 348.751)"/><path class="p" d="M146.44,323.153l-27.727-16.008V296.418l27.727,16.008Z" transform="translate(19.016 72.08)"/></g></g></svg>