<svg xmlns="http://www.w3.org/2000/svg" xmlns:xlink="http://www.w3.org/1999/xlink" width="1366" height="646" viewBox="0 0 1366 646"><defs><style>.a{fill:#13294e;}.b{clip-path:url(#a);}.c{opacity:0.25;mix-blend-mode:multiply;fill:url(#b);}.c,.q,.r{isolation:isolate;}.d{fill:#1c3582;}.e,.q,.r{fill:#133655;}.f{fill:none;}.g{fill:#c0a4f9;}.h{fill:#fff;}.i{fill:url(#c);}.j{fill:#114922;}.k{fill:#4d5fa3;}.l{fill:#c2bdf2;}.m{fill:#23316c;}.n{fill:#1a2f3d;}.o{fill:#8d72e9;}.p{fill:#c9aefa;}.q{opacity:0.4;}.q,.r{mix-blend-mode:screen;}.r{opacity:0.8;}</style><clipPath id="a"><path class="a" d="M0,0H1366V646H0Z" transform="translate(0 4634)"/></clipPath><linearGradient id="b" x1="0.5" y1="0.02" x2="0.5" y2="1.125" gradientUnits="objectBoundingBox"><stop offset="0" stop-color="#020c1e"/><stop offset="1" stop-color="#fff"/></linearGradient><linearGradient id="c" x1="-94.857" y1="0.979" x2="-94.857" y2="0.027" gradientUnits="objectBoundingBox"><stop offset="0" stop-color="#133655"/><stop offset="0.665" stop-color="#5249b6"/><stop offset="1" stop-color="#7052e3"/></linearGradient></defs><g class="b" transform="translate(0 -4634)"><path class="c" d="M116.4,568.462A525.251,525.251,0,0,0,91.2,309.12c-6.87-18.992-10.875-38.913-9.641-60.5,3.722-65.162,67.067-121.64,134.241-128.692,90.443-9.5,108.011,82.311,165.016,126.791C427.3,282.98,486.093,261.7,538.449,261.757c52.177.053,105.244,16.542,150.44,44.115,92.316,56.32,186.37,79.9,288.632,37.048,147.377-61.754,338.919-78.742,436.041,87.786,60.585,103.881,34.774,259.036-38.646,344.441-47.077,54.762-110.763,94.015-176.487,117.3-101.96,36.13-186.811,10.915-266.552,103.055-65.953,76.209-107.014,180.034-199.53,225.566-133.741,65.821-297.976-15.5-416.458-83.663-171.663-98.759-213.738-319.372-205.141-511.4A534.51,534.51,0,0,1,116.4,568.462Z" transform="translate(-81.333 4564.883)"/><g transform="translate(89.703)"><g transform="translate(919.297 5014.95)"><path class="d" d="M1289.054,1531.891c4.369,1.638,6.279-1.093,6.279-1.093,6-4.08,10.947.7,12.055,1.917a4.677,4.677,0,0,1,.363.453l3.692,5.274c7.1,5.734,7.1-6.007,7.1-6.007,0-3.549-2.73-9.01-9.829-13.378s-6.007-8.464-6.007-8.464c.643-8.36,7.177-7.3,9.955-6.452a5.625,5.625,0,0,0,3.662-.131c6.468-2.487,3.185-11.012,2.024-13.572a12.776,12.776,0,0,1-.789-2.312c-2.162-9.13,3.107-14.3,7.21-16.849a8.125,8.125,0,0,1,8.566,0c4.1,2.547,9.377,7.719,7.214,16.852a12.758,12.758,0,0,1-.789,2.312c-1.161,2.56-4.444,11.084,2.024,13.572a5.626,5.626,0,0,0,3.663.131c2.778-.844,9.312-1.908,9.955,6.452,0,0,1.092,4.1-6.007,8.464s-9.829,9.829-9.829,13.378c0,0,0,11.741,7.1,6.007l3.692-5.274a4.66,4.66,0,0,1,.363-.453c1.108-1.216,6.053-6,12.055-1.917,0,0,1.911,2.731,6.28,1.093s13.379-.819,11.195,7.1c0,0-3,4.368-2.458,7.918s-1.365,11.741-8.464,9.283-9.557,3.276-9.557,3.276-4.368,4.915-10.375,4.915h-4.1s-3.822,0-3.822,5.461c0,0-.273,5.461,5.46,5.461h5.461s8.191-.546,7.1,7.918c0,0-.546,4.368-9.01,7.644-6.626,2.565-15.246,11.609-4.918,15.836,2.712,1.11,6.054,3.978,5.933,7.137-.165,4.31-4.678,5.4-8.115,5.969-4.915.819-7.1,3-7.372,5.734v5.188s-.136,6.007-6.962,7.918c-6.826-1.911-6.962-7.918-6.962-7.918v-5.188c-.273-2.73-2.458-4.915-7.372-5.734-3.437-.573-7.949-1.66-8.115-5.969-.121-3.159,3.22-6.027,5.933-7.137,10.328-4.227,1.709-13.27-4.918-15.836-8.463-3.276-9.01-7.644-9.01-7.644-1.092-8.464,7.1-7.918,7.1-7.918h5.461c5.734,0,5.46-5.461,5.46-5.461,0-5.461-3.822-5.461-3.822-5.461h-4.1c-6.007,0-10.375-4.915-10.375-4.915s-2.458-5.734-9.557-3.276-9.01-5.734-8.464-9.283-2.458-7.918-2.458-7.918C1275.675,1531.072,1284.685,1530.253,1289.054,1531.891Z" transform="translate(-1232.276 -1470.057)"/><path class="e" d="M1182.919,1672.772a10.637,10.637,0,0,0,3.878-2.694,4.1,4.1,0,0,0,.834-1.375,13.159,13.159,0,0,1,5.961-5.014,12.368,12.368,0,0,1,4.425-.956,3.349,3.349,0,0,1,.451.029l2.429.34,2.46.38a6.387,6.387,0,0,0,3.924-1.4,2.983,2.983,0,0,0,.886-2.445,6.761,6.761,0,0,0-.654-2.338,7.707,7.707,0,0,0-.576-1.04,6.376,6.376,0,0,0-4.32-2.149,19.45,19.45,0,0,0-8.664,1.1c-3.573,1.179-5.477,1.2-6.551.923s-1.246-.908-1.246-.908c-2.768-3.936,2.131-8.025,4.5-9.572a8.363,8.363,0,0,0,2.529-2.589c1.718-2.81.944-4.72-.529-5.876a9.4,9.4,0,0,0-4.6-1.667,7.764,7.764,0,0,1-6.012-4.186,12.51,12.51,0,0,1-.844-5.445,34.868,34.868,0,0,1,.6-5.1,19.519,19.519,0,0,1,.482-2.29,23.5,23.5,0,0,1,1.694-1.64,17.074,17.074,0,0,1,4.554-2.752,11.115,11.115,0,0,1,6.254-.708,9.675,9.675,0,0,1,6.087,4.219,8.662,8.662,0,0,1,.93,1.808,16.324,16.324,0,0,0,2.834,4.991c1.49,1.6,3.545,2.565,6.542,1.054a6.644,6.644,0,0,0,2.665-2.453,11.564,11.564,0,0,1,3.948-4.129c1.872-1.017,4.272-1.087,7.026,1.444a3.594,3.594,0,0,1,1.265,1.944c.473,1.43.543,3.837-1,7.489a26.77,26.77,0,0,0-2.324,9.15,8.61,8.61,0,0,0,1.186,5.407,12.205,12.205,0,0,0,.865,1.071,8.989,8.989,0,0,0,2.142,1.8,3.333,3.333,0,0,0,2.762.412c.948-.334,1.932-1.278,2.748-3.22l.3-2.821.266-2.86a4.184,4.184,0,0,1,.079-.522,12.4,12.4,0,0,1,1.9-4.451,8.641,8.641,0,0,1,6.844-3.8,4.006,4.006,0,0,0,1.831,0,6.264,6.264,0,0,0,3.82-2.775,12.405,12.405,0,0,1,6.482-4.62c2.617-.661,5.227.212,6.535,4.088a19.065,19.065,0,0,0,.191,2.953,10.346,10.346,0,0,0,1.849,4.928,10.35,10.35,0,0,1,2.138,6.435c-.126,2.462-1.466,4.676-5.1,5.328-3.622.672-5.335,2.469-6.176,4.041a6.441,6.441,0,0,0-.785,2.961,8.833,8.833,0,0,1-.379.948A16.676,16.676,0,0,1,1251,1656.5a14.473,14.473,0,0,1-5.669,5.122l-3.636,1.779a4.209,4.209,0,0,0-1.456,1.318,4.144,4.144,0,0,0-.1,4.23s1.522,4,6.718,1.787l4.958-2.132s7.262-3.66,9.032,3.535a4.735,4.735,0,0,1-.453,2.546c-.658,1.615-2.182,3.909-5.658,6.566-2.721,2.09-5.573,5.51-6.4,8.319a3.74,3.74,0,0,0,.49,3.639c.837.949,2.461,1.571,5.151,1.673a11.676,11.676,0,0,1,4.459,1.077,4.579,4.579,0,0,1,2.7,2.912c.726,3.446-3.406,5.329-6.625,6.542-4.586,1.746-6.333,3.837-6.15,5.905l.425,1.915.369,1.924a5.112,5.112,0,0,1-.445,2.572c-.621,1.449-2.042,3.207-5.238,4.458-3.454-.125-5.409-1.217-6.5-2.275a4.649,4.649,0,0,1-1.318-2.1l-.347-1.808-.4-1.795c-.685-1.837-3.125-2.869-7.972-2.294-3.38.389-7.893.726-8.756-1.938-.315-.982.21-2.136,1.109-3.24a13.536,13.536,0,0,1,3.311-2.861c4.483-2.756,4.289-5.167,2.005-6.659-2.273-1.51-6.427-2.138-9.8-1.812-4.312.407-6.81.077-8.234-.371a3.228,3.228,0,0,1-1.777-1.016c-2.928-4.279,4.629-7.2,4.629-7.2l4.957-2.132c5.229-2.227,3.438-5.509,3.438-5.509a3.182,3.182,0,0,0-3.077-2.1,4.822,4.822,0,0,0-1.9.422l-3.636,1.779a20.209,20.209,0,0,1-7.265,1.895,21.352,21.352,0,0,1-2.35.055c-.561-.022-.887-.055-.887-.055a5.3,5.3,0,0,0-2.562-.341c-1.622.118-3.9.859-6.673,3.115-2.778,2.238-5.113,2.6-6.754,2.246a3.627,3.627,0,0,1-2.888-2.324c-.2-.919-1.267-1.389-2.22-1.667a9.164,9.164,0,0,0-1.858-.306c-1.954-.92-1.089-2.731.652-4.549A23.487,23.487,0,0,1,1182.919,1672.772Z" transform="translate(-1174.639 -1550.257)"/><path class="f" d="M1355.477,1799.676h-45.894V1771.63a22.947,22.947,0,1,1,45.894,0Z" transform="translate(-1250.236 -1626.146)"/><g transform="translate(45.366 105.02)"><path class="g" d="M1383.382,1798.488a13.3,13.3,0,0,1,8.766-11.635c8.195-2.982,21.43.842,21.43.842s-4.675,9.067-12.33,13.243c-6.735,3.674-14.134,2.479-16.2-.283v40.527h-1.667v-42.693Z" transform="translate(-1336.944 -1751.911)"/><path class="g" d="M1373.022,1729.372c.03-5.29,3.843-14.966,14.083-18.693,13.165-4.791,34.427,1.353,34.427,1.353s-7.509,14.567-19.808,21.275c-10.82,5.9-22.706,3.983-26.025-.455v65.106h-2.679V1734.29Z" transform="translate(-1331.14 -1708.851)"/><path class="g" d="M1317.284,1767.082v27.209c-.182-.006-.365-.013-.553-.013a10.742,10.742,0,0,0-1.63.12v-24.479c-1.6,2.139-5.654,3.56-10.522,3.359a24.4,24.4,0,0,1-10.66-2.987c-10.013-5.466-16.127-17.322-16.127-17.322s16.007-4.623,26.762-1.509c.434.12.855.258,1.264.409A17.4,17.4,0,0,1,1317.284,1767.082Z" transform="translate(-1277.792 -1732.117)"/><g transform="translate(45.142 5.048)"><path class="h" d="M1380.435,1737.362s5.409-21.839,39.514-16.058C1419.949,1721.3,1393.952,1720.087,1380.435,1737.362Z" transform="translate(-1380.435 -1720.33)"/><path class="h" d="M1380.435,1746s5.406-15.093,29.142-8.648C1409.577,1737.355,1391.254,1734.7,1380.435,1746Z" transform="translate(-1380.435 -1728.971)"/></g><g transform="translate(7.75 23.129)"><path class="h" d="M1324.833,1774.124s-4.027-16.26-29.42-11.956C1295.413,1762.167,1314.769,1761.261,1324.833,1774.124Z" transform="translate(-1295.413 -1761.442)"/><path class="h" d="M1334.67,1780.557s-4.025-11.237-21.7-6.439C1312.973,1774.118,1326.615,1772.141,1334.67,1780.557Z" transform="translate(-1305.25 -1767.875)"/></g><g transform="translate(48.317 36.078)"><path class="h" d="M1387.656,1801.517s3.376-13.632,24.666-10.024C1412.322,1791.493,1396.094,1790.733,1387.656,1801.517Z" transform="translate(-1387.656 -1790.885)"/><path class="h" d="M1387.656,1806.911s3.375-9.421,18.191-5.4C1405.847,1801.512,1394.409,1799.855,1387.656,1806.911Z" transform="translate(-1387.656 -1796.279)"/></g></g><path class="i" d="M1333.39,1842.459a8.6,8.6,0,0,0-4.074-1.017h-50.423a8.653,8.653,0,0,0-4.074,1.017c-5.815,3.111-21.3,13.464-14.107,32.563a23.146,23.146,0,0,0,5.27,8.186l6.5,6.5a12.2,12.2,0,0,0,8.624,3.572H1327.1a12.2,12.2,0,0,0,8.624-3.572l6.5-6.5a22.948,22.948,0,0,0,5.27-8.186C1354.692,1855.923,1339.205,1845.57,1333.39,1842.459Z" transform="translate(-1221.81 -1678.11)"/><g transform="translate(16.375 153.437)"><path class="j" d="M1219.547,1831.936a115.748,115.748,0,0,1,7.614-12.4,1.442,1.442,0,0,1,2.33,0,115.24,115.24,0,0,1,7.617,12.4c5.093,9.588,7.675,17.754,7.675,24.271a19.882,19.882,0,0,1-8.075,16.332,24.907,24.907,0,0,1-8.019,4.082,1.521,1.521,0,0,1-.363.046,1.461,1.461,0,0,1-.357-.046,24.852,24.852,0,0,1-8.024-4.082,19.9,19.9,0,0,1-8.074-16.332C1211.872,1849.69,1214.453,1841.524,1219.547,1831.936Z" transform="translate(-1211.872 -1818.943)"/><path class="h" d="M1237.945,1892.853v6.794a.89.89,0,0,1-.109.409l-.343.679h.452v4.057h-1.876v-4.057h.453l-.343-.679a.891.891,0,0,1-.11-.409v-6.8l-8.463-9.412a.944.944,0,0,1,.069-1.326.977.977,0,0,1,1.327.071l7.067,7.858v-11.87l-6.554-7.29a.941.941,0,0,1,.07-1.325.969.969,0,0,1,1.326.071l5.158,5.735V1862.92a.938.938,0,1,1,1.876,0v12.447l5.158-5.74a.962.962,0,0,1,1.323-.072.938.938,0,0,1,.073,1.326l-6.554,7.292v11.873l7.069-7.864a.966.966,0,0,1,1.323-.069.939.939,0,0,1,.073,1.326Z" transform="translate(-1220.552 -1843.054)"/></g></g><g transform="translate(1018.957 5026.659)"><g transform="translate(0 0)"><path class="e" d="M1735,1545.513a1.017,1.017,0,0,0,.572.115c.3-.028.77-.074,1.069-.114,8.237-1.088,14.61-6.292,18.659-13.318,2.368-4.109,2.681-8.478,1.958-13.077-.674-4.286-2.477-8.5-1.9-12.9.421-3.23,2.045-6.192,2.564-9.4l.023-.141s-17.67,4.233-26.361,19.948a27.648,27.648,0,0,0-3.226,16.955C1728.946,1538.133,1730.638,1543.2,1735,1545.513Z" transform="translate(-1663.363 -1496.68)"/><path class="e" d="M1734.132,1772.336h2.247a34.308,34.308,0,0,1,.43-6.954,8.694,8.694,0,0,1,4.72-6.51,66.68,66.68,0,0,1,6.869-3.058c4.453-1.571,3.925-8.25,8.377-11.519,4.509-3.312,4.805-5.573,4.235-6.9a2.057,2.057,0,0,0-2.48-1.156,30.811,30.811,0,0,0-20.558,19.283C1736.083,1759.7,1733.892,1766,1734.132,1772.336Z" transform="translate(-1666.721 -1630.832)"/><path class="e" d="M1627.822,1668.667s-15.448-12.566-30.631-8.9c-5.824,1.406-12.845,6.647-12.889,13.152-.044,6.467,6.23,5.276,10.452,3.466,5.311-2.278,9.615-6.314,15.257-7.855a30.021,30.021,0,0,1,8.28-.975C1620.45,1667.583,1626.109,1667.273,1627.822,1668.667Z" transform="translate(-1582.795 -1587.667)"/><path class="e" d="M1580.876,1582.856c0,14.894,11.737,17.219,19.706,17.705a20.48,20.48,0,0,1,10.885,3.91c.493.352.986.712,1.486,1.071,3.382,2.452,6.834,4.9,10.2,7.468.436.317.824.648,1.2.987a12.193,12.193,0,0,1,1.141,1.036l1.057,1.12c.345.38.641.81.965,1.212l.472.613c.155.2.282.43.43.641l.845,1.3.747,1.353c.254.444.493.9.7,1.374a57.713,57.713,0,0,1,3.973,11.421,116.94,116.94,0,0,1,2.734,18.142c.084,1.107.162,2.184.226,3.234.373,6.319.345,11.611.268,15.3-.043,1.86-.106,3.312-.155,4.3h1.578c.042-.993.1-2.445.126-4.27.057-3.72.057-9.046-.359-15.423a132.3,132.3,0,0,0-2.36-18.219c-.233-1.12-.486-2.248-.768-3.382a58.71,58.71,0,0,0-4.136-11.66,14.957,14.957,0,0,0-.733-1.416l-.789-1.4-.881-1.346c-.155-.225-.3-.451-.451-.669l-.5-.642c-.345-.415-.655-.859-1.022-1.261l-1.12-1.184a16.276,16.276,0,0,0-1.219-1.092c-.416-.359-.839-.711-1.261-1.014-3.4-2.565-6.876-5-10.266-7.426s-6.714-4.833-9.814-7.3a92.263,92.263,0,0,1-8.518-7.566,55.754,55.754,0,0,1-6.489-7.834c-4.023-6.031-5.721-12.612-7.779-19.474Z" transform="translate(-1580.876 -1533.534)"/><path class="e" d="M1670.3,1718.455s5.694-15.315-5.891-22.973a33.685,33.685,0,0,0-12.763-5.695S1644.181,1713.154,1670.3,1718.455Z" transform="translate(-1619.967 -1604.861)"/><path class="e" d="M1692.006,1746.427s.148.515.367,1.417c.105.444.253.986.387,1.62s.3,1.339.472,2.114.324,1.621.507,2.508.38,1.832.529,2.812c.169.979.338,1.994.514,3.015s.31,2.079.458,3.128.288,2.093.429,3.122.211,2.057.324,3.036c.014.105.022.211.029.317.091.874.169,1.719.253,2.529.042.359.07.712.1,1.057.035.514.063,1.014.091,1.486.084,1.353.155,2.509.2,3.389h2.311c-.1-.908-.233-2.135-.387-3.586-.085-.8-.162-1.663-.317-2.572-.134-.909-.275-1.867-.43-2.86s-.281-2.015-.472-3.044-.387-2.086-.585-3.135-.373-2.1-.613-3.121-.451-2.036-.662-3.016-.458-1.909-.67-2.8-.423-1.733-.634-2.509-.409-1.472-.578-2.1-.345-1.17-.472-1.621c-.268-.9-.436-1.4-.436-1.4Z" transform="translate(-1643.132 -1636.472)"/><path class="e" d="M1689.2,1792.243s-2.253-10.358-10.64-12.741a1.069,1.069,0,0,0-1.327,1.3C1677.9,1783.354,1680.336,1788.394,1689.2,1792.243Z" transform="translate(-1634.839 -1655.097)"/><path class="e" d="M1645.247,1590.716a3.918,3.918,0,0,1,3.8,2.6c1.818,5.08,4.347,15.169,5.615,33.769.31,4.509.542,9.519.677,15.077.155,6.482.169,13.7,0,21.756V1665h4.157c.014-.81.035-1.662.056-2.543.232-11.984.2-29.943-1.592-40.42-2.72-15.8,1.782-41.85,3.839-48.494a.978.978,0,0,0-.078-.782,1.013,1.013,0,0,0-.62-.479l-.029-.007a.956.956,0,0,0-1.162.69c-1.184,4.819-6.433,26.97-5.39,35.748a97.307,97.307,0,0,0-3.755-16.669,11.093,11.093,0,0,1-.233-6.39c9.427-36.284-37.608-41.11-37.608-41.11C1611.457,1587.447,1635.666,1590.984,1645.247,1590.716Zm9.293,18.121c.008.035.008.07.015.105C1654.555,1608.943,1654.548,1608.907,1654.54,1608.837Z" transform="translate(-1598.797 -1523.492)"/><path class="e" d="M1721.964,1638a31.051,31.051,0,0,0-9.32,23.465c-.063-1.95,2.245-5.183,3.31-6.638,7.168-9.792,16.943-7.84,27.342-5.559Z" transform="translate(-1654.684 -1575.848)"/><path class="e" d="M1730.238,1738.647a.946.946,0,0,0-1.048-1.065c-3.3.39-12.579,2.687-15.572,16.153C1713.618,1753.734,1727.717,1757.511,1730.238,1738.647Z" transform="translate(-1655.239 -1631.632)"/><path class="e" d="M1725.24,1701.561s-10.21,4.189-10.21,14.138C1715.03,1715.7,1722.884,1718.055,1725.24,1701.561Z" transform="translate(-1656.03 -1611.456)"/><path class="e" d="M1778.18,1675.325s-26.826-5.65-30.631,17.541c0,0,9.587,4.565,18.85,0C1775.588,1688.336,1778.18,1675.325,1778.18,1675.325Z" transform="translate(-1674.248 -1596.419)"/><path class="e" d="M1740.371,1705.1l-.252.127c-.172.086-.4.219-.7.389a26.738,26.738,0,0,0-2.329,1.579c-.452.364-.96.74-1.454,1.186s-1.027.906-1.542,1.419c-.536.494-1.028,1.062-1.557,1.614-.511.568-1,1.168-1.5,1.763-.465.62-.948,1.23-1.392,1.854-.425.634-.856,1.253-1.252,1.864l-1.08,1.8c-.336.578-.612,1.146-.888,1.66s-.528.988-.713,1.424l-.509,1.117-.443.975,1.967.767.373-.956.427-1.1c.154-.43.375-.893.607-1.4s.472-1.069.763-1.641l.94-1.789,1.1-1.858c.392-.623.824-1.233,1.239-1.858.449-.6.89-1.2,1.352-1.778.479-.559.924-1.136,1.414-1.64.469-.523.945-1.008,1.411-1.453s.923-.847,1.34-1.224a25.734,25.734,0,0,1,2.155-1.645c.273-.176.49-.318.633-.4l.23-.133Z" transform="translate(-1661.48 -1613.44)"/><path class="e" d="M1789.621,1631.175s-20.42-33.511-55.763-6.545C1733.858,1624.63,1758.467,1648.192,1789.621,1631.175Z" transform="translate(-1666.578 -1562.479)"/><path class="e" d="M1716.789,1692.279h6.158c-4.784-50.3,7.855-98.094,7.855-98.094l-1.346-.944c-7.207,28.83-9.237,64.149-9.793,84.412a48.609,48.609,0,0,1-.733,7.151,43.014,43.014,0,0,1-1.155,4.932A16.278,16.278,0,0,1,1716.789,1692.279Z" transform="translate(-1657.016 -1550.774)"/><path class="k" d="M1696.077,1685.011c3.268.608,6.473,1.459,9.747,1.9-2.961-1.615-6.131-3.227-9.266-4.677q.274-1.428.608-2.89a102.605,102.605,0,0,0,13.642,4.645c-4.2-3.063-8.246-6.274-12.44-9.291.807-2.811,1.77-5.678,2.884-8.556a27.628,27.628,0,0,0,3.884.487c-1.116-.686-2.188-1.373-3.261-2.06q.47-1.159.971-2.318a47.054,47.054,0,0,0,7.79,3,35,35,0,0,1-6.036-6.847,102.771,102.771,0,0,1,8.3-14.263v-.375c.044.062.086.125.129.188.044-.062.086-.126.129-.188v.374q2.246,3.217,4.23,6.607c-1.013,2.041-2.05,4.09-3.146,6.081,1.381-1.381,2.763-2.852,4.211-4.216,1.392,2.493,2.675,5.03,3.843,7.582a43.78,43.78,0,0,1-4.1,6.431c1.828-1.266,3.427-2.762,5.172-4.017q.5,1.166.969,2.332c-2.764,3.082-5.974,5.8-8.547,9.076a107.122,107.122,0,0,1,9.709-6.048,94.413,94.413,0,0,1,3.7,12.758c-2.735,2.821-5.76,5.354-8.428,8.243,3.112-1.333,6.1-2.922,9.172-4.215.175,1.118.322,2.219.436,3.294-4.95,3-10,5.69-14.592,9.172l14.893-4.311a31.414,31.414,0,0,1-1.165,9.631c-4.011,1.981-7.719,4.6-11.837,6.2,3.5-.567,6.836-1.7,10.22-2.558a11.389,11.389,0,0,1-.837,1.179c-4.58,5.632-9.806,6.715-12.4,6.877v6.35h-3.564v-6.371c-2.677-.225-7.692-1.427-12.106-6.855a16.868,16.868,0,0,1-3.177-7.925,50.149,50.149,0,0,0,11.548,2.944c-4.107-2.416-7.961-5.171-11.977-7.61A55.156,55.156,0,0,1,1696.077,1685.011Z" transform="translate(-1645.021 -1579.079)"/><g transform="translate(52.127 95.802)"><path class="l" d="M1743.258,1723.8a52.181,52.181,0,0,0,.25,9.487c.624,3.745,1.311,4.619.811,9.55s-2.5,16.353-2.622,16.79-1-18.538-1-18.538a9.417,9.417,0,0,0,.625-3.745C1741.323,1734.913,1741.136,1727.8,1743.258,1723.8Z" transform="translate(-1722.537 -1719.718)"/><path class="m" d="M1746.639,1789.616h4.345a8.127,8.127,0,0,0,1.655-3.857,9.873,9.873,0,0,1,.75-2.871l1-2.819.062-.177a14.379,14.379,0,0,0,1.06-5.616c-.058-5.333,1.2-7.089,1.358-7.284a13.882,13.882,0,0,0-3.229,7.1,21,21,0,0,1-1.374,3.931l-1.1,2.271Z" transform="translate(-1725.865 -1743.913)"/><path class="n" d="M1753.36,1803.9h2.715a5.292,5.292,0,0,0,.766-3.483c-.062-2.246.749-2.058,1.312-2.745s.811-.188,1.06-1.873,2.372-3.308,2.372-3.308a6.778,6.778,0,0,0-3.432,1.862C1755.288,1797.084,1753.852,1801.92,1753.36,1803.9Z" transform="translate(-1729.63 -1758.199)"/><path class="l" d="M1754.648,1757.3s.938-16.537,1.278-19.7c0,0-3.375,10.126-3.262,19.51Z" transform="translate(-1729.238 -1727.448)"/><path class="o" d="M1745.453,1753.646a36.791,36.791,0,0,0,0-10.86l.437-3.963s-.062-4.494-.312-8.676a37.379,37.379,0,0,1-.062-7.053s-1.81,2.808-2.06,8.8-.062,6.491-.749,9.237a49.311,49.311,0,0,0-1.81,11.672l-.749,3.995s-1.373,4.869-.687,8.176Z" transform="translate(-1721.736 -1719.321)"/><path class="p" d="M1738.405,1779.95h5.128c1.223-2.2,2.917-5.772,3-8.788.005-.184.012-.363.021-.538a13.765,13.765,0,0,1,1.4-5.722,8.342,8.342,0,0,0,.874-2.624,10.742,10.742,0,0,0,.078-2.787c-.281-2.528,0-7.864.749-9.455.556-1.179-1.3,1.237-2.458,5.5-.011.039-.021.078-.03.117a24.036,24.036,0,0,0-.788,5.237,4.53,4.53,0,0,1-.749,2.347c-.08.115-.175.276-.281.469l-.136.255c-.672,1.3-1.679,3.647-2.3,5.134a20.362,20.362,0,0,1-1.194,2.4c-.181.31-.39.678-.613,1.09-.193.354-.395.741-.6,1.154-.041.081-.081.164-.122.249a27.144,27.144,0,0,0-1.244,2.931c-.129.366-.246.735-.347,1.1A11.048,11.048,0,0,0,1738.405,1779.95Z" transform="translate(-1721.252 -1734.247)"/><path class="n" d="M1699.4,1797.715s3.681-.811,4.43.687,1.25.375,2,3.683c.551,2.432.528,2.906,1.271,3.857h3.283l-3.494-8.227a5.479,5.479,0,0,0-1.048-.984,3.968,3.968,0,0,0-.669-.388,2.4,2.4,0,0,0-1.8-.065Z" transform="translate(-1699.402 -1760.238)"/><path class="m" d="M1708.519,1773.157c-.064,1.685-.064,4.306.873,5.492a6.663,6.663,0,0,1,.824,1.574,23.152,23.152,0,0,1,.861,2.733,33.613,33.613,0,0,0,1.931,6.478h3.126l-2-8.6a8.487,8.487,0,0,1-3.432-6.117c-.614-5.775-3.407-7.983-3.494-8.05C1708.206,1768.227,1708.581,1771.47,1708.519,1773.157Z" transform="translate(-1703.776 -1743.73)"/><path class="o" d="M1732.872,1739.228c-.393,4.813.644,16.305,1.1,20.99h3.891v-12.939c-.014-1.524-.108-3.02-.255-4.459a70.335,70.335,0,0,0-1.223-7.512c-.428-2.02-.844-3.7-1.081-4.881-.623-3.121.313-3.746-.062-8.551a17.949,17.949,0,0,0-1.933-7.361,11.073,11.073,0,0,1,0,5.926c-.875,3.5-.089,5.31-.561,7.99-.427,2.416.492,4.412.2,9.682C1732.929,1738.468,1732.9,1738.84,1732.872,1739.228Z" transform="translate(-1718.018 -1714.515)"/><path class="m" d="M1724.716,1748.373c1.186,2.246.936,3.182.936,3.182-.028.476-.051.947-.065,1.414-.022.644-.03,1.279-.03,1.9a63.493,63.493,0,0,0,.852,10.154h5.1c-.051-.263-.1-.536-.14-.819-.1-.676-.184-1.411-.251-2.214q-.077-.908-.131-1.94c-.108-1.933-.177-4.212-.274-6.935-.244-6.834-1.443-6.093-2.545-10.2-.027-.094-.051-.19-.076-.288a36.734,36.734,0,0,1-1.124-8.114c.5-7.054-1.747-11.422-1.747-11.422.25,2.122.376,3.183-.187,7.8a41.423,41.423,0,0,0-.435,6.616l.207,2.9a9.947,9.947,0,0,1-.262,3.049c-.011.043-.021.083-.03.124C1724.047,1745.456,1723.785,1746.606,1724.716,1748.373Z" transform="translate(-1713.232 -1719.322)"/><path class="n" d="M1719.411,1757.155s2.184,2.559,2.933,7.864l1.311,6.366-.624,2.683-2.622-3.246S1720.784,1760.026,1719.411,1757.155Z" transform="translate(-1710.611 -1738.402)"/><path class="p" d="M1712.315,1755.407a20.385,20.385,0,0,0,.726,6.459c.5,1.683,1.436,1.374,1.873,6.241a.028.028,0,0,0,0,.012c.435,4.857,1.184,5.917,1.184,5.917l1.567,3.669h2.386l-.708-4.606c-.446-2.812-.627-4.738-1.021-6.4-.087-.361-.181-.708-.292-1.049a11.758,11.758,0,0,0-1.37-2.85,12.8,12.8,0,0,1-1.142-2.005c-.446-1.115-.236-1.912-.793-5.609-.359-2.372-2.744-7.454-4.124-9.456C1711.163,1748.072,1712.351,1753.024,1712.315,1755.407Z" transform="translate(-1705.676 -1732.002)"/></g><path class="e" d="M1730.313,1596.087s-9.228-1.943-10.536,6.034a8.1,8.1,0,0,0,6.484,0C1729.421,1600.563,1730.313,1596.087,1730.313,1596.087Z" transform="translate(-1658.689 -1552.252)"/><path class="e" d="M1717.679,1584.77s-5.941,6.39-.24,11.231a7.49,7.49,0,0,0,3.092-5.141C1720.8,1587.611,1717.679,1584.77,1717.679,1584.77Z" transform="translate(-1655.995 -1546.029)"/></g><g transform="translate(37.123 138.096)"><g transform="translate(4.423 8.923)"><path class="e" d="M1724.639,1830.974l-12.324,56.447h-24.648l-12.324-56.447Z" transform="translate(-1675.344 -1830.974)"/><path class="q" d="M1717.805,1830.974l12.324,56.447h5.974l12.324-56.447Z" transform="translate(-1699.131 -1830.974)"/></g><rect class="e" width="58.141" height="10.129"/><rect class="r" width="10.506" height="10.129" transform="translate(39.759)"/></g></g></g></g></svg>