<svg xmlns="http://www.w3.org/2000/svg" xmlns:xlink="http://www.w3.org/1999/xlink" width="1366" height="768" viewBox="0 0 1366 768"><defs><style>.a,.ag,.ah,.e{fill:#fff;}.a{stroke:#707070;}.b{clip-path:url(#a);}.c{fill:#041b43;}.d{opacity:0.25;fill:url(#b);}.aj,.al,.d,.h,.r,.s,.t{mix-blend-mode:multiply;}.aa,.ab,.aj,.al,.d,.h,.r,.s,.t{isolation:isolate;}.f{fill:url(#c);}.g{fill:#44346c;}.h{fill:#7d3fa5;}.ah,.aj,.h,.s{opacity:0.7;}.i{fill:#13294e;}.j{fill:#1c3582;}.aa,.ab,.k{fill:#133655;}.l{fill:none;}.m{fill:#c0a4f9;}.n{fill:url(#d);}.o{fill:#114922;}.p,.s{fill:#f4c4b9;}.aj,.q{fill:#f4d3af;}.r{fill:url(#e);}.ag,.al,.t{opacity:0.5;}.t{fill:url(#f);}.u{fill:#4d5fa3;}.v{fill:#c2bdf2;}.w{fill:#23316c;}.x{fill:#1a2f3d;}.y{fill:#8d72e9;}.z{fill:#c9aefa;}.aa{opacity:0.4;}.aa,.ab{mix-blend-mode:screen;}.ab{opacity:0.8;}.ac{fill:url(#g);}.ad{fill:url(#h);}.ae{fill:#f1bad1;}.af{fill:#f05673;}.ai{fill:#f29e21;}.ak{fill:url(#i);}.al{fill:url(#j);}</style><clipPath id="a"><rect class="a" width="1366" height="768"/></clipPath><linearGradient id="b" x1="0.5" y1="0.02" x2="0.5" y2="1.125" gradientUnits="objectBoundingBox"><stop offset="0" stop-color="#020c1e"/><stop offset="1" stop-color="#fff"/></linearGradient><linearGradient id="c" x1="0.5" y1="0.983" x2="0.5" y2="0.034" gradientUnits="objectBoundingBox"><stop offset="0" stop-color="#242155"/><stop offset="1" stop-color="#582b87"/></linearGradient><linearGradient id="d" x1="-94.857" y1="0.979" x2="-94.857" y2="0.027" gradientUnits="objectBoundingBox"><stop offset="0" stop-color="#133655"/><stop offset="0.665" stop-color="#5249b6"/><stop offset="1" stop-color="#7052e3"/></linearGradient><linearGradient id="e" x1="-32.696" y1="1.001" x2="-32.696" y2="-0.012" gradientUnits="objectBoundingBox"><stop offset="0" stop-color="#fff"/><stop offset="1" stop-color="#7d7c80"/></linearGradient><linearGradient id="f" x1="-61.085" y1="0.091" x2="-61.085" y2="1" gradientUnits="objectBoundingBox"><stop offset="0" stop-color="#eda0c3"/><stop offset="1" stop-color="#fff"/></linearGradient><linearGradient id="g" x1="-101.376" y1="5.38" x2="-102.841" y2="6.64" gradientUnits="objectBoundingBox"><stop offset="0" stop-color="#fff"/><stop offset="1" stop-color="#fce2e9"/></linearGradient><linearGradient id="h" x1="-62.366" y1="6.83" x2="-63.263" y2="8.52" xlink:href="#g"/><linearGradient id="i" x1="0.5" y1="3.623" x2="0.5" y2="-0.599" xlink:href="#c"/><linearGradient id="j" x1="0.5" y1="0.02" x2="0.5" y2="1.125" gradientUnits="objectBoundingBox"><stop offset="0" stop-color="#9f6ec3"/><stop offset="1" stop-color="#7d7c80"/></linearGradient></defs><g class="b"><g transform="translate(-0.918 -307)"><rect class="c" width="1366.918" height="767.918" transform="translate(0 307)"/><path class="d" d="M1305.867,532.55a483.26,483.26,0,0,1,23.188-238.609c6.321-17.473,10.005-35.8,8.87-55.667-3.425-59.953-61.706-111.916-123.509-118.4-83.213-8.736-99.376,75.731-151.824,116.655-42.772,33.366-96.865,13.79-145.035,13.839-48.006.049-96.83,15.219-138.413,40.588-84.936,51.818-171.471,73.51-265.558,34.086C377.992,268.22,201.763,252.59,112.4,405.806c-55.741,95.576-31.994,238.328,35.556,316.905,43.313,50.384,101.909,86.5,162.378,107.927,93.809,33.242,171.877,10.042,245.243,94.816C616.262,995.57,654.04,1091.1,739.16,1132.988c123.049,60.559,274.154-14.261,383.164-76.975,157.94-90.864,196.651-293.841,188.741-470.52A491.781,491.781,0,0,0,1305.867,532.55Z" transform="translate(-30.774 134.883)"/></g><g transform="translate(276.363 -238.017)"><path class="e" d="M446.524,858.914a1.528,1.528,0,0,1-1.476-1.574h0a1.526,1.526,0,0,1,1.578-1.476h0a1.522,1.522,0,0,1,1.472,1.574h0a1.523,1.523,0,0,1-1.523,1.476h-.051Zm6.839-1.531a1.526,1.526,0,0,1,1.438-1.608h0a1.527,1.527,0,0,1,1.608,1.442h0a1.524,1.524,0,0,1-1.442,1.608h0c-.026,0-.055,0-.081,0h0A1.526,1.526,0,0,1,453.363,857.383Zm-15.261.887a1.529,1.529,0,0,1-1.335-1.7h0a1.532,1.532,0,0,1,1.7-1.336h0a1.529,1.529,0,0,1,1.335,1.7h0a1.529,1.529,0,0,1-1.514,1.348h0A1.284,1.284,0,0,1,438.1,858.27Zm23.542-1.57a1.528,1.528,0,0,1,1.3-1.728h0a1.526,1.526,0,0,1,1.727,1.3h0a1.527,1.527,0,0,1-1.3,1.728h0a1.29,1.29,0,0,1-.217.017h0A1.531,1.531,0,0,1,461.644,856.7Zm-31.873.217a1.527,1.527,0,0,1-1.19-1.8h0a1.531,1.531,0,0,1,1.8-1.19h0a1.533,1.533,0,0,1,1.19,1.8h0a1.532,1.532,0,0,1-1.5,1.22h0A1.491,1.491,0,0,1,429.771,856.918Zm40.069-1.621a1.522,1.522,0,0,1,1.139-1.83h0a1.524,1.524,0,0,1,1.834,1.139h0a1.528,1.528,0,0,1-1.139,1.834h0a1.666,1.666,0,0,1-.35.038h0A1.528,1.528,0,0,1,469.839,855.3Zm-48.256-.384a1.532,1.532,0,0,1-1.054-1.886h0a1.53,1.53,0,0,1,1.89-1.054h0a1.526,1.526,0,0,1,1.049,1.886h0A1.524,1.524,0,0,1,422,854.968h0A1.592,1.592,0,0,1,421.583,854.913Zm56.3-1.72a1.524,1.524,0,0,1,.981-1.924h0a1.528,1.528,0,0,1,1.924.981h0a1.525,1.525,0,0,1-.981,1.92v0a1.667,1.667,0,0,1-.473.073h0A1.525,1.525,0,0,1,477.881,853.193Zm-64.314-.874a1.526,1.526,0,0,1-.913-1.958h0a1.526,1.526,0,0,1,1.958-.913h0a1.53,1.53,0,0,1,.913,1.958h0a1.532,1.532,0,0,1-1.438,1h0A1.586,1.586,0,0,1,413.567,852.319Zm72.147-1.907a1.524,1.524,0,0,1,.819-2h0a1.522,1.522,0,0,1,2,.814h0a1.527,1.527,0,0,1-.815,2h0a1.511,1.511,0,0,1-.593.12h0A1.534,1.534,0,0,1,485.714,850.412Zm-79.954-1.263a1.529,1.529,0,0,1-.768-2.022h0a1.526,1.526,0,0,1,2.018-.763h0a1.528,1.528,0,0,1,.768,2.018h0a1.533,1.533,0,0,1-1.395.9h0A1.525,1.525,0,0,1,405.76,849.149ZM493.3,847a1.527,1.527,0,0,1,.653-2.056h0a1.53,1.53,0,0,1,2.06.653h0a1.53,1.53,0,0,1-.653,2.06h0a1.542,1.542,0,0,1-.7.171h0A1.532,1.532,0,0,1,493.3,847ZM398.2,845.407a1.525,1.525,0,0,1-.614-2.069h0a1.525,1.525,0,0,1,2.069-.614h0a1.527,1.527,0,0,1,.614,2.069h0a1.528,1.528,0,0,1-1.344.8h0A1.491,1.491,0,0,1,398.2,845.407ZM500.582,843a1.527,1.527,0,0,1,.49-2.1h0a1.528,1.528,0,0,1,2.1.49h0a1.527,1.527,0,0,1-.49,2.1h0a1.505,1.505,0,0,1-.807.231h0A1.528,1.528,0,0,1,500.582,843Zm-109.63-1.885A1.53,1.53,0,0,1,390.5,839h0a1.525,1.525,0,0,1,2.111-.452h0a1.523,1.523,0,0,1,.457,2.107h0a1.532,1.532,0,0,1-1.284.7h0A1.511,1.511,0,0,1,390.952,841.112Zm116.588-2.667a1.527,1.527,0,0,1,.333-2.133h0a1.53,1.53,0,0,1,2.133.333h0a1.523,1.523,0,0,1-.333,2.133v0a1.524,1.524,0,0,1-.9.29h0A1.526,1.526,0,0,1,507.54,838.445Zm-123.487-2.184h0a1.533,1.533,0,0,1-.286-2.142h0a1.529,1.529,0,0,1,2.142-.286h0a1.528,1.528,0,0,1,.286,2.142h0a1.521,1.521,0,0,1-1.212.6h0A1.524,1.524,0,0,1,384.053,836.261Zm130.091-2.867a1.523,1.523,0,0,1,.179-2.15h0a1.528,1.528,0,0,1,2.154.179h0a1.528,1.528,0,0,1-.183,2.151h0a1.514,1.514,0,0,1-.981.362h0A1.524,1.524,0,0,1,514.144,833.394ZM377.56,830.868a1.531,1.531,0,0,1-.111-2.159h0a1.527,1.527,0,0,1,2.159-.107h0a1.521,1.521,0,0,1,.106,2.155h0a1.514,1.514,0,0,1-1.131.5h0A1.521,1.521,0,0,1,377.56,830.868Zm142.813-2.982a1.525,1.525,0,0,1,.03-2.159h0a1.528,1.528,0,0,1,2.159.03h0a1.524,1.524,0,0,1-.03,2.158h0a1.5,1.5,0,0,1-1.062.431h0A1.521,1.521,0,0,1,520.373,827.886Zm-148.833-2.94a1.525,1.525,0,0,1,.073-2.158h0a1.526,1.526,0,0,1,2.159.076h0a1.525,1.525,0,0,1-.077,2.159h0a1.521,1.521,0,0,1-1.041.41h0A1.5,1.5,0,0,1,371.54,824.946Zm154.669-2.982a1.531,1.531,0,0,1-.115-2.159h0a1.53,1.53,0,0,1,2.159-.115h0a1.53,1.53,0,0,1,.115,2.158h0a1.529,1.529,0,0,1-1.139.508h0A1.532,1.532,0,0,1,526.209,821.964Zm-160.16-3.439a1.523,1.523,0,0,1,.264-2.141h0a1.526,1.526,0,0,1,2.142.26h0a1.528,1.528,0,0,1-.264,2.146h0a1.519,1.519,0,0,1-.939.324h0A1.527,1.527,0,0,1,366.05,818.526Zm165.591-2.859a1.531,1.531,0,0,1-.256-2.145h0a1.527,1.527,0,0,1,2.146-.256h0a1.531,1.531,0,0,1,.255,2.146h0a1.537,1.537,0,0,1-1.2.58h0A1.538,1.538,0,0,1,531.64,815.667Zm-170.484-4.036a1.523,1.523,0,0,1,.456-2.107h0a1.53,1.53,0,0,1,2.112.456h0a1.529,1.529,0,0,1-.457,2.112h0a1.542,1.542,0,0,1-.828.243h0A1.514,1.514,0,0,1,361.157,811.631Zm175.492-2.6a1.523,1.523,0,0,1-.388-2.125h0a1.522,1.522,0,0,1,2.12-.392h0a1.528,1.528,0,0,1,.393,2.125h0a1.519,1.519,0,0,1-1.259.661h0A1.546,1.546,0,0,1,536.649,809.029Zm-179.835-4.595a1.523,1.523,0,0,1,.584-2.077h0a1.525,1.525,0,0,1,2.078.58h0a1.527,1.527,0,0,1-.585,2.082h0a1.507,1.507,0,0,1-.746.2h0A1.527,1.527,0,0,1,356.813,804.434Zm184.418-2.346a1.524,1.524,0,0,1-.525-2.094h0a1.523,1.523,0,0,1,2.095-.525h0a1.53,1.53,0,0,1,.525,2.095h0a1.532,1.532,0,0,1-1.314.742h0A1.529,1.529,0,0,1,541.231,802.088Zm-188.3-5.12a1.527,1.527,0,0,1,.721-2.034h0a1.524,1.524,0,0,1,2.035.721h0a1.525,1.525,0,0,1-.721,2.035h0a1.491,1.491,0,0,1-.657.149h0A1.529,1.529,0,0,1,352.931,796.968Zm192.434-2.094a1.527,1.527,0,0,1-.653-2.06h0a1.531,1.531,0,0,1,2.061-.653h0a1.526,1.526,0,0,1,.648,2.061h0a1.529,1.529,0,0,1-1.357.823h0A1.546,1.546,0,0,1,545.365,794.874Zm-195.77-5.649a1.53,1.53,0,0,1,.874-1.975h0a1.527,1.527,0,0,1,1.976.879h0a1.526,1.526,0,0,1-.875,1.971h0a1.485,1.485,0,0,1-.55.1h0A1.526,1.526,0,0,1,349.595,789.225Zm199.452-1.8a1.534,1.534,0,0,1-.777-2.018h0a1.526,1.526,0,0,1,2.014-.776h0a1.526,1.526,0,0,1,.781,2.013h0a1.532,1.532,0,0,1-1.4.909h0A1.593,1.593,0,0,1,549.047,787.42Zm-202.153-6.194v0a1.53,1.53,0,0,1,1.045-1.89h0a1.527,1.527,0,0,1,1.89,1.045h0a1.526,1.526,0,0,1-1.041,1.89h0a1.647,1.647,0,0,1-.427.06h0A1.535,1.535,0,0,1,346.894,781.226Zm205.493-1.421a1.529,1.529,0,0,1-.721-2.035h0a1.531,1.531,0,0,1,2.039-.721h0a1.529,1.529,0,0,1,.721,2.035h0a1.53,1.53,0,0,1-1.382.87h0A1.519,1.519,0,0,1,552.387,779.805ZM344.932,773a1.528,1.528,0,0,1,1.216-1.787h0a1.53,1.53,0,0,1,1.784,1.22h0a1.527,1.527,0,0,1-1.216,1.783h0a1.648,1.648,0,0,1-.286.026h0A1.525,1.525,0,0,1,344.932,773Zm211.193-.618a1.53,1.53,0,0,1-.58-2.082h0a1.524,1.524,0,0,1,2.082-.576h0a1.524,1.524,0,0,1,.58,2.078h0a1.527,1.527,0,0,1-1.331.776h0A1.541,1.541,0,0,1,556.124,772.382Zm-212.349-7.769a1.53,1.53,0,0,1,1.391-1.655h0a1.526,1.526,0,0,1,1.651,1.391h0A1.519,1.519,0,0,1,345.431,766h0a1.27,1.27,0,0,1-.137.009h0A1.529,1.529,0,0,1,343.776,764.613Zm216.6.632a1.53,1.53,0,0,1-.414-2.12h0a1.524,1.524,0,0,1,2.116-.418h0a1.53,1.53,0,0,1,.418,2.12h0a1.522,1.522,0,0,1-1.271.674h0A1.519,1.519,0,0,1,560.378,765.245Zm275.216-2.829h0a1.527,1.527,0,0,1-1.506-1.549h0a1.525,1.525,0,0,1,1.549-1.5h0a1.529,1.529,0,0,1,1.506,1.548h0a1.531,1.531,0,0,1-1.531,1.506h0S835.6,762.42,835.594,762.416Zm6.809-1.506a1.525,1.525,0,0,1,1.5-1.549h0a1.526,1.526,0,0,1,1.553,1.5h0a1.532,1.532,0,0,1-1.506,1.553h-.021A1.53,1.53,0,0,1,842.4,760.91Zm-15.167,1.267h0a1.526,1.526,0,0,1-1.459-1.591h0a1.527,1.527,0,0,1,1.591-1.464h0v0h0a1.527,1.527,0,0,1,1.459,1.591h0a1.529,1.529,0,0,1-1.527,1.459h-.064Zm23.477-1.472a1.527,1.527,0,0,1,1.454-1.6h0a1.521,1.521,0,0,1,1.6,1.455h0a1.529,1.529,0,0,1-1.455,1.6h-.073A1.528,1.528,0,0,1,850.714,760.705Zm-31.826.99a1.528,1.528,0,0,1-1.412-1.634h0a1.525,1.525,0,0,1,1.634-1.412h0a1.525,1.525,0,0,1,1.412,1.634h0A1.527,1.527,0,0,1,819,761.7h0A.968.968,0,0,1,818.888,761.695Zm40.129-1.455a1.531,1.531,0,0,1,1.4-1.642h0v0h0a1.528,1.528,0,0,1,1.643,1.4h0a1.525,1.525,0,0,1-1.4,1.638h0a1.016,1.016,0,0,1-.116,0h0A1.522,1.522,0,0,1,859.016,760.24Zm-48.469.717a1.53,1.53,0,0,1-1.352-1.685h0a1.528,1.528,0,0,1,1.685-1.348h0a1.526,1.526,0,0,1,1.352,1.685h0a1.527,1.527,0,0,1-1.519,1.361h0A1.112,1.112,0,0,1,810.547,760.957Zm56.75-1.442a1.528,1.528,0,0,1,1.353-1.685h0v0h0a1.525,1.525,0,0,1,1.685,1.348h0a1.531,1.531,0,0,1-1.352,1.685h0c-.055,0-.111.008-.166.008h0A1.529,1.529,0,0,1,867.3,759.515Zm-65.06.345a1.526,1.526,0,0,1-1.28-1.736h0a1.531,1.531,0,0,1,1.741-1.284h0v0h0a1.523,1.523,0,0,1,1.28,1.736h0a1.53,1.53,0,0,1-1.51,1.3h0A1.384,1.384,0,0,1,802.236,759.86Zm73.316-1.335a1.526,1.526,0,0,1,1.3-1.727h0a1.526,1.526,0,0,1,1.728,1.3h0a1.529,1.529,0,0,1-1.3,1.728h0a1.9,1.9,0,0,1-.213.013h0A1.532,1.532,0,0,1,875.552,758.525Zm-310.357-.055a1.526,1.526,0,0,1-.235-2.146h0a1.531,1.531,0,0,1,2.151-.235h0a1.53,1.53,0,0,1,.23,2.15h0a1.538,1.538,0,0,1-1.19.568h0A1.52,1.52,0,0,1,565.195,758.47Zm318.578-1.207a1.526,1.526,0,0,1,1.237-1.771h0a1.527,1.527,0,0,1,1.766,1.237h0a1.522,1.522,0,0,1-1.237,1.77h0a1.419,1.419,0,0,1-.265.026h0A1.523,1.523,0,0,1,883.773,757.262Zm-89.788,1.2h0a1.526,1.526,0,0,1-1.22-1.779h0a1.524,1.524,0,0,1,1.779-1.224h0a1.53,1.53,0,0,1,1.225,1.779h0a1.529,1.529,0,0,1-1.5,1.25h0A1.561,1.561,0,0,1,793.985,758.461Zm-449-.759a1.531,1.531,0,0,1-1.5-1.553h0a1.532,1.532,0,0,1,1.557-1.5h0a1.526,1.526,0,0,1,1.5,1.553h0a1.529,1.529,0,0,1-1.527,1.5h-.026Zm546.956-1.976a1.521,1.521,0,0,1,1.177-1.808h0a1.521,1.521,0,0,1,1.809,1.173h0a1.53,1.53,0,0,1-1.177,1.813h0a1.606,1.606,0,0,1-.316.034h0A1.527,1.527,0,0,1,891.943,755.726Zm-106.153,1.1a1.527,1.527,0,0,1-1.177-1.808h0a1.527,1.527,0,0,1,1.809-1.178h0a1.525,1.525,0,0,1,1.178,1.809h0a1.526,1.526,0,0,1-1.494,1.212h0A1.333,1.333,0,0,1,785.79,756.827Zm114.267-2.914a1.528,1.528,0,0,1,1.114-1.852h0a1.525,1.525,0,0,1,1.847,1.114h0a1.528,1.528,0,0,1-1.114,1.852h0a1.578,1.578,0,0,1-.367.047h0A1.525,1.525,0,0,1,900.057,753.913Zm-122.42,1.1a1.524,1.524,0,0,1-1.139-1.83h0a1.522,1.522,0,0,1,1.83-1.144h0a1.527,1.527,0,0,1,1.143,1.834h0a1.52,1.52,0,0,1-1.485,1.177h0A1.628,1.628,0,0,1,777.637,755.014Zm-8.111-1.945a1.533,1.533,0,0,1-1.117-1.852h0a1.528,1.528,0,0,1,1.852-1.114h0a1.52,1.52,0,0,1,1.114,1.847h0a1.524,1.524,0,0,1-1.48,1.161h0A1.566,1.566,0,0,1,769.527,753.069Zm138.577-1.25a1.527,1.527,0,0,1,1.045-1.89h0a1.533,1.533,0,0,1,1.89,1.049h0a1.532,1.532,0,0,1-1.049,1.89h0a1.594,1.594,0,0,1-.423.06h0A1.525,1.525,0,0,1,908.1,751.819Zm-337.512.332a1.528,1.528,0,0,1-.026-2.159h0a1.525,1.525,0,0,1,2.159-.026h0a1.529,1.529,0,0,1,.026,2.159h0a1.52,1.52,0,0,1-1.092.461h0A1.526,1.526,0,0,1,570.591,752.151Zm190.856-1.13h0a1.525,1.525,0,0,1-1.1-1.86h0a1.522,1.522,0,0,1,1.86-1.1h0a1.527,1.527,0,0,1,1.1,1.86h0a1.527,1.527,0,0,1-1.476,1.143h0A1.7,1.7,0,0,1,761.447,751.021Zm154.643-1.583a1.528,1.528,0,0,1,.982-1.924h0A1.53,1.53,0,0,1,919,748.5h0a1.528,1.528,0,0,1-.981,1.924h0a1.514,1.514,0,0,1-.474.073h0A1.525,1.525,0,0,1,916.09,749.438ZM345.4,749.4a1.523,1.523,0,0,1-1.335-1.7h0a1.527,1.527,0,0,1,1.7-1.335h0a1.532,1.532,0,0,1,1.335,1.7h0a1.525,1.525,0,0,1-1.515,1.348h0A1.293,1.293,0,0,1,345.4,749.4Zm407.986-.5h0a1.522,1.522,0,0,1-1.084-1.864h0a1.527,1.527,0,0,1,1.869-1.084h0a1.524,1.524,0,0,1,1.088,1.864h0a1.528,1.528,0,0,1-1.476,1.135h0A1.391,1.391,0,0,1,753.387,748.9Zm170.6-2.129a1.526,1.526,0,0,1,.913-1.958h0a1.528,1.528,0,0,1,1.958.913h0a1.531,1.531,0,0,1-.913,1.958h0a1.6,1.6,0,0,1-.525.09h0A1.526,1.526,0,0,1,923.983,746.776Zm-347.406-.388a1.533,1.533,0,0,1,.192-2.151h0a1.524,1.524,0,0,1,2.151.192h0a1.532,1.532,0,0,1-.188,2.154h0a1.55,1.55,0,0,1-.981.354h0A1.528,1.528,0,0,1,576.577,746.388Zm168.769.367a1.531,1.531,0,0,1-1.079-1.873h0a1.523,1.523,0,0,1,1.873-1.075h0a1.526,1.526,0,0,1,1.075,1.869h0a1.525,1.525,0,0,1-1.472,1.131h0A1.574,1.574,0,0,1,745.346,746.754Zm186.427-2.922a1.529,1.529,0,0,1,.84-1.988h0a1.528,1.528,0,0,1,1.988.841h0a1.523,1.523,0,0,1-.841,1.988h0a1.5,1.5,0,0,1-.571.115h0A1.52,1.52,0,0,1,931.773,743.832Zm-194.465.755a1.519,1.519,0,0,1-1.075-1.868h0a1.528,1.528,0,0,1,1.869-1.08h0a1.531,1.531,0,0,1,1.079,1.873h0a1.527,1.527,0,0,1-1.471,1.131h0A1.473,1.473,0,0,1,737.308,744.587Zm-8.042-2.154h0a1.528,1.528,0,0,1-1.084-1.869h0a1.531,1.531,0,0,1,1.869-1.084h0a1.534,1.534,0,0,1,1.084,1.873h0a1.528,1.528,0,0,1-1.476,1.13h0A1.616,1.616,0,0,1,729.266,742.433Zm-146.14-1.161a1.521,1.521,0,0,1,.418-2.116h0a1.526,1.526,0,0,1,2.12.414h0a1.529,1.529,0,0,1-.418,2.12h0a1.529,1.529,0,0,1-.849.26h0A1.525,1.525,0,0,1,583.126,741.272Zm356.322-.657a1.527,1.527,0,0,1,.768-2.018h0a1.524,1.524,0,0,1,2.018.768h0a1.524,1.524,0,0,1-.768,2.018h0a1.523,1.523,0,0,1-.623.132h0A1.527,1.527,0,0,1,939.448,740.615Zm-592.809.571a1.524,1.524,0,0,1-1.169-1.817h0a1.525,1.525,0,0,1,1.817-1.165h0a1.52,1.52,0,0,1,1.165,1.813h0a1.521,1.521,0,0,1-1.489,1.2h0A1.38,1.38,0,0,1,346.638,741.187Zm374.59-.874a1.525,1.525,0,0,1-1.1-1.86h0a1.532,1.532,0,0,1,1.864-1.1h0a1.53,1.53,0,0,1,1.092,1.864h0a1.528,1.528,0,0,1-1.476,1.143h0A1.5,1.5,0,0,1,721.229,740.312Zm-8.05-2.061h0a1.526,1.526,0,0,1-1.109-1.852h0a1.528,1.528,0,0,1,1.856-1.109h0a1.527,1.527,0,0,1,1.114,1.852h0a1.528,1.528,0,0,1-1.48,1.156h0A1.434,1.434,0,0,1,713.178,738.252ZM947,737.121a1.521,1.521,0,0,1,.7-2.043h0a1.522,1.522,0,0,1,2.043.7h0a1.527,1.527,0,0,1-.7,2.043h0a1.525,1.525,0,0,1-.674.158h0A1.52,1.52,0,0,1,947,737.121Zm-356.821-.248a1.524,1.524,0,0,1,.64-2.06h0a1.519,1.519,0,0,1,2.06.636h0a1.525,1.525,0,0,1-.635,2.065h0a1.52,1.52,0,0,1-.712.175h0A1.526,1.526,0,0,1,590.178,736.874Zm114.942-.6a1.525,1.525,0,0,1-1.131-1.839h0a1.53,1.53,0,0,1,1.843-1.131h0a1.524,1.524,0,0,1,1.126,1.843h0a1.525,1.525,0,0,1-1.481,1.168h0A1.469,1.469,0,0,1,705.119,736.273Zm-8.076-1.869h0a1.526,1.526,0,0,1-1.156-1.822h0a1.531,1.531,0,0,1,1.826-1.16h0a1.534,1.534,0,0,1,1.156,1.826h0a1.533,1.533,0,0,1-1.489,1.194h0A1.544,1.544,0,0,1,697.043,734.4Zm-99.4-1.169a1.527,1.527,0,0,1,.845-1.988h0a1.53,1.53,0,0,1,1.988.845h0a1.53,1.53,0,0,1-.845,1.988h0a1.5,1.5,0,0,1-.572.111h0A1.535,1.535,0,0,1,597.648,733.234Zm356.766.124a1.527,1.527,0,0,1,.619-2.069h0v0h0a1.527,1.527,0,0,1,2.069.619h0a1.526,1.526,0,0,1-.618,2.069h0a1.523,1.523,0,0,1-.725.183h0A1.523,1.523,0,0,1,954.414,733.358Zm-605.787-.239a1.526,1.526,0,0,1-1.007-1.911h0a1.526,1.526,0,0,1,1.907-1.007h0a1.531,1.531,0,0,1,1.012,1.911h0a1.536,1.536,0,0,1-1.459,1.075h0A1.517,1.517,0,0,1,348.626,733.12Zm340.311-.453a1.527,1.527,0,0,1-1.19-1.8h0a1.526,1.526,0,0,1,1.8-1.19h0a1.527,1.527,0,0,1,1.19,1.8h0a1.53,1.53,0,0,1-1.493,1.22h0A1.866,1.866,0,0,1,688.937,732.667Zm-83.5-2.308a1.534,1.534,0,0,1,1.028-1.9h0a1.527,1.527,0,0,1,1.9,1.028h0a1.524,1.524,0,0,1-1.024,1.9h0a1.577,1.577,0,0,1-.439.064h0A1.531,1.531,0,0,1,605.438,730.359Zm75.364.73a1.527,1.527,0,0,1-1.229-1.775h0a1.526,1.526,0,0,1,1.775-1.229h0a1.523,1.523,0,0,1,1.229,1.775h0a1.526,1.526,0,0,1-1.5,1.255h0A1.508,1.508,0,0,1,680.8,731.089Zm280.882-1.757a1.522,1.522,0,0,1,.546-2.086h0a1.531,1.531,0,0,1,2.091.542h0a1.53,1.53,0,0,1-.546,2.09h0a1.492,1.492,0,0,1-.772.209h0A1.524,1.524,0,0,1,961.683,729.331Zm-289.047.38h0a1.523,1.523,0,0,1-1.271-1.745h0a1.522,1.522,0,0,1,1.741-1.272h0a1.525,1.525,0,0,1,1.276,1.741h0a1.525,1.525,0,0,1-1.506,1.293h0A1.538,1.538,0,0,1,672.636,729.711Zm-59.169-1.51a1.53,1.53,0,0,1,1.187-1.8h0a1.529,1.529,0,0,1,1.8,1.186h0a1.528,1.528,0,0,1-1.182,1.8h0a1.518,1.518,0,0,1-.307.034h0A1.528,1.528,0,0,1,613.467,728.2Zm50.978.367a1.527,1.527,0,0,1-1.327-1.7h0a1.527,1.527,0,0,1,1.7-1.331h0a1.526,1.526,0,0,1,1.327,1.7h0a1.524,1.524,0,0,1-1.51,1.344h0A1.466,1.466,0,0,1,664.445,728.568Zm-42.8-1.852a1.525,1.525,0,0,1,1.319-1.711h0a1.53,1.53,0,0,1,1.711,1.318h0a1.528,1.528,0,0,1-1.319,1.711h0a1.617,1.617,0,0,1-.2.012h0A1.526,1.526,0,0,1,621.65,726.716Zm34.578.982h0a1.527,1.527,0,0,1-1.387-1.656h0a1.523,1.523,0,0,1,1.651-1.387h0a1.528,1.528,0,0,1,1.391,1.651h0a1.526,1.526,0,0,1-1.519,1.4h0C656.318,727.7,656.275,727.7,656.228,727.7Zm-26.314-1.869a1.533,1.533,0,0,1,1.429-1.621h0a1.533,1.533,0,0,1,1.621,1.429h0a1.533,1.533,0,0,1-1.429,1.621h-.1A1.526,1.526,0,0,1,629.914,725.828Zm18.08,1.323h0a1.526,1.526,0,0,1-1.455-1.592h0a1.524,1.524,0,0,1,1.591-1.459h0a1.527,1.527,0,0,1,1.459,1.592h0a1.533,1.533,0,0,1-1.527,1.463h0C648.041,727.155,648.02,727.151,647.994,727.151Zm-9.774-1.685a1.529,1.529,0,0,1,1.523-1.536h0a1.527,1.527,0,0,1,1.532,1.519h0a1.527,1.527,0,0,1-1.519,1.536h-.008A1.53,1.53,0,0,1,638.22,725.466Zm330.58-.418a1.526,1.526,0,0,1,.469-2.107h0a1.531,1.531,0,0,1,2.112.469h0a1.53,1.53,0,0,1-.469,2.107h0a1.53,1.53,0,0,1-.819.239h0A1.523,1.523,0,0,1,968.8,725.048Zm-617.524.192a1.53,1.53,0,0,1-.862-1.979h0a1.525,1.525,0,0,1,1.979-.862h0a1.524,1.524,0,0,1,.862,1.979h0a1.524,1.524,0,0,1-1.421.968h0A1.525,1.525,0,0,1,351.276,725.239Zm624.482-4.727a1.523,1.523,0,0,1,.392-2.12h0a1.524,1.524,0,0,1,2.121.392h0a1.527,1.527,0,0,1-.393,2.121v0a1.544,1.544,0,0,1-.866.269h0A1.523,1.523,0,0,1,975.758,720.513Zm-621.274-2.944a1.526,1.526,0,0,1-.734-2.03h0a1.526,1.526,0,0,1,2.031-.734h0a1.526,1.526,0,0,1,.734,2.031h0a1.527,1.527,0,0,1-1.382.879h0A1.525,1.525,0,0,1,354.484,717.569Zm628.062-1.83a1.527,1.527,0,0,1,.32-2.137h0a1.521,1.521,0,0,1,2.133.32h0a1.525,1.525,0,0,1-.316,2.133h0a1.509,1.509,0,0,1-.909.3h0A1.52,1.52,0,0,1,982.546,715.739Zm6.613-5.013a1.526,1.526,0,0,1,.243-2.146h0a1.527,1.527,0,0,1,2.146.244h0a1.53,1.53,0,0,1-.243,2.146h0a1.54,1.54,0,0,1-.952.333h0A1.517,1.517,0,0,1,989.158,710.726Zm-631.01-.623a1.522,1.522,0,0,1-.623-2.065h0a1.527,1.527,0,0,1,2.065-.628h0a1.53,1.53,0,0,1,.627,2.07h0a1.524,1.524,0,0,1-1.348.806h0A1.524,1.524,0,0,1,358.148,710.1Zm637.439-4.612a1.532,1.532,0,0,1,.171-2.155h0a1.528,1.528,0,0,1,2.154.171h0a1.526,1.526,0,0,1-.17,2.15h0a1.515,1.515,0,0,1-.99.367h0A1.536,1.536,0,0,1,995.587,705.491Zm-633.4-2.658a1.529,1.529,0,0,1-.533-2.095h0a1.523,1.523,0,0,1,2.09-.534h0a1.525,1.525,0,0,1,.533,2.091h0a1.528,1.528,0,0,1-1.314.751h0A1.512,1.512,0,0,1,362.184,702.833Zm639.666-2.812a1.53,1.53,0,0,1,.1-2.159h0a1.525,1.525,0,0,1,2.155.1h0a1.526,1.526,0,0,1-.094,2.159h0a1.534,1.534,0,0,1-1.029.4h0A1.535,1.535,0,0,1,1001.85,700.022Zm-635.344-4.3a1.525,1.525,0,0,1-.461-2.108h0a1.529,1.529,0,0,1,2.108-.465h0a1.535,1.535,0,0,1,.465,2.112h0a1.529,1.529,0,0,1-1.289.7h0A1.508,1.508,0,0,1,366.506,695.726Zm641.419-1.383a1.524,1.524,0,0,1,.026-2.159h0a1.524,1.524,0,0,1,2.159.026h0a1.528,1.528,0,0,1-.026,2.159h0a1.519,1.519,0,0,1-1.066.435h0A1.517,1.517,0,0,1,1007.926,694.343Zm-636.872-5.58a1.526,1.526,0,0,1-.409-2.12h0a1.525,1.525,0,0,1,2.12-.409h0a1.525,1.525,0,0,1,.409,2.12h0a1.527,1.527,0,0,1-1.267.67h0A1.528,1.528,0,0,1,371.054,688.763Zm642.755-.294a1.524,1.524,0,0,1-.047-2.159h0a1.524,1.524,0,0,1,2.158-.047h0a1.532,1.532,0,0,1,.047,2.159h0a1.539,1.539,0,0,1-1.105.47h0A1.518,1.518,0,0,1,1013.809,688.469Zm5.686-6.066a1.522,1.522,0,0,1-.119-2.155h0a1.531,1.531,0,0,1,2.159-.119h0a1.53,1.53,0,0,1,.115,2.158h0a1.517,1.517,0,0,1-1.135.508h0A1.532,1.532,0,0,1,1019.5,682.4Zm-643.732-.5a1.529,1.529,0,0,1-.367-2.129h0a1.529,1.529,0,0,1,2.129-.367h0a1.53,1.53,0,0,1,.367,2.129h0a1.52,1.52,0,0,1-1.25.644h0A1.53,1.53,0,0,1,375.764,681.907Zm649.222-5.751a1.524,1.524,0,0,1-.187-2.15h0a1.527,1.527,0,0,1,2.15-.183h0a1.525,1.525,0,0,1,.188,2.151h0a1.526,1.526,0,0,1-1.169.541h0A1.5,1.5,0,0,1,1024.986,676.156Zm-644.392-1.023a1.524,1.524,0,0,1-.342-2.133h0a1.528,1.528,0,0,1,2.133-.341h0a1.532,1.532,0,0,1,.337,2.133h0a1.518,1.518,0,0,1-1.237.632h0A1.5,1.5,0,0,1,380.594,675.133Zm649.683-5.389a1.527,1.527,0,0,1-.252-2.146h0a1.526,1.526,0,0,1,2.146-.247h0a1.52,1.52,0,0,1,.248,2.141h0a1.51,1.51,0,0,1-1.2.581h0A1.5,1.5,0,0,1,1030.277,669.744Zm-644.786-1.335a1.523,1.523,0,0,1-.329-2.133h0a1.523,1.523,0,0,1,2.133-.328h0a1.523,1.523,0,0,1,.329,2.133h0a1.519,1.519,0,0,1-1.233.623h0A1.511,1.511,0,0,1,385.491,668.409Zm649.875-5.234a1.531,1.531,0,0,1-.316-2.137h0a1.527,1.527,0,0,1,2.138-.316h0a1.521,1.521,0,0,1,.315,2.133v0a1.526,1.526,0,0,1-1.229.614h0A1.539,1.539,0,0,1,1035.366,663.174Zm-644.943-1.468a1.523,1.523,0,0,1-.329-2.133h0a1.529,1.529,0,0,1,2.137-.328h0a1.532,1.532,0,0,1,.324,2.137h0a1.531,1.531,0,0,1-1.233.623h0A1.507,1.507,0,0,1,390.423,661.706Zm649.837-5.255a1.527,1.527,0,0,1-.376-2.129h0a1.521,1.521,0,0,1,2.125-.376h0a1.526,1.526,0,0,1,.38,2.125h0a1.526,1.526,0,0,1-1.254.653h0A1.543,1.543,0,0,1,1040.26,656.451ZM395.346,655a1.528,1.528,0,0,1-.337-2.133h0a1.523,1.523,0,0,1,2.133-.333h0a1.527,1.527,0,0,1,.337,2.133h0a1.527,1.527,0,0,1-1.238.628h0A1.493,1.493,0,0,1,395.346,655Zm649.611-5.414a1.519,1.519,0,0,1-.44-2.111h0a1.519,1.519,0,0,1,2.112-.44h0a1.527,1.527,0,0,1,.44,2.112h0a1.527,1.527,0,0,1-1.276.691h0A1.5,1.5,0,0,1,1044.957,649.586Zm-644.73-1.322a1.524,1.524,0,0,1-.354-2.129h0a1.524,1.524,0,0,1,2.129-.354h0a1.524,1.524,0,0,1,.354,2.129h0a1.524,1.524,0,0,1-1.242.64h0A1.527,1.527,0,0,1,400.227,648.264Zm649.227-5.67a1.525,1.525,0,0,1-.5-2.1h0v0h0a1.529,1.529,0,0,1,2.1-.5h0a1.527,1.527,0,0,1,.5,2.1h0a1.52,1.52,0,0,1-1.3.725h0A1.511,1.511,0,0,1,1049.453,642.594Zm-644.423-1.122a1.526,1.526,0,0,1-.38-2.125h0a1.533,1.533,0,0,1,2.129-.38h0a1.531,1.531,0,0,1,.376,2.129h0a1.537,1.537,0,0,1-1.254.653h0A1.5,1.5,0,0,1,405.031,641.472Zm648.723-5.994a1.527,1.527,0,0,1-.555-2.086h0a1.523,1.523,0,0,1,2.086-.555h0a1.527,1.527,0,0,1,.555,2.086h0a1.525,1.525,0,0,1-1.323.76h0A1.508,1.508,0,0,1,1053.754,635.478Zm-643.967-.828a1.524,1.524,0,0,1-.38-2.125h0a1.525,1.525,0,0,1,2.125-.38h0a1.53,1.53,0,0,1,.384,2.125h0a1.527,1.527,0,0,1-1.259.653h0A1.509,1.509,0,0,1,409.787,634.65Zm648.075-6.4a1.527,1.527,0,0,1-.61-2.074h0a1.522,1.522,0,0,1,2.07-.609h0a1.52,1.52,0,0,1,.61,2.069h0a1.516,1.516,0,0,1-1.34.8h0A1.544,1.544,0,0,1,1057.862,628.251Zm-643.339-.435a1.528,1.528,0,0,1-.393-2.125h0a1.527,1.527,0,0,1,2.12-.4h0a1.529,1.529,0,0,1,.4,2.125h0a1.511,1.511,0,0,1-1.263.661h0A1.535,1.535,0,0,1,414.523,627.815Zm4.693-6.868a1.531,1.531,0,0,1-.414-2.121h0a1.53,1.53,0,0,1,2.121-.413h0a1.529,1.529,0,0,1,.414,2.12h0a1.52,1.52,0,0,1-1.267.674h0A1.53,1.53,0,0,1,419.216,620.947Zm642.562-.034a1.53,1.53,0,0,1-.665-2.057h0a1.527,1.527,0,0,1,2.056-.661h0a1.524,1.524,0,0,1,.666,2.052h0a1.53,1.53,0,0,1-1.361.832h0A1.5,1.5,0,0,1,1061.778,620.913ZM423.84,614.035a1.527,1.527,0,0,1-.435-2.116h0a1.522,1.522,0,0,1,2.112-.435h0a1.523,1.523,0,0,1,.439,2.112h0a1.526,1.526,0,0,1-1.28.691h0A1.52,1.52,0,0,1,423.84,614.035Zm641.663-.559a1.527,1.527,0,0,1-.725-2.035h0a1.53,1.53,0,0,1,2.035-.725h0a1.533,1.533,0,0,1,.725,2.039h0a1.539,1.539,0,0,1-1.382.87h0A1.485,1.485,0,0,1,1065.5,613.477ZM428.38,607.065a1.525,1.525,0,0,1-.465-2.107h0a1.525,1.525,0,0,1,2.107-.465h0a1.526,1.526,0,0,1,.47,2.107h0a1.536,1.536,0,0,1-1.293.7h0A1.522,1.522,0,0,1,428.38,607.065Zm640.626-1.131a1.533,1.533,0,0,1-.781-2.014h0a1.526,1.526,0,0,1,2.014-.781h0a1.526,1.526,0,0,1,.781,2.014h0a1.528,1.528,0,0,1-1.4.913h0A1.5,1.5,0,0,1,1069.006,605.934Zm-636.193-5.9a1.529,1.529,0,0,1-.5-2.1h0a1.521,1.521,0,0,1,2.1-.5h0a1.524,1.524,0,0,1,.5,2.1h0a1.524,1.524,0,0,1-1.3.729h0A1.505,1.505,0,0,1,432.813,600.029ZM1072.3,598.3a1.528,1.528,0,0,1-.836-1.993h0a1.523,1.523,0,0,1,1.988-.836h0a1.528,1.528,0,0,1,.841,1.988h0a1.532,1.532,0,0,1-1.417.951h0A1.52,1.52,0,0,1,1072.3,598.3Zm-635.182-5.384a1.531,1.531,0,0,1-.546-2.091h0a1.526,1.526,0,0,1,2.09-.546h0a1.524,1.524,0,0,1,.546,2.086h0a1.528,1.528,0,0,1-1.318.76h0A1.538,1.538,0,0,1,437.113,592.913Zm638.267-2.351a1.527,1.527,0,0,1-.789-2.009h0a1.53,1.53,0,0,1,2.013-.789h0a1.525,1.525,0,0,1,.785,2.009h0a1.521,1.521,0,0,1-1.4.917h0A1.49,1.49,0,0,1,1075.379,590.562ZM441.26,585.7a1.524,1.524,0,0,1-.593-2.073h0a1.524,1.524,0,0,1,2.074-.6h0a1.524,1.524,0,0,1,.6,2.073h0a1.53,1.53,0,0,1-1.34.789h0A1.5,1.5,0,0,1,441.26,585.7Zm637.661-2.675a1.529,1.529,0,0,1-.61-2.069h0a1.526,1.526,0,0,1,2.074-.61h0a1.527,1.527,0,0,1,.61,2.069h0a1.532,1.532,0,0,1-1.344.8h0A1.512,1.512,0,0,1,1078.92,583.028ZM445.231,578.4a1.523,1.523,0,0,1-.653-2.056h0a1.529,1.529,0,0,1,2.06-.653h0a1.531,1.531,0,0,1,.653,2.061h0a1.537,1.537,0,0,1-1.357.823h0A1.494,1.494,0,0,1,445.231,578.4Zm637.866-2.564a1.528,1.528,0,0,1-.431-2.116h0a1.527,1.527,0,0,1,2.116-.431h0a1.526,1.526,0,0,1,.431,2.116h0a1.514,1.514,0,0,1-1.271.683h0A1.538,1.538,0,0,1,1083.1,575.831ZM449,570.981a1.524,1.524,0,0,1-.712-2.035h0a1.528,1.528,0,0,1,2.039-.713h0a1.528,1.528,0,0,1,.712,2.039h0a1.528,1.528,0,0,1-1.378.862h0A1.474,1.474,0,0,1,449,570.981Zm638.885-1.958a1.522,1.522,0,0,1-.239-2.146h0a1.526,1.526,0,0,1,2.146-.239h0a1.53,1.53,0,0,1,.239,2.146h0a1.533,1.533,0,0,1-1.194.572h0A1.512,1.512,0,0,1,1087.884,569.022Zm-635.345-5.568a1.524,1.524,0,0,1-.776-2.013h0a1.524,1.524,0,0,1,2.013-.777h0a1.526,1.526,0,0,1,.777,2.014h0a1.522,1.522,0,0,1-1.4.909h0A1.507,1.507,0,0,1,452.539,563.454Zm640.724-.772a1.528,1.528,0,0,1-.034-2.159h0a1.524,1.524,0,0,1,2.159-.034h0a1.528,1.528,0,0,1,.038,2.159h0a1.541,1.541,0,0,1-1.1.465h0A1.539,1.539,0,0,1,1093.264,562.682Zm5.968-5.793a1.525,1.525,0,0,1,.183-2.15h0a1.528,1.528,0,0,1,2.15.183h0a1.527,1.527,0,0,1-.179,2.15h0a1.526,1.526,0,0,1-.986.358h0A1.524,1.524,0,0,1,1099.232,556.889Zm-643.407-1.071a1.528,1.528,0,0,1-.845-1.988h0a1.523,1.523,0,0,1,1.984-.845h0a1.522,1.522,0,0,1,.849,1.984h0a1.525,1.525,0,0,1-1.417.96h0A1.493,1.493,0,0,1,455.825,555.818Zm649.931-4.083a1.527,1.527,0,0,1,.4-2.12h0a1.529,1.529,0,0,1,2.124.405h0a1.528,1.528,0,0,1-.406,2.12h0a1.521,1.521,0,0,1-.857.265h0A1.524,1.524,0,0,1,1105.755,551.735Zm-646.915-3.669a1.526,1.526,0,0,1-.913-1.954h0a1.527,1.527,0,0,1,1.954-.917h0a1.525,1.525,0,0,1,.917,1.954h0a1.526,1.526,0,0,1-1.438,1.007h0A1.608,1.608,0,0,1,458.841,548.066Zm653.941-.772a1.52,1.52,0,0,1,.628-2.065h0a1.527,1.527,0,0,1,2.065.627h0a1.528,1.528,0,0,1-.628,2.065h0a1.521,1.521,0,0,1-.721.183h0A1.523,1.523,0,0,1,1112.781,547.294Zm7.453-3.665a1.529,1.529,0,0,1,.844-1.988h0a1.524,1.524,0,0,1,1.988.841h0a1.526,1.526,0,0,1-.845,1.988h0a1.5,1.5,0,0,1-.572.111h0A1.531,1.531,0,0,1,1120.235,543.63Zm7.8-2.863a1.528,1.528,0,0,1,1.045-1.89h0a1.524,1.524,0,0,1,1.89,1.041h0a1.525,1.525,0,0,1-1.041,1.89h0a1.49,1.49,0,0,1-.427.059h0A1.535,1.535,0,0,1,1128.033,540.767Zm-666.441-.555a1.528,1.528,0,0,1-.981-1.924h0a1.528,1.528,0,0,1,1.924-.981h0a1.528,1.528,0,0,1,.981,1.924h0a1.528,1.528,0,0,1-1.455,1.058h0A1.516,1.516,0,0,1,461.593,540.212Zm674.491-1.506a1.527,1.527,0,0,1,1.22-1.779h0a1.528,1.528,0,0,1,1.783,1.22h0a1.53,1.53,0,0,1-1.225,1.783h0a1.559,1.559,0,0,1-.281.026h0A1.525,1.525,0,0,1,1136.084,538.706Zm8.209-1.28a1.52,1.52,0,0,1,1.374-1.664h0a1.525,1.525,0,0,1,1.664,1.378h0a1.527,1.527,0,0,1-1.378,1.664h0c-.047,0-.094,0-.141,0h0A1.524,1.524,0,0,1,1144.292,537.426Zm8.285-.559a1.526,1.526,0,0,1,1.51-1.545h0a1.527,1.527,0,0,1,1.545,1.51h0a1.529,1.529,0,0,1-1.51,1.545h-.017A1.528,1.528,0,0,1,1152.577,536.867Zm-688.5-4.595a1.527,1.527,0,0,1-1.045-1.89h0a1.525,1.525,0,0,1,1.89-1.045h0a1.533,1.533,0,0,1,1.045,1.89h0a1.524,1.524,0,0,1-1.463,1.105h0A1.607,1.607,0,0,1,464.076,532.273Zm2.214-8.021a1.521,1.521,0,0,1-1.1-1.852h0a1.527,1.527,0,0,1,1.852-1.109h0a1.529,1.529,0,0,1,1.109,1.856h0a1.529,1.529,0,0,1-1.48,1.152h0A1.432,1.432,0,0,1,466.289,524.252Zm1.954-8.084a1.527,1.527,0,0,1-1.169-1.818h0a1.53,1.53,0,0,1,1.817-1.169h0A1.523,1.523,0,0,1,470.057,515h0a1.521,1.521,0,0,1-1.489,1.2h0A1.693,1.693,0,0,1,468.243,516.168Zm1.685-8.149a1.525,1.525,0,0,1-1.228-1.775h0a1.529,1.529,0,0,1,1.779-1.229h0a1.526,1.526,0,0,1,1.224,1.779h0a1.52,1.52,0,0,1-1.5,1.25h0A1.513,1.513,0,0,1,469.929,508.019Zm1.417-8.2a1.521,1.521,0,0,1-1.28-1.736h0A1.525,1.525,0,0,1,471.8,496.8h0a1.527,1.527,0,0,1,1.28,1.737h0a1.522,1.522,0,0,1-1.506,1.3h0A1.4,1.4,0,0,1,471.345,499.823Zm1.152-8.238a1.526,1.526,0,0,1-1.34-1.694h0a1.529,1.529,0,0,1,1.694-1.34h0a1.529,1.529,0,0,1,1.34,1.694h0a1.53,1.53,0,0,1-1.515,1.353h0A1.231,1.231,0,0,1,472.5,491.585Zm.879-8.272a1.526,1.526,0,0,1-1.4-1.647h0a1.531,1.531,0,0,1,1.647-1.4h0a1.529,1.529,0,0,1,1.4,1.651h0a1.524,1.524,0,0,1-1.519,1.4h0A1.236,1.236,0,0,1,473.376,483.313Zm.606-8.294a1.524,1.524,0,0,1-1.45-1.6h0a1.526,1.526,0,0,1,1.6-1.45h0a1.533,1.533,0,0,1,1.45,1.6h0a1.532,1.532,0,0,1-1.527,1.455h0A.375.375,0,0,1,473.982,475.019Zm.32-8.311a1.525,1.525,0,0,1-1.5-1.549h0a1.523,1.523,0,0,1,1.553-1.5h0a1.524,1.524,0,0,1,1.5,1.549h0a1.526,1.526,0,0,1-1.527,1.5H474.3Zm-1.515-9.813h0a1.526,1.526,0,0,1,1.5-1.557h0a1.531,1.531,0,0,1,1.553,1.5h0a1.525,1.525,0,0,1-1.5,1.553h-.03A1.525,1.525,0,0,1,472.787,456.9Zm-.307-8.255h0a1.524,1.524,0,0,1,1.438-1.608h0a1.524,1.524,0,0,1,1.608,1.442h0a1.527,1.527,0,0,1-1.442,1.609h-.081A1.53,1.53,0,0,1,472.48,448.641Zm-.6-8.238a1.527,1.527,0,0,1,1.382-1.66h0a1.532,1.532,0,0,1,1.66,1.382h0a1.527,1.527,0,0,1-1.382,1.66h0c-.047,0-.094,0-.141,0h0A1.525,1.525,0,0,1,471.883,440.4Zm-.9-8.208a1.524,1.524,0,0,1,1.318-1.711h0a1.53,1.53,0,0,1,1.711,1.318h0a1.528,1.528,0,0,1-1.318,1.711h0a1.6,1.6,0,0,1-.2.013h0A1.526,1.526,0,0,1,470.979,432.195Zm-1.216-8.166a1.53,1.53,0,0,1,1.254-1.762h0a1.529,1.529,0,0,1,1.758,1.254h0a1.527,1.527,0,0,1-1.25,1.758h0a1.339,1.339,0,0,1-.256.021h0A1.527,1.527,0,0,1,469.763,424.029Zm-1.532-8.11h0a1.526,1.526,0,0,1,1.178-1.809h0a1.524,1.524,0,0,1,1.809,1.182h0a1.521,1.521,0,0,1-1.182,1.8h0a1.3,1.3,0,0,1-.311.034h0A1.527,1.527,0,0,1,468.231,415.919Zm-1.86-8.042a1.527,1.527,0,0,1,1.1-1.856h0a1.531,1.531,0,0,1,1.856,1.109h0a1.527,1.527,0,0,1-1.1,1.852h0a1.465,1.465,0,0,1-.379.047h0A1.524,1.524,0,0,1,466.371,407.877Zm-2.193-7.952a1.52,1.52,0,0,1,1.024-1.9h0a1.524,1.524,0,0,1,1.9,1.024h0a1.53,1.53,0,0,1-1.024,1.9h0a1.562,1.562,0,0,1-.439.064h0A1.525,1.525,0,0,1,464.178,399.925Zm-2.538-7.85a1.525,1.525,0,0,1,.943-1.941h0a1.522,1.522,0,0,1,1.941.943h0a1.523,1.523,0,0,1-.939,1.941h0a1.483,1.483,0,0,1-.5.086h0A1.532,1.532,0,0,1,461.64,392.075Zm-2.88-7.722a1.523,1.523,0,0,1,.849-1.983h0a1.523,1.523,0,0,1,1.983.849h0a1.529,1.529,0,0,1-.849,1.988h0a1.571,1.571,0,0,1-.568.107h0A1.524,1.524,0,0,1,458.76,384.353Zm-3.238-7.581a1.523,1.523,0,0,1,.76-2.022h0a1.521,1.521,0,0,1,2.018.755h0a1.525,1.525,0,0,1-.755,2.022h0a1.5,1.5,0,0,1-.632.137h0A1.523,1.523,0,0,1,455.522,376.771Zm-3.588-7.427a1.533,1.533,0,0,1,.67-2.056h0a1.522,1.522,0,0,1,2.052.67h0a1.525,1.525,0,0,1-.666,2.052h0a1.552,1.552,0,0,1-.691.166h0A1.531,1.531,0,0,1,451.934,369.344Zm-3.9-7.279a1.532,1.532,0,0,1,.589-2.082h0a1.527,1.527,0,0,1,2.078.585h0a1.528,1.528,0,0,1-.584,2.078h0a1.493,1.493,0,0,1-.747.2h0A1.53,1.53,0,0,1,448.034,362.066Zm-4.177-7.129a1.53,1.53,0,0,1,.508-2.1h0a1.526,1.526,0,0,1,2.1.508h0a1.526,1.526,0,0,1-.508,2.1h0a1.53,1.53,0,0,1-.793.222h0A1.537,1.537,0,0,1,443.858,354.937Zm-4.428-6.98a1.522,1.522,0,0,1,.435-2.112h0a1.521,1.521,0,0,1,2.112.431h0a1.526,1.526,0,0,1-.431,2.116h0a1.521,1.521,0,0,1-.84.252h0A1.52,1.52,0,0,1,439.429,347.957Zm-4.667-6.826h0a1.529,1.529,0,0,1,.362-2.129h0a1.525,1.525,0,0,1,2.129.362h0a1.53,1.53,0,0,1-.362,2.129h0a1.543,1.543,0,0,1-.884.281h0A1.523,1.523,0,0,1,434.762,341.131Zm-4.889-6.677a1.528,1.528,0,0,1,.294-2.137h0a1.529,1.529,0,0,1,2.142.294h0a1.535,1.535,0,0,1-.294,2.142h0a1.555,1.555,0,0,1-.922.307h0A1.526,1.526,0,0,1,429.873,334.454Zm-5.1-6.51a1.535,1.535,0,0,1,.227-2.151h0a1.531,1.531,0,0,1,2.15.23h0a1.529,1.529,0,0,1-.226,2.146h0a1.54,1.54,0,0,1-.96.337h0A1.528,1.528,0,0,1,424.775,327.945Zm-5.3-6.348a1.531,1.531,0,0,1,.158-2.155h0a1.53,1.53,0,0,1,2.154.158h0a1.523,1.523,0,0,1-.158,2.155h0a1.494,1.494,0,0,1-.994.371h0A1.528,1.528,0,0,1,419.472,321.6Zm-5.5-6.169a1.526,1.526,0,0,1,.09-2.159h0a1.524,1.524,0,0,1,2.155.09h0a1.529,1.529,0,0,1-.085,2.159h0a1.531,1.531,0,0,1-1.037.4h0A1.514,1.514,0,0,1,413.972,315.427Zm-5.7-5.981a1.525,1.525,0,0,1,.013-2.159h0a1.525,1.525,0,0,1,2.159.017h0a1.528,1.528,0,0,1-.013,2.158h0a1.522,1.522,0,0,1-1.071.44h0A1.523,1.523,0,0,1,408.273,309.446Zm-5.909-5.777a1.529,1.529,0,0,1-.064-2.159h0a1.529,1.529,0,0,1,2.158-.064h0a1.525,1.525,0,0,1,.064,2.159h0a1.515,1.515,0,0,1-1.11.482h0A1.534,1.534,0,0,1,402.364,303.669Zm-6.114-5.551a1.527,1.527,0,0,1-.15-2.155h0a1.527,1.527,0,0,1,2.155-.145h0a1.527,1.527,0,0,1,.15,2.155h0a1.525,1.525,0,0,1-1.152.52h0A1.521,1.521,0,0,1,396.251,298.119Zm-6.331-5.294h0a1.522,1.522,0,0,1-.239-2.146h0a1.529,1.529,0,0,1,2.146-.239h0a1.53,1.53,0,0,1,.239,2.146h0a1.522,1.522,0,0,1-1.194.576h0A1.519,1.519,0,0,1,389.919,292.825Z" transform="translate(-65.995 -56.071)"/><path class="f" d="M1499.421,973.545a50.02,50.02,0,0,1-9.434,6.377c-21.655,11.026-37.532-6.056-46.24-20.033a72.714,72.714,0,0,1-9.416-23.524c-2.054-9.825-3.5-19.047.713-32.237a128.372,128.372,0,0,1,6.368-16.492,25.63,25.63,0,0,1,13.163-12.538c.418-.176.823-.334,1.223-.484,6.817-2.5,11.786-1.2,11.786-1.2,9.948,1.447,18.572,6.518,21.8,16.312.145.444.277.884.391,1.319a21.047,21.047,0,0,1,.563,2.911c.066.475.106.945.132,1.416a29,29,0,0,1-.642,7.56c-.066.325-.136.646-.207.972-.123.585-.26,1.165-.4,1.746-.026.1-.048.2-.075.3-.141.585-.29,1.17-.44,1.759a51,51,0,0,0-2.028,11.747c-.163,8,4.539,16.026,8.637,22.5.189.3.374.594.55.884.057.092.115.185.167.277h0C1509.629,965.422,1499.421,973.545,1499.421,973.545Z" transform="translate(-675.977 -382.658)"/><path class="g" d="M1340.949,943.452l-27.871-20.062-5.96-10.437c-5.408,7.21-11.836,8.365-16.266,8.072l2.337,6.5a28.316,28.316,0,0,0,8.82,12.252l11.492,11.75,40.044,40.945,8.656-13.959,8.476-13.662C1364.308,954.434,1348.492,946.679,1340.949,943.452Z" transform="translate(-596.718 -404.995)"/><path class="h" d="M1396.762,1016.135l-5.711,11.515-8.656,13.959-40.044-40.945,37.177,26.7C1388.662,1017.7,1396.762,1016.135,1396.762,1016.135Z" transform="translate(-625.568 -454.132)"/><path class="g" d="M1442.267,1030.957s-4.809.76-11.126,11.807l-8.158,17.066s-8.894,16.009-1.229,29.24l5.9,7.861a116.225,116.225,0,0,1,.3,14.845,106.614,106.614,0,0,1-1.309,13.791c-1.164,7.045-5.722,16.991,5.509,17.2a8.666,8.666,0,0,0,5.246-1.647,29.13,29.13,0,0,0,10.894-15.69Z" transform="translate(-668.306 -471.102)"/><ellipse class="i" cx="386.619" cy="17.049" rx="386.619" ry="17.049" transform="translate(225.681 951.957)"/><g transform="translate(643.024 752.967)"><path class="j" d="M1289.054,1531.891c4.369,1.638,6.279-1.093,6.279-1.093,6-4.08,10.947.7,12.055,1.917a4.677,4.677,0,0,1,.363.453l3.692,5.274c7.1,5.734,7.1-6.007,7.1-6.007,0-3.549-2.73-9.01-9.829-13.378s-6.007-8.464-6.007-8.464c.643-8.36,7.177-7.3,9.955-6.452a5.625,5.625,0,0,0,3.662-.131c6.468-2.487,3.185-11.012,2.024-13.572a12.776,12.776,0,0,1-.789-2.312c-2.162-9.13,3.107-14.3,7.21-16.849a8.125,8.125,0,0,1,8.566,0c4.1,2.547,9.377,7.719,7.214,16.852a12.758,12.758,0,0,1-.789,2.312c-1.161,2.56-4.444,11.084,2.024,13.572a5.626,5.626,0,0,0,3.663.131c2.778-.844,9.312-1.908,9.955,6.452,0,0,1.092,4.1-6.007,8.464s-9.829,9.829-9.829,13.378c0,0,0,11.741,7.1,6.007l3.692-5.274a4.66,4.66,0,0,1,.363-.453c1.108-1.216,6.053-6,12.055-1.917,0,0,1.911,2.731,6.28,1.093s13.379-.819,11.195,7.1c0,0-3,4.368-2.458,7.918s-1.365,11.741-8.464,9.283-9.557,3.276-9.557,3.276-4.368,4.915-10.375,4.915h-4.1s-3.822,0-3.822,5.461c0,0-.273,5.461,5.46,5.461h5.461s8.191-.546,7.1,7.918c0,0-.546,4.368-9.01,7.644-6.626,2.565-15.246,11.609-4.918,15.836,2.712,1.11,6.054,3.978,5.933,7.137-.165,4.31-4.678,5.4-8.115,5.969-4.915.819-7.1,3-7.372,5.734v5.188s-.136,6.007-6.962,7.918c-6.826-1.911-6.962-7.918-6.962-7.918v-5.188c-.273-2.73-2.458-4.915-7.372-5.734-3.437-.573-7.949-1.66-8.115-5.969-.121-3.159,3.22-6.027,5.933-7.137,10.328-4.227,1.709-13.27-4.918-15.836-8.463-3.276-9.01-7.644-9.01-7.644-1.092-8.464,7.1-7.918,7.1-7.918h5.461c5.734,0,5.46-5.461,5.46-5.461,0-5.461-3.822-5.461-3.822-5.461h-4.1c-6.007,0-10.375-4.915-10.375-4.915s-2.458-5.734-9.557-3.276-9.01-5.734-8.464-9.283-2.458-7.918-2.458-7.918C1275.675,1531.072,1284.685,1530.253,1289.054,1531.891Z" transform="translate(-1232.276 -1470.057)"/><path class="k" d="M1182.919,1672.772a10.637,10.637,0,0,0,3.878-2.694,4.1,4.1,0,0,0,.834-1.375,13.159,13.159,0,0,1,5.961-5.014,12.368,12.368,0,0,1,4.425-.956,3.349,3.349,0,0,1,.451.029l2.429.34,2.46.38a6.387,6.387,0,0,0,3.924-1.4,2.983,2.983,0,0,0,.886-2.445,6.761,6.761,0,0,0-.654-2.338,7.707,7.707,0,0,0-.576-1.04,6.376,6.376,0,0,0-4.32-2.149,19.45,19.45,0,0,0-8.664,1.1c-3.573,1.179-5.477,1.2-6.551.923s-1.246-.908-1.246-.908c-2.768-3.936,2.131-8.025,4.5-9.572a8.363,8.363,0,0,0,2.529-2.589c1.718-2.81.944-4.72-.529-5.876a9.4,9.4,0,0,0-4.6-1.667,7.764,7.764,0,0,1-6.012-4.186,12.51,12.51,0,0,1-.844-5.445,34.868,34.868,0,0,1,.6-5.1,19.519,19.519,0,0,1,.482-2.29,23.5,23.5,0,0,1,1.694-1.64,17.074,17.074,0,0,1,4.554-2.752,11.115,11.115,0,0,1,6.254-.708,9.675,9.675,0,0,1,6.087,4.219,8.662,8.662,0,0,1,.93,1.808,16.324,16.324,0,0,0,2.834,4.991c1.49,1.6,3.545,2.565,6.542,1.054a6.644,6.644,0,0,0,2.665-2.453,11.564,11.564,0,0,1,3.948-4.129c1.872-1.017,4.272-1.087,7.026,1.444a3.594,3.594,0,0,1,1.265,1.944c.473,1.43.543,3.837-1,7.489a26.77,26.77,0,0,0-2.324,9.15,8.61,8.61,0,0,0,1.186,5.407,12.205,12.205,0,0,0,.865,1.071,8.989,8.989,0,0,0,2.142,1.8,3.333,3.333,0,0,0,2.762.412c.948-.334,1.932-1.278,2.748-3.22l.3-2.821.266-2.86a4.184,4.184,0,0,1,.079-.522,12.4,12.4,0,0,1,1.9-4.451,8.641,8.641,0,0,1,6.844-3.8,4.006,4.006,0,0,0,1.831,0,6.264,6.264,0,0,0,3.82-2.775,12.405,12.405,0,0,1,6.482-4.62c2.617-.661,5.227.212,6.535,4.088a19.065,19.065,0,0,0,.191,2.953,10.346,10.346,0,0,0,1.849,4.928,10.35,10.35,0,0,1,2.138,6.435c-.126,2.462-1.466,4.676-5.1,5.328-3.622.672-5.335,2.469-6.176,4.041a6.441,6.441,0,0,0-.785,2.961,8.833,8.833,0,0,1-.379.948A16.676,16.676,0,0,1,1251,1656.5a14.473,14.473,0,0,1-5.669,5.122l-3.636,1.779a4.209,4.209,0,0,0-1.456,1.318,4.144,4.144,0,0,0-.1,4.23s1.522,4,6.718,1.787l4.958-2.132s7.262-3.66,9.032,3.535a4.735,4.735,0,0,1-.453,2.546c-.658,1.615-2.182,3.909-5.658,6.566-2.721,2.09-5.573,5.51-6.4,8.319a3.74,3.74,0,0,0,.49,3.639c.837.949,2.461,1.571,5.151,1.673a11.676,11.676,0,0,1,4.459,1.077,4.579,4.579,0,0,1,2.7,2.912c.726,3.446-3.406,5.329-6.625,6.542-4.586,1.746-6.333,3.837-6.15,5.905l.425,1.915.369,1.924a5.112,5.112,0,0,1-.445,2.572c-.621,1.449-2.042,3.207-5.238,4.458-3.454-.125-5.409-1.217-6.5-2.275a4.649,4.649,0,0,1-1.318-2.1l-.347-1.808-.4-1.795c-.685-1.837-3.125-2.869-7.972-2.294-3.38.389-7.893.726-8.756-1.938-.315-.982.21-2.136,1.109-3.24a13.536,13.536,0,0,1,3.311-2.861c4.483-2.756,4.289-5.167,2.005-6.659-2.273-1.51-6.427-2.138-9.8-1.812-4.312.407-6.81.077-8.234-.371a3.228,3.228,0,0,1-1.777-1.016c-2.928-4.279,4.629-7.2,4.629-7.2l4.957-2.132c5.229-2.227,3.438-5.509,3.438-5.509a3.182,3.182,0,0,0-3.077-2.1,4.822,4.822,0,0,0-1.9.422l-3.636,1.779a20.209,20.209,0,0,1-7.265,1.895,21.352,21.352,0,0,1-2.35.055c-.561-.022-.887-.055-.887-.055a5.3,5.3,0,0,0-2.562-.341c-1.622.118-3.9.859-6.673,3.115-2.778,2.238-5.113,2.6-6.754,2.246a3.627,3.627,0,0,1-2.888-2.324c-.2-.919-1.267-1.389-2.22-1.667a9.164,9.164,0,0,0-1.858-.306c-1.954-.92-1.089-2.731.652-4.549A23.487,23.487,0,0,1,1182.919,1672.772Z" transform="translate(-1174.639 -1550.257)"/><path class="l" d="M1355.477,1799.676h-45.894V1771.63a22.947,22.947,0,1,1,45.894,0Z" transform="translate(-1250.236 -1626.146)"/><g transform="translate(45.366 105.02)"><path class="m" d="M1383.382,1798.488a13.3,13.3,0,0,1,8.766-11.635c8.195-2.982,21.43.842,21.43.842s-4.675,9.067-12.33,13.243c-6.735,3.674-14.134,2.479-16.2-.283v40.527h-1.667v-42.693Z" transform="translate(-1336.944 -1751.911)"/><path class="m" d="M1373.022,1729.372c.03-5.29,3.843-14.966,14.083-18.693,13.165-4.791,34.427,1.353,34.427,1.353s-7.509,14.567-19.808,21.275c-10.82,5.9-22.706,3.983-26.025-.455v65.106h-2.679V1734.29Z" transform="translate(-1331.14 -1708.851)"/><path class="m" d="M1317.284,1767.082v27.209c-.182-.006-.365-.013-.553-.013a10.742,10.742,0,0,0-1.63.12v-24.479c-1.6,2.139-5.654,3.56-10.522,3.359a24.4,24.4,0,0,1-10.66-2.987c-10.013-5.466-16.127-17.322-16.127-17.322s16.007-4.623,26.762-1.509c.434.12.855.258,1.264.409A17.4,17.4,0,0,1,1317.284,1767.082Z" transform="translate(-1277.792 -1732.117)"/><g transform="translate(45.142 5.048)"><path class="e" d="M1380.435,1737.362s5.409-21.839,39.514-16.058C1419.949,1721.3,1393.952,1720.087,1380.435,1737.362Z" transform="translate(-1380.435 -1720.33)"/><path class="e" d="M1380.435,1746s5.406-15.093,29.142-8.648C1409.577,1737.355,1391.254,1734.7,1380.435,1746Z" transform="translate(-1380.435 -1728.971)"/></g><g transform="translate(7.75 23.129)"><path class="e" d="M1324.833,1774.124s-4.027-16.26-29.42-11.956C1295.413,1762.167,1314.769,1761.261,1324.833,1774.124Z" transform="translate(-1295.413 -1761.442)"/><path class="e" d="M1334.67,1780.557s-4.025-11.237-21.7-6.439C1312.973,1774.118,1326.615,1772.141,1334.67,1780.557Z" transform="translate(-1305.25 -1767.875)"/></g><g transform="translate(48.317 36.078)"><path class="e" d="M1387.656,1801.517s3.376-13.632,24.666-10.024C1412.322,1791.493,1396.094,1790.733,1387.656,1801.517Z" transform="translate(-1387.656 -1790.885)"/><path class="e" d="M1387.656,1806.911s3.375-9.421,18.191-5.4C1405.847,1801.512,1394.409,1799.855,1387.656,1806.911Z" transform="translate(-1387.656 -1796.279)"/></g></g><path class="n" d="M1333.39,1842.459a8.6,8.6,0,0,0-4.074-1.017h-50.423a8.653,8.653,0,0,0-4.074,1.017c-5.815,3.111-21.3,13.464-14.107,32.563a23.146,23.146,0,0,0,5.27,8.186l6.5,6.5a12.2,12.2,0,0,0,8.624,3.572H1327.1a12.2,12.2,0,0,0,8.624-3.572l6.5-6.5a22.948,22.948,0,0,0,5.27-8.186C1354.692,1855.923,1339.205,1845.57,1333.39,1842.459Z" transform="translate(-1221.81 -1678.11)"/><g transform="translate(16.375 153.437)"><path class="o" d="M1219.547,1831.936a115.748,115.748,0,0,1,7.614-12.4,1.442,1.442,0,0,1,2.33,0,115.24,115.24,0,0,1,7.617,12.4c5.093,9.588,7.675,17.754,7.675,24.271a19.882,19.882,0,0,1-8.075,16.332,24.907,24.907,0,0,1-8.019,4.082,1.521,1.521,0,0,1-.363.046,1.461,1.461,0,0,1-.357-.046,24.852,24.852,0,0,1-8.024-4.082,19.9,19.9,0,0,1-8.074-16.332C1211.872,1849.69,1214.453,1841.524,1219.547,1831.936Z" transform="translate(-1211.872 -1818.943)"/><path class="e" d="M1237.945,1892.853v6.794a.89.89,0,0,1-.109.409l-.343.679h.452v4.057h-1.876v-4.057h.453l-.343-.679a.891.891,0,0,1-.11-.409v-6.8l-8.463-9.412a.944.944,0,0,1,.069-1.326.977.977,0,0,1,1.327.071l7.067,7.858v-11.87l-6.554-7.29a.941.941,0,0,1,.07-1.325.969.969,0,0,1,1.326.071l5.158,5.735V1862.92a.938.938,0,1,1,1.876,0v12.447l5.158-5.74a.962.962,0,0,1,1.323-.072.938.938,0,0,1,.073,1.326l-6.554,7.292v11.873l7.069-7.864a.966.966,0,0,1,1.323-.069.939.939,0,0,1,.073,1.326Z" transform="translate(-1220.552 -1843.054)"/></g></g><path class="p" d="M1681.891,1276.447a.853.853,0,0,1-.281.707.874.874,0,0,1-.73.2l-.923-.169a18.538,18.538,0,0,1-5.148,4.318.251.251,0,0,1-.333-.105c-.631-1.2,3.284-4.943,3.284-4.943l-4.645-.8a.465.465,0,0,1-.369-.345.453.453,0,0,1,.176-.473c1.321-.97,4.838-.584,4.838-.584l-.771-7.006a1.24,1.24,0,0,0-.45-.824l-5.493-4.423a.578.578,0,0,0-.573-.082.563.563,0,0,0-.362.45,25.274,25.274,0,0,0,.169,7.935,1,1,0,0,1-1.852.508c-3.05-5.1-3.184-20.6-3.184-20.6l.076-.023c-5.58-7.8-21.036-29.316-27.563-38.4-1.84-2.565-2.974-4.137-2.974-4.137l2.01-13.165,11.868,4.271,9.232,21.105,12.569,28.732.094-.03,9.518,12.715a4.474,4.474,0,0,1,.894,2.4Z" transform="translate(-789.391 -562.712)"/><g transform="translate(743.483 861.774)"><path class="q" d="M1487.079,1721.518c-.543,3.442-1.793,11.856-3.324,22.234-1.292,8.747-2.776,18.891-4.208,28.638-3.009,20.632-5.755,39.477-5.755,39.477l-20.965,13.3h-6.539l2.4-5.9s8.4-4.085,12.44-9.034a11.747,11.747,0,0,0,1.969-3.524v-89.244Z" transform="translate(-1427.278 -1717.463)"/><path class="e" d="M1449.58,1932.127s5.579,8.149,5.209,17.888h-49.373a2.36,2.36,0,0,1-2.279-1.789,2.4,2.4,0,0,1,1.14-2.685c1.661-.929,4.088-1.445,7.614-.765a4.972,4.972,0,0,0,3.2-.454l9.384-4.795,1.848,3Z" transform="translate(-1403.062 -1837.72)"/></g><path class="q" d="M1604.684,1760.811l-11.172,22.175-5.61,3.354-.964-6.3s5.107-7.812,6.042-14.135a11.7,11.7,0,0,0-.123-4.032l-33.33-55.961-3.185-5.347-12.4-20.813,17.968-22.4c1.034,2.559,3.652,8.922,7.111,17.313,4.587,11.108,10.646,25.769,16.478,39.839C1595.44,1738.519,1604.684,1760.811,1604.684,1760.811Z" transform="translate(-738.502 -822.016)"/><path class="e" d="M1508.091,1358.6c-4.96,23.835,4.411,51.763,5.987,56.515.122.367,3.408,11.924,3.408,11.924,5.437,16.566-4.325,31.679-18.619,39.681-11.7,6.573-26.462,8.356-38.361,2.272-3.347-1.71-2.517-22.284-2.761-25.9-.77-11.753-1.552-23.506-2.138-35.27-1.148-23.237-1.515-46.559.318-69.747.757-9.554,13.219-106.63,9.834-107.4l38.532,13.035,17.47-2.712,11.8,22.1c8.1,19.168-4.423,45.7-4.423,45.7Z" transform="translate(-688.478 -582.988)"/><g transform="translate(831.404 938.799)"><path class="e" d="M1637.765,1892.6l-14.632,20.853-3.119-1.618-5.6,8.925a4.9,4.9,0,0,1-2.256,1.924,2.554,2.554,0,0,1-.357-.05c-3.525-.68-5.947-.166-7.606.763a2.388,2.388,0,0,0,1.136,4.471h8.294l12.591-7.531,25.19-15.055C1646.731,1896.733,1637.765,1892.6,1637.765,1892.6Z" transform="translate(-1602.978 -1892.602)"/></g><path class="e" d="M1457.874,1024.092s-10.254,21.285-11.311,46.712a74.455,74.455,0,0,0,4.808,29.6l4.948,13.071a24.012,24.012,0,0,1,1.555,8.5v6.323s1.105,13.171,51.712,0l-13.757-79.009L1485.51,1018.7Z" transform="translate(-683.913 -464.237)"/><path class="g" d="M1555.449,1127.209a14.136,14.136,0,0,1-3.01,2.412,13.353,13.353,0,0,1-5.966,1.932c-22.22,1.718-22.1-6.307-32.658-26.745-10.9-21.121,7.471-86.1,7.471-86.1,7.172,1.239,11.515,3.384,17.193,5.518l6.3,33.682.587,3.17c-1.291,9.83-10.32,32.925,5.891,48.645C1560.005,1118.212,1558.6,1123.836,1555.449,1127.209Z" transform="translate(-719.689 -464.242)"/><path class="r" d="M1574.6,1150.211c.7-4.973,3.554-6.755-9.253-17.076s-11.388-29.883-11.388-29.883l-4.974-10.31c-10.32-20.278.352-32.732.352-32.732l14.558,20.95.587,3.17c-1.291,9.83-10.32,32.924,5.891,48.645,8.751,8.485,7.343,14.109,4.195,17.482C1574.577,1150.382,1574.588,1150.3,1574.6,1150.211Z" transform="translate(-738.807 -487.49)"/><path class="p" d="M1472.251,976.128s9.213,7.6,0,12.76c0,0-.181,5.269,2.512,8.968a7.944,7.944,0,0,0,9.893,2.473c4.185-2.022,12.392-7.1,15.231-16.83,0,0-7-5.528-7.738-12.161V955.861L1472.162,975.9Z" transform="translate(-698.29 -429.033)"/><path class="g" d="M1561.471,1031.27a21.707,21.707,0,0,0-2.028,1.762c-10.061,9.709-10.1,24.453-3.369,36.705,10.295,18.728,31.219,43.757,32,46.477,0,0,2.574-9.876,13.874-8.893,0,0-7.555-19.058-14.434-35.763S1574.285,1035.459,1561.471,1031.27Z" transform="translate(-742.677 -471.278)"/><path class="s" d="M1490.061,966.759l-2.406-.653-15.493,15.533.088.229s9.213,7.6,0,12.76a19.96,19.96,0,0,0,2.048,8.1,7.939,7.939,0,0,0,6.874,4.1c-2.027-.022-3.423-3.921-3.574-5.508-.629-6.621,4.856-15.949,8.46-21.142C1490,974.5,1490.061,966.759,1490.061,966.759Z" transform="translate(-698.29 -434.772)"/><path class="p" d="M1474.37,932.593a40.646,40.646,0,0,1-19.209,11.219c-19.273,3.2-12.206-32.339-4.7-42.514,0,0,5.05-9.265,17.94,3.009,0,0,9.278,8.9,8.389,17.089Z" transform="translate(-681.813 -396.588)"/><path class="e" d="M1450.33,938.049c-1.169,3.948-4.129,6.554-6.61,5.819s-3.544-4.532-2.374-8.48,4.129-6.554,6.609-5.819S1451.5,934.1,1450.33,938.049Z" transform="translate(-680.76 -414.234)"/><path class="e" d="M1476.009,945.656c-1.169,3.948-4.129,6.554-6.61,5.819s-3.544-4.532-2.374-8.48,4.129-6.554,6.61-5.819S1477.179,941.708,1476.009,945.656Z" transform="translate(-695.146 -418.496)"/><path class="p" d="M1513.619,955.7a5.082,5.082,0,0,1,4.842-4.1c1.543-.046,2.9.426,2.8,2.261,0,0,.693,7.892-9.021,8.857Z" transform="translate(-720.74 -426.646)"/><path class="t" d="M1568.853,1328.111s12.523-26.535,4.423-45.7l-9.222-17.269c-.035.04-.068.082-.1.121a14.134,14.134,0,0,1-3.01,2.412,13.353,13.353,0,0,1-5.966,1.932,62.031,62.031,0,0,1-7.054.19c5.8,11.41,14.8,35.763,3.268,61.495-15.222,33.963-41.684,85.91-12.608,154.74,14.294-8,24.055-23.115,18.619-39.681,0,0-3.286-11.557-3.408-11.924-1.576-4.752-10.946-32.68-5.986-56.515Z" transform="translate(-728.191 -602.292)"/><g transform="translate(821.684 764.676)"><g transform="translate(0 0)"><path class="k" d="M1735,1545.513a1.017,1.017,0,0,0,.572.115c.3-.028.77-.074,1.069-.114,8.237-1.088,14.61-6.292,18.659-13.318,2.368-4.109,2.681-8.478,1.958-13.077-.674-4.286-2.477-8.5-1.9-12.9.421-3.23,2.045-6.192,2.564-9.4l.023-.141s-17.67,4.233-26.361,19.948a27.648,27.648,0,0,0-3.226,16.955C1728.946,1538.133,1730.638,1543.2,1735,1545.513Z" transform="translate(-1663.363 -1496.68)"/><path class="k" d="M1734.132,1772.336h2.247a34.308,34.308,0,0,1,.43-6.954,8.694,8.694,0,0,1,4.72-6.51,66.68,66.68,0,0,1,6.869-3.058c4.453-1.571,3.925-8.25,8.377-11.519,4.509-3.312,4.805-5.573,4.235-6.9a2.057,2.057,0,0,0-2.48-1.156,30.811,30.811,0,0,0-20.558,19.283C1736.083,1759.7,1733.892,1766,1734.132,1772.336Z" transform="translate(-1666.721 -1630.832)"/><path class="k" d="M1627.822,1668.667s-15.448-12.566-30.631-8.9c-5.824,1.406-12.845,6.647-12.889,13.152-.044,6.467,6.23,5.276,10.452,3.466,5.311-2.278,9.615-6.314,15.257-7.855a30.021,30.021,0,0,1,8.28-.975C1620.45,1667.583,1626.109,1667.273,1627.822,1668.667Z" transform="translate(-1582.795 -1587.667)"/><path class="k" d="M1580.876,1582.856c0,14.894,11.737,17.219,19.706,17.705a20.48,20.48,0,0,1,10.885,3.91c.493.352.986.712,1.486,1.071,3.382,2.452,6.834,4.9,10.2,7.468.436.317.824.648,1.2.987a12.193,12.193,0,0,1,1.141,1.036l1.057,1.12c.345.38.641.81.965,1.212l.472.613c.155.2.282.43.43.641l.845,1.3.747,1.353c.254.444.493.9.7,1.374a57.713,57.713,0,0,1,3.973,11.421,116.94,116.94,0,0,1,2.734,18.142c.084,1.107.162,2.184.226,3.234.373,6.319.345,11.611.268,15.3-.043,1.86-.106,3.312-.155,4.3h1.578c.042-.993.1-2.445.126-4.27.057-3.72.057-9.046-.359-15.423a132.3,132.3,0,0,0-2.36-18.219c-.233-1.12-.486-2.248-.768-3.382a58.71,58.71,0,0,0-4.136-11.66,14.957,14.957,0,0,0-.733-1.416l-.789-1.4-.881-1.346c-.155-.225-.3-.451-.451-.669l-.5-.642c-.345-.415-.655-.859-1.022-1.261l-1.12-1.184a16.276,16.276,0,0,0-1.219-1.092c-.416-.359-.839-.711-1.261-1.014-3.4-2.565-6.876-5-10.266-7.426s-6.714-4.833-9.814-7.3a92.263,92.263,0,0,1-8.518-7.566,55.754,55.754,0,0,1-6.489-7.834c-4.023-6.031-5.721-12.612-7.779-19.474Z" transform="translate(-1580.876 -1533.534)"/><path class="k" d="M1670.3,1718.455s5.694-15.315-5.891-22.973a33.685,33.685,0,0,0-12.763-5.695S1644.181,1713.154,1670.3,1718.455Z" transform="translate(-1619.967 -1604.861)"/><path class="k" d="M1692.006,1746.427s.148.515.367,1.417c.105.444.253.986.387,1.62s.3,1.339.472,2.114.324,1.621.507,2.508.38,1.832.529,2.812c.169.979.338,1.994.514,3.015s.31,2.079.458,3.128.288,2.093.429,3.122.211,2.057.324,3.036c.014.105.022.211.029.317.091.874.169,1.719.253,2.529.042.359.07.712.1,1.057.035.514.063,1.014.091,1.486.084,1.353.155,2.509.2,3.389h2.311c-.1-.908-.233-2.135-.387-3.586-.085-.8-.162-1.663-.317-2.572-.134-.909-.275-1.867-.43-2.86s-.281-2.015-.472-3.044-.387-2.086-.585-3.135-.373-2.1-.613-3.121-.451-2.036-.662-3.016-.458-1.909-.67-2.8-.423-1.733-.634-2.509-.409-1.472-.578-2.1-.345-1.17-.472-1.621c-.268-.9-.436-1.4-.436-1.4Z" transform="translate(-1643.132 -1636.472)"/><path class="k" d="M1689.2,1792.243s-2.253-10.358-10.64-12.741a1.069,1.069,0,0,0-1.327,1.3C1677.9,1783.354,1680.336,1788.394,1689.2,1792.243Z" transform="translate(-1634.839 -1655.097)"/><path class="k" d="M1645.247,1590.716a3.918,3.918,0,0,1,3.8,2.6c1.818,5.08,4.347,15.169,5.615,33.769.31,4.509.542,9.519.677,15.077.155,6.482.169,13.7,0,21.756V1665h4.157c.014-.81.035-1.662.056-2.543.232-11.984.2-29.943-1.592-40.42-2.72-15.8,1.782-41.85,3.839-48.494a.978.978,0,0,0-.078-.782,1.013,1.013,0,0,0-.62-.479l-.029-.007a.956.956,0,0,0-1.162.69c-1.184,4.819-6.433,26.97-5.39,35.748a97.307,97.307,0,0,0-3.755-16.669,11.093,11.093,0,0,1-.233-6.39c9.427-36.284-37.608-41.11-37.608-41.11C1611.457,1587.447,1635.666,1590.984,1645.247,1590.716Zm9.293,18.121c.008.035.008.07.015.105C1654.555,1608.943,1654.548,1608.907,1654.54,1608.837Z" transform="translate(-1598.797 -1523.492)"/><path class="k" d="M1721.964,1638a31.051,31.051,0,0,0-9.32,23.465c-.063-1.95,2.245-5.183,3.31-6.638,7.168-9.792,16.943-7.84,27.342-5.559Z" transform="translate(-1654.684 -1575.848)"/><path class="k" d="M1730.238,1738.647a.946.946,0,0,0-1.048-1.065c-3.3.39-12.579,2.687-15.572,16.153C1713.618,1753.734,1727.717,1757.511,1730.238,1738.647Z" transform="translate(-1655.239 -1631.632)"/><path class="k" d="M1725.24,1701.561s-10.21,4.189-10.21,14.138C1715.03,1715.7,1722.884,1718.055,1725.24,1701.561Z" transform="translate(-1656.03 -1611.456)"/><path class="k" d="M1778.18,1675.325s-26.826-5.65-30.631,17.541c0,0,9.587,4.565,18.85,0C1775.588,1688.336,1778.18,1675.325,1778.18,1675.325Z" transform="translate(-1674.248 -1596.419)"/><path class="k" d="M1740.371,1705.1l-.252.127c-.172.086-.4.219-.7.389a26.738,26.738,0,0,0-2.329,1.579c-.452.364-.96.74-1.454,1.186s-1.027.906-1.542,1.419c-.536.494-1.028,1.062-1.557,1.614-.511.568-1,1.168-1.5,1.763-.465.62-.948,1.23-1.392,1.854-.425.634-.856,1.253-1.252,1.864l-1.08,1.8c-.336.578-.612,1.146-.888,1.66s-.528.988-.713,1.424l-.509,1.117-.443.975,1.967.767.373-.956.427-1.1c.154-.43.375-.893.607-1.4s.472-1.069.763-1.641l.94-1.789,1.1-1.858c.392-.623.824-1.233,1.239-1.858.449-.6.89-1.2,1.352-1.778.479-.559.924-1.136,1.414-1.64.469-.523.945-1.008,1.411-1.453s.923-.847,1.34-1.224a25.734,25.734,0,0,1,2.155-1.645c.273-.176.49-.318.633-.4l.23-.133Z" transform="translate(-1661.48 -1613.44)"/><path class="k" d="M1789.621,1631.175s-20.42-33.511-55.763-6.545C1733.858,1624.63,1758.467,1648.192,1789.621,1631.175Z" transform="translate(-1666.578 -1562.479)"/><path class="k" d="M1716.789,1692.279h6.158c-4.784-50.3,7.855-98.094,7.855-98.094l-1.346-.944c-7.207,28.83-9.237,64.149-9.793,84.412a48.609,48.609,0,0,1-.733,7.151,43.014,43.014,0,0,1-1.155,4.932A16.278,16.278,0,0,1,1716.789,1692.279Z" transform="translate(-1657.016 -1550.774)"/><path class="u" d="M1696.077,1685.011c3.268.608,6.473,1.459,9.747,1.9-2.961-1.615-6.131-3.227-9.266-4.677q.274-1.428.608-2.89a102.605,102.605,0,0,0,13.642,4.645c-4.2-3.063-8.246-6.274-12.44-9.291.807-2.811,1.77-5.678,2.884-8.556a27.628,27.628,0,0,0,3.884.487c-1.116-.686-2.188-1.373-3.261-2.06q.47-1.159.971-2.318a47.054,47.054,0,0,0,7.79,3,35,35,0,0,1-6.036-6.847,102.771,102.771,0,0,1,8.3-14.263v-.375c.044.062.086.125.129.188.044-.062.086-.126.129-.188v.374q2.246,3.217,4.23,6.607c-1.013,2.041-2.05,4.09-3.146,6.081,1.381-1.381,2.763-2.852,4.211-4.216,1.392,2.493,2.675,5.03,3.843,7.582a43.78,43.78,0,0,1-4.1,6.431c1.828-1.266,3.427-2.762,5.172-4.017q.5,1.166.969,2.332c-2.764,3.082-5.974,5.8-8.547,9.076a107.122,107.122,0,0,1,9.709-6.048,94.413,94.413,0,0,1,3.7,12.758c-2.735,2.821-5.76,5.354-8.428,8.243,3.112-1.333,6.1-2.922,9.172-4.215.175,1.118.322,2.219.436,3.294-4.95,3-10,5.69-14.592,9.172l14.893-4.311a31.414,31.414,0,0,1-1.165,9.631c-4.011,1.981-7.719,4.6-11.837,6.2,3.5-.567,6.836-1.7,10.22-2.558a11.389,11.389,0,0,1-.837,1.179c-4.58,5.632-9.806,6.715-12.4,6.877v6.35h-3.564v-6.371c-2.677-.225-7.692-1.427-12.106-6.855a16.868,16.868,0,0,1-3.177-7.925,50.149,50.149,0,0,0,11.548,2.944c-4.107-2.416-7.961-5.171-11.977-7.61A55.156,55.156,0,0,1,1696.077,1685.011Z" transform="translate(-1645.021 -1579.079)"/><g transform="translate(52.127 95.802)"><path class="v" d="M1743.258,1723.8a52.181,52.181,0,0,0,.25,9.487c.624,3.745,1.311,4.619.811,9.55s-2.5,16.353-2.622,16.79-1-18.538-1-18.538a9.417,9.417,0,0,0,.625-3.745C1741.323,1734.913,1741.136,1727.8,1743.258,1723.8Z" transform="translate(-1722.537 -1719.718)"/><path class="w" d="M1746.639,1789.616h4.345a8.127,8.127,0,0,0,1.655-3.857,9.873,9.873,0,0,1,.75-2.871l1-2.819.062-.177a14.379,14.379,0,0,0,1.06-5.616c-.058-5.333,1.2-7.089,1.358-7.284a13.882,13.882,0,0,0-3.229,7.1,21,21,0,0,1-1.374,3.931l-1.1,2.271Z" transform="translate(-1725.865 -1743.913)"/><path class="x" d="M1753.36,1803.9h2.715a5.292,5.292,0,0,0,.766-3.483c-.062-2.246.749-2.058,1.312-2.745s.811-.188,1.06-1.873,2.372-3.308,2.372-3.308a6.778,6.778,0,0,0-3.432,1.862C1755.288,1797.084,1753.852,1801.92,1753.36,1803.9Z" transform="translate(-1729.63 -1758.199)"/><path class="v" d="M1754.648,1757.3s.938-16.537,1.278-19.7c0,0-3.375,10.126-3.262,19.51Z" transform="translate(-1729.238 -1727.448)"/><path class="y" d="M1745.453,1753.646a36.791,36.791,0,0,0,0-10.86l.437-3.963s-.062-4.494-.312-8.676a37.379,37.379,0,0,1-.062-7.053s-1.81,2.808-2.06,8.8-.062,6.491-.749,9.237a49.311,49.311,0,0,0-1.81,11.672l-.749,3.995s-1.373,4.869-.687,8.176Z" transform="translate(-1721.736 -1719.321)"/><path class="z" d="M1738.405,1779.95h5.128c1.223-2.2,2.917-5.772,3-8.788.005-.184.012-.363.021-.538a13.765,13.765,0,0,1,1.4-5.722,8.342,8.342,0,0,0,.874-2.624,10.742,10.742,0,0,0,.078-2.787c-.281-2.528,0-7.864.749-9.455.556-1.179-1.3,1.237-2.458,5.5-.011.039-.021.078-.03.117a24.036,24.036,0,0,0-.788,5.237,4.53,4.53,0,0,1-.749,2.347c-.08.115-.175.276-.281.469l-.136.255c-.672,1.3-1.679,3.647-2.3,5.134a20.362,20.362,0,0,1-1.194,2.4c-.181.31-.39.678-.613,1.09-.193.354-.395.741-.6,1.154-.041.081-.081.164-.122.249a27.144,27.144,0,0,0-1.244,2.931c-.129.366-.246.735-.347,1.1A11.048,11.048,0,0,0,1738.405,1779.95Z" transform="translate(-1721.252 -1734.247)"/><path class="x" d="M1699.4,1797.715s3.681-.811,4.43.687,1.25.375,2,3.683c.551,2.432.528,2.906,1.271,3.857h3.283l-3.494-8.227a5.479,5.479,0,0,0-1.048-.984,3.968,3.968,0,0,0-.669-.388,2.4,2.4,0,0,0-1.8-.065Z" transform="translate(-1699.402 -1760.238)"/><path class="w" d="M1708.519,1773.157c-.064,1.685-.064,4.306.873,5.492a6.663,6.663,0,0,1,.824,1.574,23.152,23.152,0,0,1,.861,2.733,33.613,33.613,0,0,0,1.931,6.478h3.126l-2-8.6a8.487,8.487,0,0,1-3.432-6.117c-.614-5.775-3.407-7.983-3.494-8.05C1708.206,1768.227,1708.581,1771.47,1708.519,1773.157Z" transform="translate(-1703.776 -1743.73)"/><path class="y" d="M1732.872,1739.228c-.393,4.813.644,16.305,1.1,20.99h3.891v-12.939c-.014-1.524-.108-3.02-.255-4.459a70.335,70.335,0,0,0-1.223-7.512c-.428-2.02-.844-3.7-1.081-4.881-.623-3.121.313-3.746-.062-8.551a17.949,17.949,0,0,0-1.933-7.361,11.073,11.073,0,0,1,0,5.926c-.875,3.5-.089,5.31-.561,7.99-.427,2.416.492,4.412.2,9.682C1732.929,1738.468,1732.9,1738.84,1732.872,1739.228Z" transform="translate(-1718.018 -1714.515)"/><path class="w" d="M1724.716,1748.373c1.186,2.246.936,3.182.936,3.182-.028.476-.051.947-.065,1.414-.022.644-.03,1.279-.03,1.9a63.493,63.493,0,0,0,.852,10.154h5.1c-.051-.263-.1-.536-.14-.819-.1-.676-.184-1.411-.251-2.214q-.077-.908-.131-1.94c-.108-1.933-.177-4.212-.274-6.935-.244-6.834-1.443-6.093-2.545-10.2-.027-.094-.051-.19-.076-.288a36.734,36.734,0,0,1-1.124-8.114c.5-7.054-1.747-11.422-1.747-11.422.25,2.122.376,3.183-.187,7.8a41.423,41.423,0,0,0-.435,6.616l.207,2.9a9.947,9.947,0,0,1-.262,3.049c-.011.043-.021.083-.03.124C1724.047,1745.456,1723.785,1746.606,1724.716,1748.373Z" transform="translate(-1713.232 -1719.322)"/><path class="x" d="M1719.411,1757.155s2.184,2.559,2.933,7.864l1.311,6.366-.624,2.683-2.622-3.246S1720.784,1760.026,1719.411,1757.155Z" transform="translate(-1710.611 -1738.402)"/><path class="z" d="M1712.315,1755.407a20.385,20.385,0,0,0,.726,6.459c.5,1.683,1.436,1.374,1.873,6.241a.028.028,0,0,0,0,.012c.435,4.857,1.184,5.917,1.184,5.917l1.567,3.669h2.386l-.708-4.606c-.446-2.812-.627-4.738-1.021-6.4-.087-.361-.181-.708-.292-1.049a11.758,11.758,0,0,0-1.37-2.85,12.8,12.8,0,0,1-1.142-2.005c-.446-1.115-.236-1.912-.793-5.609-.359-2.372-2.744-7.454-4.124-9.456C1711.163,1748.072,1712.351,1753.024,1712.315,1755.407Z" transform="translate(-1705.676 -1732.002)"/></g><path class="k" d="M1730.313,1596.087s-9.228-1.943-10.536,6.034a8.1,8.1,0,0,0,6.484,0C1729.421,1600.563,1730.313,1596.087,1730.313,1596.087Z" transform="translate(-1658.689 -1552.252)"/><path class="k" d="M1717.679,1584.77s-5.941,6.39-.24,11.231a7.49,7.49,0,0,0,3.092-5.141C1720.8,1587.611,1717.679,1584.77,1717.679,1584.77Z" transform="translate(-1655.995 -1546.029)"/></g><g transform="translate(37.123 138.096)"><g transform="translate(4.423 8.923)"><path class="k" d="M1724.639,1830.974l-12.324,56.447h-24.648l-12.324-56.447Z" transform="translate(-1675.344 -1830.974)"/><path class="aa" d="M1717.805,1830.974l12.324,56.447h5.974l12.324-56.447Z" transform="translate(-1699.131 -1830.974)"/></g><rect class="k" width="58.141" height="10.129"/><rect class="ab" width="10.506" height="10.129" transform="translate(39.759)"/></g></g><g transform="translate(275.123 190.017)"><path class="ac" d="M377.539,218.042l.135.693-6.659,2.257-15.522,4.65L338.1,190.017Z" transform="translate(-338.102 -190.017)"/><path class="ad" d="M384.758,216.332l-.616.209L338.1,190.017l64.624,19.253-18.533,7.285,0,.014-.047-.028Z" transform="translate(-338.102 -190.017)"/><path class="ae" d="M421.668,265.938l-8.728-8.363,6.659-2.257Z" transform="translate(-380.027 -226.599)"/><path class="af" d="M384.142,216.541l.047.028-4.446,12.787-2.069-10.62-.135-.693L338.1,190.017Z" transform="translate(-338.102 -190.017)"/></g><g transform="translate(275.472 405.238)"><path class="e" d="M395.267,1020.028l2.864,8.461,8.932.109-7.162,5.338,2.656,8.528-7.29-5.162-7.29,5.162,2.656-8.528-7.162-5.338,8.932-.109Z" transform="translate(-363.867 -870.217)"/><g transform="translate(0.066)"><rect class="ag" width="54.834" height="54.834" transform="translate(3.917 3.917)"/><path class="ah" d="M339.045,679.388v62.667h62.668V679.388ZM397.8,738.139H342.962V683.3H397.8Z" transform="translate(-339.045 -679.388)"/></g><g transform="translate(0 86.811)"><path class="e" d="M399.143,948.169a3.263,3.263,0,0,1-3.609-1.344c-3.135-4.748-12.2-9.074-24.308-9.074-12.079,0-21.136,4.309-24.289,9.046a3.328,3.328,0,0,1-3.671,1.36l-.031-.009a3.1,3.1,0,0,1-1.763-4.656c4.642-7.208,16.306-12.13,29.754-12.13,13.408,0,25.042,4.892,29.712,12.066a3.141,3.141,0,0,1-1.78,4.737Z" transform="translate(-340.063 -907.357)"/><circle class="e" cx="7.681" cy="7.681" r="7.681"/><circle class="e" cx="7.681" cy="7.681" r="7.681" transform="translate(47.437)"/></g></g><g transform="translate(551.557 555.048)"><path class="ai" d="M978.455,1020.028l2.864,8.461,8.932.109-7.162,5.338,2.656,8.528-7.29-5.162-7.29,5.162,2.656-8.528-7.162-5.338,8.932-.109Z" transform="translate(-966.659 -1020.028)"/><path class="ai" d="M1046.139,1020.028l2.864,8.461,8.932.109-7.162,5.338,2.656,8.528-7.29-5.162-7.29,5.162,2.656-8.528-7.162-5.338,8.932-.109Z" transform="translate(-1004.577 -1020.028)"/><path class="ai" d="M1113.824,1020.028l2.864,8.461,8.932.109-7.162,5.338,2.656,8.528-7.29-5.162-7.29,5.162,2.656-8.528-7.162-5.338,8.932-.109Z" transform="translate(-1042.494 -1020.028)"/><path class="ai" d="M1181.508,1020.028l2.864,8.461,8.932.109-7.162,5.338,2.656,8.528-7.29-5.162-7.29,5.162,2.656-8.528-7.162-5.338,8.932-.109Z" transform="translate(-1080.411 -1020.028)"/><path class="ai" d="M1249.193,1020.028l2.864,8.461,8.932.109-7.162,5.338,2.656,8.528-7.29-5.162-7.29,5.162,2.656-8.528-7.162-5.338,8.932-.109Z" transform="translate(-1118.329 -1020.028)"/></g><g transform="translate(591.553 405.238)"><rect class="ag" width="54.834" height="54.834" transform="translate(3.917 3.917)"/><path class="ah" d="M1057.6,679.388v62.667h62.667V679.388Zm58.75,58.751h-54.834V683.3h54.834Z" transform="translate(-1057.603 -679.388)"/></g><g transform="translate(589.132 489.694)"><path class="e" d="M1061.871,931.486a3.264,3.264,0,0,1,3.609,1.344c3.135,4.748,12.2,9.074,24.307,9.074s21.151-4.316,24.3-9.057a3.3,3.3,0,0,1,3.645-1.354l.016,0a3.121,3.121,0,0,1,1.772,4.7c-4.657,7.189-16.3,12.094-29.73,12.094-13.408,0-25.042-4.892-29.712-12.065a3.141,3.141,0,0,1,1.78-4.737Z" transform="translate(-1056.282 -905.003)"/><circle class="e" cx="7.681" cy="7.681" r="7.681" transform="matrix(0.924, -0.383, 0.383, 0.924, 0, 5.879)"/><circle class="e" cx="7.681" cy="7.681" r="7.681" transform="matrix(0.23, -0.973, 0.973, 0.23, 48.233, 15.747)"/></g><g transform="translate(423.105 405.238)"><g transform="translate(0 149.81)"><path class="e" d="M686.38,1020.028l2.864,8.461,8.932.109-7.162,5.338,2.656,8.528-7.29-5.162-7.29,5.162,2.656-8.528-7.162-5.338,8.932-.109Z" transform="translate(-674.585 -1020.028)"/><path class="e" d="M754.065,1020.028l2.864,8.461,8.932.109-7.162,5.338,2.656,8.528-7.29-5.162-7.29,5.162,2.656-8.528-7.162-5.338,8.932-.109Z" transform="translate(-712.502 -1020.028)"/><path class="e" d="M821.75,1020.028l2.864,8.461,8.932.109-7.162,5.338,2.656,8.528-7.29-5.162-7.29,5.162,2.656-8.528-7.162-5.338,8.932-.109Z" transform="translate(-750.42 -1020.028)"/></g><g transform="translate(10.229)"><rect class="ag" width="54.834" height="54.834" transform="translate(3.917 3.917)"/><path class="ah" d="M697.844,679.388v62.667h62.667V679.388Zm58.75,58.751H701.76V683.3h54.834Z" transform="translate(-697.844 -679.388)"/></g><g transform="translate(10.163 86.811)"><circle class="e" cx="7.681" cy="7.681" r="7.681"/><circle class="e" cx="7.681" cy="7.681" r="7.681" transform="translate(47.437)"/><path class="e" d="M760.493,945.855a3.194,3.194,0,0,1-3.194,3.194H700.888a3.194,3.194,0,0,1,0-6.388H757.3A3.194,3.194,0,0,1,760.493,945.855Z" transform="translate(-697.694 -913.687)"/></g></g><path class="q" d="M1221.038,767.657l5.4,8.654a14.131,14.131,0,0,0,7.572,4.569l5.6.155-2.988-16.6-5.222-7.05Z" transform="translate(-557.608 -317.842)"/><path class="ai" d="M1173.2,765.605l-20.807-21.963,8.53-8.081,13.062,13.788,35.215-30.63,7.711,8.866Z" transform="translate(-519.152 -296.184)"/><g transform="translate(661.592 435.156)"><path class="q" d="M1216.884,769.276c-.217.977,1.028,2.717,1.813,4.16s3.493.1,3.455-1.067a9.584,9.584,0,0,0-2-4.262A2.122,2.122,0,0,0,1216.884,769.276Z" transform="translate(-1216.859 -758.776)"/><path class="q" d="M1223.867,760.787c-1.135.145-1.907,1.772-1.2,3.213.616,1.257,1.651,3.552,3,4.025,1.552.546,2.346.022,2.413-1.7S1226.247,760.484,1223.867,760.787Z" transform="translate(-1219.961 -754.898)"/><path class="q" d="M1228.184,753.421c-.652.67-.293,2.07.318,3.993s1.783,4.034,3.077,4.194,2.717-.94,1.436-3.455a24.276,24.276,0,0,1-1.865-5.361A2.913,2.913,0,0,0,1228.184,753.421Z" transform="translate(-1223.009 -750.336)"/><path class="q" d="M1234.757,748.086c-.828.687-.468,2.313.143,4.235s1.783,4.034,3.077,4.193,2.922,0,2.432-2.78a12.532,12.532,0,0,0-2.331-5.364A2.109,2.109,0,0,0,1234.757,748.086Z" transform="translate(-1226.615 -747.417)"/></g><path class="q" d="M1257.217,774.531l-3.688-11.674s-2.077-.526-2.26,2.761a3.024,3.024,0,0,0,.027.6l1.013,7.016s-3.87,5.543.8,9.09l3.177,1.761Z" transform="translate(-574.283 -320.893)"/><path class="q" d="M1283.375,850.532c-5.411,7.21-11.839,8.361-16.268,8.069l-8.823-25.944-9.817-28.877,6.924-2.256,24.507,42.925Z" transform="translate(-572.974 -342.572)"/><path class="aj" d="M1295.879,890.189c-5.411,7.21-11.839,8.361-16.268,8.069l-8.823-25.944c5.82,8.128,14,16.192,21.614,11.792Z" transform="translate(-585.478 -382.229)"/><path class="aj" d="M1505.169,1777.239c-1.292,8.747-2.776,18.891-4.208,28.638-3.144-13.381-11.534-19.937-16.449-22.719v-5.288A40.844,40.844,0,0,0,1505.169,1777.239Z" transform="translate(-705.209 -889.176)"/><path class="aj" d="M1601.295,1736.562c-9.647-11.459-20.58-10.208-25.973-8.6l-3.185-5.347c7.795-6.667,12.943-15.783,12.68-25.9C1589.4,1707.831,1595.463,1722.492,1601.295,1736.562Z" transform="translate(-754.297 -844.07)"/><path class="s" d="M1648.66,1204.108h0c-11.3-.983-13.874,8.894-13.874,8.894v0s1.134,1.572,2.974,4.137c3.9-.561,9.595-4.009,20.136,8.075Z" transform="translate(-789.391 -568.064)"/><path class="ak" d="M1507.953,923.922c.438-1.477.892-3.012,1.346-4.544l-.569-9.352s-.415.768-1.013,2.06l-8.586-6.295-2.5.929s2.976,3.108,2.843,9.19c-.082,3.782,2.751,4.985,4.906,5.354-1.194,4.631-1.674,9.782.345,13.557l1.789-6.039a4.3,4.3,0,0,1,4.243-2.779Z" transform="translate(-711.997 -400.984)"/><path class="e" d="M1478.526,949.037h-17.318l-10.934-3.387a1.1,1.1,0,1,1,.651-2.1l10.616,3.289h16.986a1.1,1.1,0,1,1,0,2.2Z" transform="translate(-685.594 -422.108)"/><path class="al" d="M1516.693,943.125h0c-.413-.172-.831-.334-1.262-.475h0v0c-2.362-.888-4.49-1.777-6.689-2.6a21.855,21.855,0,0,0-2.366-7.327,39.843,39.843,0,0,1-4.345-17.187,56.624,56.624,0,0,1,1.293-13.8c1.293-6.131,1.878-10.524-3.633-14.632-3.971-2.964-9.482-4.169-14.35-4.512-5.445-.378-11.9-.506-16.132-3.91a25.66,25.66,0,0,1,6.03-3.58c.418-.176.823-.334,1.223-.484,6.817-2.5,11.786-1.2,11.786-1.2,9.948,1.447,18.573,6.518,21.8,16.312.145.444.277.884.392,1.319h0a21.65,21.65,0,0,1,.567,2.911c.062.475.1.945.132,1.416a29.386,29.386,0,0,1-.642,7.56c-.066.325-.136.646-.207.972-.128.585-.264,1.165-.4,1.746-.026.1-.048.2-.075.3-.141.585-.29,1.17-.44,1.759a51,51,0,0,0-2.028,11.747c-.163,8,4.539,16.026,8.637,22.5.189.3.374.594.55.884Z" transform="translate(-696.63 -382.658)"/></g></g></svg>