<svg xmlns="http://www.w3.org/2000/svg" width="90" height="45.403" viewBox="0 0 90 45.403"><defs><style>.a{fill:#fff;}</style></defs><g transform="translate(-0.256 -1.811)"><path class="a" d="M57.549,17.425v6.213H53.265V5.927H60.2a6.738,6.738,0,0,1,4.81,1.566,5.537,5.537,0,0,1,1.653,4.221,5.815,5.815,0,0,1-.739,2.943,5.124,5.124,0,0,1-2.192,2.029,7.722,7.722,0,0,1-3.532.739Zm2.179-3.432q2.58,0,2.58-2.28,0-2.33-2.58-2.33H57.549v4.609ZM73.055,5.1V23.638H68.772V5.1ZM89.914,9.659V23.638H85.606v-2.53a4.644,4.644,0,0,1-1.791,1.954,5.206,5.206,0,0,1-2.768.726,4.839,4.839,0,0,1-3.82-1.6,6.431,6.431,0,0,1-1.415-4.409V9.659h4.259v7.59a3.119,3.119,0,0,0,.739,2.217,2.6,2.6,0,0,0,1.992.789,2.637,2.637,0,0,0,2.054-.827,3.38,3.38,0,0,0,.752-2.355V9.659Zm8.041-.175a6.414,6.414,0,0,1,4.246,1.328,5.769,5.769,0,0,1,1.992,3.507h-4.008a2.22,2.22,0,0,0-.789-1.34,2.4,2.4,0,0,0-1.541-.488,1.684,1.684,0,0,0-1.1.313,1.093,1.093,0,0,0-.376.889,1.043,1.043,0,0,0,.689.977,10.985,10.985,0,0,0,2.167.651,21.518,21.518,0,0,1,2.63.764,4.339,4.339,0,0,1,1.779,1.265,3.5,3.5,0,0,1,.752,2.355,3.611,3.611,0,0,1-.651,2.129,4.288,4.288,0,0,1-1.879,1.453,7.342,7.342,0,0,1-2.906.526,7.483,7.483,0,0,1-4.534-1.253,5.285,5.285,0,0,1-2.079-3.582h4.133a1.86,1.86,0,0,0,.764,1.378,2.877,2.877,0,0,0,1.716.476,1.6,1.6,0,0,0,1.1-.338,1.139,1.139,0,0,0,.376-.889,1.069,1.069,0,0,0-.689-1.04A12.666,12.666,0,0,0,97.5,17.9a17.928,17.928,0,0,1-2.555-.7,4.218,4.218,0,0,1-1.729-1.215,3.385,3.385,0,0,1-.726-2.292,3.741,3.741,0,0,1,1.428-3.044A6.222,6.222,0,0,1,97.956,9.484Z" transform="translate(-15.068 23.4)"/><path class="a" d="M409.088,306.573" transform="translate(-334.087 -273.69)"/><g transform="translate(61.866 1.811)"><g transform="translate(0 14.301)"><path class="a" d="M356.549,256.234s3.8-.851,5.72.834a12.048,12.048,0,0,1,1.737,5.869v.053c.088,1.623.017,2.921.017,2.921h-5.185s.93-4.3-.29-7.317A4.405,4.405,0,0,0,356.549,256.234Z" transform="translate(-351.434 -253.05)"/><path class="a" d="M330.409,246.564v-5.518s6.621-1.525,10.835,3.816a10.526,10.526,0,0,1,1.737,5.869v.053a8.719,8.719,0,0,0-5.457-4.4A13.077,13.077,0,0,0,330.409,246.564Z" transform="translate(-330.409 -240.845)"/></g><g transform="translate(15.774 0)"><path class="a" d="M418.527,177.435s-3.8.851-5.72-.833a12.048,12.048,0,0,1-1.737-5.869v-.053c-.088-1.623-.018-2.921-.018-2.921h5.185s-.93,4.3.289,7.317A4.4,4.4,0,0,0,418.527,177.435Z" transform="translate(-411.026 -167.758)"/><path class="a" d="M423.824,186.909v5.518s-6.621,1.524-10.835-3.816a10.529,10.529,0,0,1-1.737-5.869v-.053a8.718,8.718,0,0,0,5.457,4.4A13.075,13.075,0,0,0,423.824,186.909Z" transform="translate(-411.208 -179.768)"/></g><g transform="translate(15.28 14.835)"><path class="a" d="M434.512,243.581v5.453s-4.17-1.315-7.162-.587c-.219.053-.427.49-.629.56-1.009.36-1.369,1.342-1.886,2.316,0,0-.851-3.8.833-5.72a12,12,0,0,1,5.869-1.983h.053c.237-.017.456-.026.676-.035a1.29,1.29,0,0,1,.184-.009Z" transform="translate(-421.466 -243.577)"/><path class="a" d="M419.308,243.577l-.009.009a9.837,9.837,0,0,0-4.9,5.238c-.061.167-.114.333-.167.5a14.405,14.405,0,0,0-.1,6.58h-5.518s-.009-.044-.018-.14a14.225,14.225,0,0,1,.825-6.729l.053-.132a8.242,8.242,0,0,1,.57-1.105,7.8,7.8,0,0,1,.807-1.123,7.971,7.971,0,0,1,1.649-1.439,10.118,10.118,0,0,1,1.623-.869c.017-.009.035-.009.053-.017A14.632,14.632,0,0,1,419.308,243.577Z" transform="translate(-408.499 -243.577)"/></g><g transform="translate(0.064 0)"><path class="a" d="M330.738,198.905v-5.453s4.17,1.315,7.162.587c.219-.053.427-.49.629-.56,1.009-.36,1.368-1.342,1.886-2.316,0,0,.851,3.8-.834,5.72a11.994,11.994,0,0,1-5.869,1.983h-.053c-.237.017-.456.026-.675.035a1.293,1.293,0,0,1-.184.009Z" transform="translate(-330.738 -186.583)"/><path class="a" d="M342.172,180.084l.009-.009a9.838,9.838,0,0,0,4.9-5.238c.061-.167.114-.333.167-.5a14.409,14.409,0,0,0,.1-6.58h5.518s.009.044.018.14a14.222,14.222,0,0,1-.825,6.729l-.053.132a8.237,8.237,0,0,1-.57,1.105,7.815,7.815,0,0,1-.807,1.123,7.973,7.973,0,0,1-1.649,1.439,10.122,10.122,0,0,1-1.623.869c-.018.009-.035.009-.053.017A14.634,14.634,0,0,1,342.172,180.084Z" transform="translate(-339.935 -167.758)"/></g></g><path class="a" d="M4.447-23.515,8.41-11.331l3.962-12.185h4.191L10.929-7.323H5.867L.256-23.515ZM17.709-23.7a1.912,1.912,0,0,1,.641-1.477,2.42,2.42,0,0,1,1.695-.584,2.42,2.42,0,0,1,1.695.584,1.912,1.912,0,0,1,.641,1.477,1.887,1.887,0,0,1-.641,1.454,2.42,2.42,0,0,1-1.695.584,2.42,2.42,0,0,1-1.695-.584A1.887,1.887,0,0,1,17.709-23.7Zm4.283,3.6v12.78H18.075V-20.1Zm14.842,6.047A5.4,5.4,0,0,1,36.719-13H27.855a2.962,2.962,0,0,0,.733,2.073,2.364,2.364,0,0,0,1.695.63,2.316,2.316,0,0,0,1.443-.435,2.032,2.032,0,0,0,.756-1.122h4.146a5.417,5.417,0,0,1-1.1,2.416,5.859,5.859,0,0,1-2.153,1.672,6.817,6.817,0,0,1-2.909.607,6.869,6.869,0,0,1-3.332-.79,5.646,5.646,0,0,1-2.279-2.279,7.071,7.071,0,0,1-.825-3.481,7.135,7.135,0,0,1,.813-3.493,5.572,5.572,0,0,1,2.279-2.267,6.935,6.935,0,0,1,3.344-.79,6.933,6.933,0,0,1,3.344.779A5.5,5.5,0,0,1,36.043-17.3,6.511,6.511,0,0,1,36.833-14.056Zm-3.962-.6a2.355,2.355,0,0,0-.676-1.89,2.487,2.487,0,0,0-1.729-.63,2.565,2.565,0,0,0-1.786.641,2.685,2.685,0,0,0-.8,1.878ZM57.561-20.1,54.286-7.323H49.911L47.6-15.889,45.262-7.323H40.887L37.612-20.1h3.917L43.223-10.9,45.605-20.1h4.168l2.451,9.23,1.695-9.23Z" transform="translate(0 32.172)"/></g></svg>