<svg xmlns="http://www.w3.org/2000/svg" width="89" height="93" viewBox="0 0 89 93"><defs><style>.a,.m,.p,.q,.s,.u{isolation:isolate;}.b{fill:#9e2e3b;}.c{fill:#b3b3b3;}.d{fill:#ff4555;}.e{fill:#fff;}.f{fill:#dce1cb;}.g{fill:#999;}.h{fill:#f2f2f2;}.i{fill:#60c1d2;}.j{fill:#0b1017;}.k{fill:#201c3d;}.l,.m{fill:#2d2856;}.m,.q,.u{opacity:0.5;}.m,.p,.q,.s,.u{mix-blend-mode:multiply;}.n,.q{fill:#ffae80;}.o{fill:#c8e6e2;}.p{fill:#d6eeeb;}.r{fill:#291933;}.s,.t,.u{fill:#a263c7;}</style></defs><g transform="translate(-32.937 -324.714)"><g transform="translate(32.937 324.714)"><g transform="translate(23.692 5.611)"><g class="a"><path class="b" d="M78.873,391.215a1.044,1.044,0,0,0-1.051-.1l-16.245,9.441a1.042,1.042,0,0,1,1.051.1l15.8,9.121,16.246-9.44Z" transform="translate(-61.141 -340.768)"/><g transform="translate(3.802)"><path class="c" d="M65.572,340.856l16.245-9.44a.449.449,0,0,1,.448.043L66.019,340.9A.45.45,0,0,0,65.572,340.856Z" transform="translate(-65.572 -331.374)"/></g><g transform="translate(4.25 0.085)"><path class="d" d="M66.1,340.916l16.246-9.441a1.215,1.215,0,0,1,.423.448,76.137,76.137,0,0,1,4.806,9.931c.926,2.3,1.756,4.635,2.5,6.989a120.985,120.985,0,0,1,3.149,12.214c.484,2.308.891,4.575,1.242,6.785.633,3.99,1.083,7.794,1.4,11.262.215,2.326.371,4.508.483,6.487.233,3.894.3,7.035.343,9.064L80.451,404.1c-.039-2.03-.11-5.17-.343-9.065-.112-1.979-.268-4.16-.483-6.486-.322-3.468-.772-7.272-1.405-11.262-.351-2.209-.757-4.476-1.241-6.784a120.944,120.944,0,0,0-3.149-12.214c-.741-2.355-1.571-4.693-2.5-6.988a76.349,76.349,0,0,0-4.806-9.931A1.216,1.216,0,0,0,66.1,340.916Z" transform="translate(-66.103 -331.475)"/></g><g transform="translate(0 9.441)"><path class="e" d="M65.308,342.665a1.216,1.216,0,0,1,.424.448,76.349,76.349,0,0,1,4.806,9.931c.926,2.3,1.756,4.634,2.5,6.988a120.948,120.948,0,0,1,3.149,12.214c.484,2.308.89,4.575,1.241,6.784.634,3.991,1.083,7.795,1.405,11.262.215,2.326.371,4.507.483,6.486.233,3.895.3,7.036.343,9.065l-18.6-10.737,0-1.23c0-.943.667-1.322,1.484-.85l15.8,9.121q-.1-3.082-.278-6-.206-3.359-.5-6.486c-.365-3.95-.833-7.637-1.38-11.1-.373-2.366-.79-4.631-1.238-6.786a119.274,119.274,0,0,0-3.069-11.863q-1.206-3.808-2.508-7a75.353,75.353,0,0,0-3.469-7.443c-.371-.688-.719-1.308-1.041-1.868a1.221,1.221,0,0,1-.179-.6C64.687,342.59,64.993,342.482,65.308,342.665Z" transform="translate(-61.059 -342.579)"/></g></g><g transform="translate(11.788 11.46)"><path class="f" d="M75.051,352.057l12.184-7.081,1.6.15-12.184,7.081Z" transform="translate(-75.051 -344.977)"/></g><g transform="translate(11.788 18.541)"><path class="b" d="M76.647,353.531l2.069,6.95-1.168-.111c-.741-2.355-1.571-4.693-2.5-6.988Z" transform="translate(-75.051 -353.381)"/></g><g transform="translate(17.291 29.882)"><path class="g" d="M81.582,373.923l12.184-7.081,1.528.569L83.11,374.492Z" transform="translate(-81.582 -366.843)"/><path class="f" d="M81.582,373.923l12.184-7.081,1.528.569L83.11,374.492Z" transform="translate(-81.582 -366.843)"/></g><g transform="translate(17.29 36.963)"><path class="b" d="M83.11,375.816l.935,6.667-1.222-.452c-.35-2.21-.757-4.477-1.241-6.785Z" transform="translate(-81.582 -375.247)"/></g><g transform="translate(20.081 48.709)"><path class="g" d="M84.894,396.27l12.184-7.081,1.417.712-12.184,7.081Z" transform="translate(-84.894 -389.19)"/><path class="f" d="M84.894,396.27l12.184-7.081,1.417.712-12.184,7.081Z" transform="translate(-84.894 -389.19)"/></g><g transform="translate(20.081 55.79)"><path class="b" d="M86.311,398.306l.34,6.416-1.274-.642c-.112-1.978-.268-4.16-.483-6.486Z" transform="translate(-84.894 -397.594)"/></g><g transform="translate(12.452 5.099)"><path class="e" d="M84.761,337.507l-.8-.08-8.123,4.72,4.1,13.756.8.078,8.123-4.72Z" transform="translate(-75.839 -337.426)"/><path class="h" d="M76.788,342.242l8.123-4.72,4.1,13.753L80.887,356Z" transform="translate(-75.988 -337.441)"/></g><g transform="translate(19.402 23.202)"><path class="e" d="M93.04,359.222l-.828-.309-8.123,4.72,1.871,13.339.828.309,8.123-4.72Z" transform="translate(-84.089 -358.913)"/><g transform="translate(0.828 0.309)"><path class="h" d="M85.072,364l8.123-4.72,1.871,13.339-8.123,4.72Z" transform="translate(-85.072 -359.28)"/></g></g><g transform="translate(22.561 43.206)"><path class="e" d="M96.972,383.166l-1.012-.508-8.123,4.72.668,12.666,1.016.506,8.122-4.72Z" transform="translate(-87.837 -382.658)"/><g transform="translate(1.012 0.508)"><path class="h" d="M89.039,387.981l8.122-4.72.672,12.663-8.122,4.72Z" transform="translate(-89.039 -383.261)"/></g></g><g transform="translate(21.498 49.422)"><path class="i" d="M86.576,397.116l12.184-7.081.339,6.416-12.184,7.08Z" transform="translate(-86.576 -390.035)"/></g><g transform="translate(18.818 30.451)"><path class="i" d="M83.4,374.6l12.184-7.081.936,6.667-12.184,7.081Z" transform="translate(-83.396 -367.517)"/></g><g transform="translate(13.384 11.611)"><path class="i" d="M76.945,352.236l12.184-7.081,2.07,6.95-12.184,7.081Z" transform="translate(-76.945 -345.155)"/></g></g><path class="j" d="M49.812,416.049a12.16,12.16,0,0,0-.206,3.186c.206.959,2.74,1.575,2.74,1.575s3.56,3.35,6.577,3.117c1.782-.137,2.383-.607,2.662-1.131a1.678,1.678,0,0,0-.333-1.678c-.35-.488-4.042-2.056-4.966-3.528-.45-.718-1.2-2.227-1.2-2.227l-.308-2.809-4.9-.206.243,3.323Z" transform="translate(-35.554 -338.517)"/><path class="k" d="M44.739,373.279l3.116,15.664a47.587,47.587,0,0,0,.686,19.552c.959,2.577,4.378,1.853,6.508,0a125.036,125.036,0,0,1-.617-17.22l.617-4.1s.51-2.1.479-10.02c-.015-4.072-2.329-12.937-2.329-12.937Z" transform="translate(-34.796 -330.936)"/><path class="j" d="M36.976,422.933a9.6,9.6,0,0,0-.4,3.627,3.8,3.8,0,0,0,2.049,2.025,6.373,6.373,0,0,0,5.618,3.734c3.886.1,3.857-1.48,3.837-1.474a2.324,2.324,0,0,0-.891-1.644,51.5,51.5,0,0,1-3.939-3.426,8.471,8.471,0,0,1-.923-1.713l-.173-2.81H36.908Z" transform="translate(-33.51 -339.92)"/><path class="l" d="M45.76,376.771c0,7.934.291,12.624-1.8,16.644a46.01,46.01,0,0,1-1.028,5.344c-.616,2.113-.51,11.338-.259,16.8a3.811,3.811,0,0,1-5.324.921,3.537,3.537,0,0,1-1.405-1.949c-1.373-8.575-2.314-15.362,1.077-21.68-1.089-5.541-.958-10.992-.617-17.015a17.256,17.256,0,0,1,1.139-9.039,16.057,16.057,0,0,1,.917-1.8l14.107,3.346C51.1,373.4,48.551,376.15,45.76,376.771Z" transform="translate(-33.215 -331.059)"/><path class="m" d="M39.33,393.719c-4.328,4.444-3.078,13.065-1.977,23.094a3.512,3.512,0,0,1-1.405-1.944c-1.373-8.575-2.314-15.362,1.077-21.68-1.089-5.541-.958-10.992-.617-17.015a17.256,17.256,0,0,1,1.139-9.039l4.887,5.512C37.571,375.7,36.659,386.324,39.33,393.719Z" transform="translate(-33.215 -331.396)"/><path class="n" d="M59.34,367.473l-1.163,2.667a14.091,14.091,0,0,1-1.543,3.6c-.215.83.2.867,1.005.425l1.655-2.443a4.179,4.179,0,0,1,1.053,1.887l-.449,3.747c.117.724.407.653.771.243l.663-3.4.061,3.645c.259.308.473.2.645-.29l.215-1.048c.182.38.368.309.556-.079,0,0,.136-4.392.135-4.461s-1.431-5.128-1.431-5.128l-.553-1.087-2.186.609Z" transform="translate(-36.661 -331.177)"/><path class="e" d="M51.34,342c.779,2.948.575,6.557,1.6,10.832,1.384,4.285,2.033,6.549,4,11.417.3.472,4.078-.31,3.969-.813-2.041-9.372-.846-6.308-2.147-10.354-.586-3.1-.627-7.068-.993-10.839-.218-2.476-1.158-3.82-2.451-4.384C52.393,336.91,49.7,339.232,51.34,342Z" transform="translate(-35.757 -326.751)"/><path class="e" d="M52.7,358.2c-.008.081-.017.154-.024.235-.073.884-.17,1.816-.268,2.789-.04.381-.081.746-.121,1.111.389,1.971-2.53,3.608-5.742,4.581-2.951.908-6.154,1.257-7.338.835a6.113,6.113,0,0,1-3.47-3.454l-.568-10.282-.049-.868L34.1,345.04a21.442,21.442,0,0,1,5.563-4.849c3.892-2.595,7.436-3.7,12.179-2.343C53.368,342.949,53.659,347.87,52.7,358.2Z" transform="translate(-33.12 -326.691)"/><path class="o" d="M48.516,343.574l1.8,1.223s1.3-4.673.062-5.894S48.516,343.574,48.516,343.574Z" transform="translate(-35.391 -326.922)"/><path class="n" d="M41.98,339.15l2.215-4.6,5.678,2.836-.786,3.576C47.98,345.128,41.288,342.681,41.98,339.15Z" transform="translate(-34.353 -326.263)"/><path class="d" d="M49.356,346.953v-1.837l-.936-.638-.512,1.189.512,1.626a100.741,100.741,0,0,1,.412,12.6l1.523,1.452,1.05-2.378A85.947,85.947,0,0,0,49.356,346.953Z" transform="translate(-35.295 -327.827)"/><path class="o" d="M42.428,338.7l-1.161,1.414s1.916,5.417,5.351,5.417c.459-1.072.757-1.96.757-1.96C44.881,343.188,42.428,340.576,42.428,338.7Z" transform="translate(-34.249 -326.916)"/><path class="p" d="M52.879,360.8c-.073.884-.17,1.816-.268,2.789-.04.381-.081.746-.121,1.111.389,1.971-2.53,3.608-5.742,4.581-2.951.908-6.154,1.257-7.338.835a6.113,6.113,0,0,1-3.47-3.454l-.568-10.282,5.506-4.087c.9,3.819.6,4.33,1.476,7.192,1.475.868,8.068-.511,10.55,1.078C52.854,360.609,52.854,360.682,52.879,360.8Z" transform="translate(-33.321 -329.059)"/><path class="q" d="M51.7,339.581c.5,2.432.817,5.934-.688,6.084-.984,0-2.816-1.734-3.7-4.711a11.8,11.8,0,0,1-.529-4.138Z" transform="translate(-35.115 -326.62)"/><path class="n" d="M45.754,335.482l1.438,2.078a1.967,1.967,0,0,0,1.323,1.016,8.011,8.011,0,0,0,3.217.055,1.391,1.391,0,0,0,1.041-.859,24.759,24.759,0,0,0,.333-2.746,1.3,1.3,0,0,0,.524-.474.6.6,0,0,0-.07-.687c-.178-.191-1.056-1.8-1.056-1.8l.377-1.687c-.131-2.672-1.728-4.576-5.406-5.392-3.121-.54-5.178.95-5.827,4.252C41.159,333.414,42.426,334.989,45.754,335.482Z" transform="translate(-34.293 -324.74)"/><path class="j" d="M42.525,334.857a2.266,2.266,0,0,0,1.484.569.67.67,0,0,0,.625-.447l.57-1.57,1.4-.08a.45.45,0,0,0,.424-.463l-.021-.612a.9.9,0,0,1,.711-.915c2.282-.5,4.4-1.039,5.021-1.939a.509.509,0,0,0,.089-.361c-.691-4.321-9.651-6.864-11.358-.441A6.957,6.957,0,0,0,42.525,334.857Z" transform="translate(-34.233 -324.714)"/><path class="n" d="M45.43,334.016a1.015,1.015,0,0,0-.616,1.013,2.981,2.981,0,0,0,.388,1.2,2.091,2.091,0,0,0,.407.625.625.625,0,0,0,1.093-.27,2.07,2.07,0,0,0,.068-.628,2.948,2.948,0,0,0-.211-1.353A1.018,1.018,0,0,0,45.43,334.016Z" transform="translate(-34.808 -326.174)"/><g transform="translate(0 17.51)"><path class="n" d="M61.164,355.123a3.864,3.864,0,0,0,2.745-.11l1.371-.715c.4.246.97-.121,1.547-.5q.509-.57.069-.988c.127-.471.109-.864-.275-1.058a.773.773,0,0,0-.416-1.012.922.922,0,0,0-.57-1.026l3.127-2.04c.673-.436.4-1.192-.581-.7l-6.1,3.45a6.124,6.124,0,0,0-2.255,1.884L58.4,354.285l1.936,2.1Z" transform="translate(-36.947 -345.705)"/><path class="e" d="M57.657,355.6c-1.653,2.27-10.562,7.434-13.749,7.383-3.993-3.063-4.881-3.449-9.128-8.172-4.362-6.474-.245-12.814,4.688-7.074a53.65,53.65,0,0,1,6.163,8.169c4.406-1.705,9.9-3.474,9.934-3.484C55.206,353.251,56.8,355.5,57.657,355.6Z" transform="translate(-32.937 -345.498)"/></g></g><g transform="translate(90.663 331.333)"><g transform="translate(0 15.748)"><path class="n" d="M110.93,357.047l2.846-.271-.4-.816-1.811-1.364Z" transform="translate(-103.271 -351.788)"/><path class="r" d="M114.242,361.185l-6.051-9.923-6.352,3.076,6.051,9.923Z" transform="translate(-101.839 -351.263)"/><path class="e" d="M107.659,363.164l5.758-2.788-5.264-8.608-5.758,2.788Z" transform="translate(-101.926 -351.342)"/><path class="n" d="M108.984,354.027l1.15-.215a2.576,2.576,0,0,0,1.818,1.472l.6.2a4.248,4.248,0,0,1,.514-.96,2.021,2.021,0,0,0-1.013-1.645l-1.754-.317-2.135.769C108.108,353.808,108.293,354.022,108.984,354.027Z" transform="translate(-102.834 -351.468)"/><g transform="translate(1.523 2.009)"><path class="r" d="M107.924,363.118a.367.367,0,0,0,.409-.438l-1.878-8.744a.365.365,0,1,0-.714.153l1.877,8.743A.366.366,0,0,0,107.924,363.118Z" transform="translate(-103.975 -353.647)"/><path class="n" d="M103.653,359.357c-.048.339.174.583.17.823,0,.094-.022.269-.037.429a2.494,2.494,0,0,0-.017.285c.02.568,1.295,1.4,1.71,1.652l1.66.789,1.971,1.752.4-.67.958-1.468-1.475-1.789a5.355,5.355,0,0,0-.133-2.5l-.765-.925-1.412-.69.141.611a13.21,13.21,0,0,0-1.154-.688c-.27-.139-.748-.223-.951.019-.1.116-.053.372-.135.5-.093.149-.447.3-.52.462s.042.542-.02.7C103.97,358.834,103.7,359,103.653,359.357Z" transform="translate(-103.646 -354.149)"/><path class="n" d="M107.3,357.31l1.437,1.208-1.339-.786Z" transform="translate(-104.222 -354.224)"/><path class="n" d="M103.808,361.316a2.647,2.647,0,0,0-.016.284c.02.568,1.295,1.4,1.71,1.652l1.66.789,1.971,1.752.4-.67a7.833,7.833,0,0,1-2.061-2.073C106.022,363.041,104.33,362.447,103.808,361.316Z" transform="translate(-103.669 -354.855)"/></g></g><path class="d" d="M117.023,363.019c3.485,1.893,16.026,3.132,17.081-.665,3.186-10.453.236-16.348-2.221-17.483C131.883,344.871,115.87,363.365,117.023,363.019Z" transform="translate(-104.221 -334.508)"/><path class="r" d="M111.635,428.168c0-1.409,1.087-1.95,2.7-2.122a33.389,33.389,0,0,1,5.787,1.2l2.835,1.55a6.331,6.331,0,0,1,.206,3.942,3.113,3.113,0,0,1-2.742.863l-3.185-1.349-.23-.459C114.465,431.518,111.634,430.365,111.635,428.168Z" transform="translate(-103.382 -347.294)"/><path class="r" d="M123.917,421.59c0-1.149,1.03-1.348,2.567-1.467,2.776,0,2.895,1.39,5.448,1.329l2.51,1.526a7.508,7.508,0,0,1,.11,4.223,3.6,3.6,0,0,1-2.793.679l-2.581-1.517-.219-.467C126.537,425.535,123.917,423.736,123.917,421.59Z" transform="translate(-105.316 -346.361)"/><path class="k" d="M132.982,375.3l-9.251,3.868a31.979,31.979,0,0,0,.185,4.329c.584,4.262,2.3,10.7,2.3,10.7,1.24,5.477,1.737,12.273,2.027,19.439.047,2.579,3.886,4.841,6.343,2.4.706-8.743.7-17.237-1.354-22.863.985-4.44.073-9.478-.2-14.6C133.089,377.914,132.722,375.405,132.982,375.3Z" transform="translate(-105.286 -339.3)"/><path class="l" d="M114.669,387.606a108.147,108.147,0,0,0,1.7,10.688l.944,19.411a3.038,3.038,0,0,0,1.209,2.968,3.757,3.757,0,0,0,5-.689c1.2-8.729,1.668-17.1-.079-22.712,1.233-4.437,1.173-8.56,1.179-13.674,2.847-1.161,7.254-2.817,7.073-7.309a22.428,22.428,0,0,0-.756-4.988c-.079-.308-.169-.617-.266-.919-.078-.235-.151-.465-.236-.7-1.571,3.15-6.631,5.114-12.133,4.419-.242-.03-.478-.067-.719-.109-.586-.1-1.173-.223-1.765-.381,0,0-.048.314-.126.853-.061.441-.146,1.028-.236,1.717A70.1,70.1,0,0,0,114.669,387.606Z" transform="translate(-103.851 -338.417)"/><path class="s" d="M114.666,388.339a107.3,107.3,0,0,0,1.708,10.689l.941,19.416a3.037,3.037,0,0,0,1.221,2.967c-.846-8.168-1.221-15.826,0-21.753-1.827-6.725-1.943-14.444.155-19.637-.024-2.074-.961-3.273-.522-4.78a21.371,21.371,0,0,1-2.345-.885S114.324,384.087,114.666,388.339Z" transform="translate(-103.851 -339.152)"/><path class="t" d="M131.219,366.009a6.316,6.316,0,0,0,0,3,8.851,8.851,0,0,1,.319,2.732c-1.827,2.586-6.5,4.888-11.31,4.1-.259-.1-.906-.268-1.664-.474a.65.65,0,0,1-.12-.035c-.543-.147-1.13-.31-1.682-.457-.077-.018-.146-.043-.215-.061-.2-.061-.38-.112-.552-.163-.224-.069-.44-.138-.629-.2-.086-.035-.164-.06-.242-.086-.06-.026-.12-.043-.18-.069-.035-.017.258-4.009.215-4.025-.31-3.474-.293-4.948-.5-9.31,0-.155-.008-.31-.018-.473a7.243,7.243,0,0,0-.078-1.423c-1.483-5.956-.483-6.586,1.1-7.586,5.111-3.241,9.112-7.388,15.732-6.62C136.431,349.68,131.326,365.559,131.219,366.009Z" transform="translate(-103.729 -334.49)"/><path class="n" d="M119.2,342.213c-.324-.362.174-1.2.537-1.319.507-.165.784.569.837.969a1.858,1.858,0,0,1-.3,1.4c-.345.51-.885.008-1.056-.4C119.1,342.563,119.407,342.442,119.2,342.213Z" transform="translate(-104.557 -333.877)"/><path class="n" d="M126.675,344.654l-2.261-3.909-6.148,3.016,2.377,4.407C122.868,348.168,127.435,346.117,126.675,344.654Z" transform="translate(-104.426 -333.858)"/><path class="n" d="M119.771,344.913a1.206,1.206,0,0,1-2.03.309c-1.276-1.16-3.363-4.988-2.667-8.062s5.857,1.1,5.857,1.1Z" transform="translate(-103.902 -333.115)"/><path class="j" d="M125.106,341.835a21.755,21.755,0,0,0-4.374,2,1.327,1.327,0,0,1-1.518-.067l-.8-.6-.562-1.708-1.236-.5.087-1.276a4.073,4.073,0,0,1-1.849-1.334c-1.659-2.87,1.821-6.031,5.59-5.771C125.259,332.846,126.448,338.007,125.106,341.835Z" transform="translate(-103.822 -332.57)"/><path class="n" d="M117.548,342.841a1.735,1.735,0,0,1-.039-.547.657.657,0,0,1,.261-.466.686.686,0,0,1,.892.261,2,2,0,0,1,.247.99c.018.248.035.5.052.744a1.514,1.514,0,0,1-.041.619.518.518,0,0,1-.454.369.508.508,0,0,1-.386-.217,1.38,1.38,0,0,1-.19-.414A10.8,10.8,0,0,1,117.548,342.841Z" transform="translate(-104.306 -334.016)"/><path class="u" d="M118.719,377.7a.646.646,0,0,1-.12-.035c-.578-.155-1.155-.3-1.682-.457-.077-.018-.146-.043-.215-.061-.2-.061-.38-.112-.552-.163-.224-.069-.44-.138-.629-.2-.086-.034-.164-.06-.242-.086-.06-.026-.12-.043-.18-.069-.035-.017.258-4.009.215-4.025-.31-3.474-.293-4.948-.5-9.31l4.371-3.715A34.562,34.562,0,0,1,118.719,377.7Z" transform="translate(-103.882 -336.824)"/><path class="d" d="M113.372,353.923c-2.171,1.345-2.345,2.875-2.345,6.254l.147,1.987-1.593-1.485c-1.618-.1-2.343.718-2.181,2.715.57,3.346,2.229,7.037,4.929,7.988,1.493.526,3.058-.144,3.814-3.076l1.829-7.507C118.243,355.8,117.231,353.1,113.372,353.923Z" transform="translate(-102.711 -335.91)"/><path class="d" d="M127.174,345.335l-.612-.873c-.4.986-2.466,2.251-6.159,3.223l.066,1.17C123.828,349.45,127.934,346.8,127.174,345.335Z" transform="translate(-104.763 -334.443)"/></g></g></svg>